<?xml version="1.0" encoding="utf-8" standalone="yes"?>
<!DOCTYPE svg PUBLIC "-//W3C//DTD SVG 1.1//EN" "http://www.w3.org/Graphics/SVG/1.1/DTD/svg11.dtd">
<svg width="492" height="438" viewBox="0 0 492 438" style="fill:none;stroke:none;fill-rule:evenodd;clip-rule:evenodd;stroke-linecap:round;stroke-linejoin:round;stroke-miterlimit:1.5;" version="1.1" xmlns="http://www.w3.org/2000/svg" xmlns:xlink="http://www.w3.org/1999/xlink"><style id="fontImports">@import url("https://fonts.googleapis.com/css2?family=Roboto:wght@400;700&amp;display=block");</style><rect id="" x="0" y="0" width="492" height="438" style="fill: #ffffff;"></rect><g id="items" style="isolation: isolate"><g id="blend" style="mix-blend-mode:normal"><g id="g-root-3.line_sy_djudfe1if9te6-fill" data-item-order="999969701" data-item-id="3.line_sy_djudfe1if9te6" data-item-class="Curve Stroke Part Indexed" data-item-index="3" data-renderer-id="0" transform="translate(136.469482421875, 140)"></g><g id="g-root-2.line_sy_mfhdoa1if9slh-fill" data-item-order="999969703" data-item-id="2.line_sy_mfhdoa1if9slh" data-item-class="Curve Stroke Part Indexed" data-item-index="2" data-renderer-id="0" transform="translate(230.0001220703125, 266)"></g><g id="g-root-1.line_sy_mfhdoa1if9slg-fill" data-item-order="999969705" data-item-id="1.line_sy_mfhdoa1if9slg" data-item-class="Curve Stroke Part Indexed Indexed_1" data-item-index="1" data-renderer-id="0" transform="translate(292.3538818359375, 140)"></g><g id="g-root-tx_resultad_925g1m1if9v60-fill" data-item-order="1000000000" data-item-id="tx_resultad_925g1m1if9v60" data-item-class="Label Stroke Title" data-item-index="none" data-renderer-id="0" transform="translate(80, 2)"><g id="tx_resultad_925g1m1if9v60-fill" stroke="none" fill="#484848"><g><text style="font: 20px Roboto, sans-serif; white-space: pre;" font-weight="20px" font-size="Roboto," font-family="sans-serif"><tspan x="41.56" y="40" dominant-baseline="ideographic">Desenvolvimento Sugerido</tspan></text></g></g></g><g id="g-root-tx_partedop_1qclym21if9u69-fill" data-item-order="1000000000" data-item-id="tx_partedop_1qclym21if9u69" data-item-class="Label Stroke Indexed" data-item-index="3" data-renderer-id="0" transform="translate(2, 98)"><g id="tx_partedop_1qclym21if9u69-fill" stroke="none" fill="#484848"><g><text style="font: 20px Roboto, sans-serif; white-space: pre;" font-weight="20px" font-size="Roboto," font-family="sans-serif"><tspan x="40.58" y="34" dominant-baseline="ideographic">Parte do </tspan><tspan x="11.52" y="58" dominant-baseline="ideographic">Proprietário</tspan></text></g></g></g><g id="g-root-tx_torresre_zqbeyi1if9u6b-fill" data-item-order="1000000000" data-item-id="tx_torresre_zqbeyi1if9u6b" data-item-class="Label Stroke Indexed Indexed_1" data-item-index="1" data-renderer-id="0" transform="translate(350, 98)"><g id="tx_torresre_zqbeyi1if9u6b-fill" stroke="none" fill="#484848"><g><text style="font: 20px Roboto, sans-serif; white-space: pre;" font-weight="20px" font-size="Roboto," font-family="sans-serif"><tspan x="12" y="34" dominant-baseline="ideographic">Torres </tspan><tspan x="12" y="58" dominant-baseline="ideographic">Residenciais</tspan></text></g></g></g><g id="g-root-tx_qunsl61jt3l6z-fill" data-item-order="1000000000" data-item-id="tx_qunsl61jt3l6z" data-item-class="Label Stroke" data-item-index="none" data-renderer-id="0" transform="translate(44, 157.99609375)"><g id="tx_qunsl61jt3l6z-fill" stroke="none" fill="#484848"><g><text style="font: bold 30px Roboto, sans-serif; white-space: pre;" font-weight="bold" font-size="30" font-family="Roboto, sans-serif"><tspan x="12" y="46" dominant-baseline="ideographic">10%</tspan></text></g></g></g><g id="g-root-buil_1uqk4my1if1fkf-fill" data-item-order="1000000000" data-item-id="buil_1uqk4my1if1fkf" data-item-class="Icon Stroke" data-item-index="none" data-renderer-id="0" transform="translate(194, 157.99609375)"></g><g id="g-root-tx_1utnmh61hl9o9a-fill" data-item-order="1000000000" data-item-id="tx_1utnmh61hl9o9a" data-item-class="Label Stroke" data-item-index="none" data-renderer-id="0" transform="translate(338, 157.99609375)"><g id="tx_1utnmh61hl9o9a-fill" stroke="none" fill="#484848"><g><text style="font: 25px Roboto, sans-serif; white-space: pre;" font-weight="25px" font-size="Roboto," font-family="sans-serif"><tspan x="15.57" y="43" dominant-baseline="ideographic">12 blocos</tspan></text></g></g></g><g id="g-root-tx_qssa7u1jizt37-fill" data-item-order="1000000000" data-item-id="tx_qssa7u1jizt37" data-item-class="Label Stroke" data-item-index="none" data-renderer-id="0" transform="translate(2, 197.0787353515625)"><g id="tx_qssa7u1jizt37-fill" stroke="none" fill="#484848"><g><text style="font: 20px Roboto, sans-serif; white-space: pre;" font-weight="20px" font-size="Roboto," font-family="sans-serif"><tspan x="12" y="34" dominant-baseline="ideographic">(permuta física)</tspan></text></g></g></g><g id="g-root-tx_18k2qii1kxd6vc-fill" data-item-order="1000000000" data-item-id="tx_18k2qii1kxd6vc" data-item-class="Label Stroke" data-item-index="none" data-renderer-id="0" transform="translate(368, 194)"><g id="tx_18k2qii1kxd6vc-fill" stroke="none" fill="#484848"><g><text style="font: 20px Roboto, sans-serif; white-space: pre;" font-weight="20px" font-size="Roboto," font-family="sans-serif"><tspan x="12" y="34" dominant-baseline="ideographic">(T+3)</tspan></text></g></g></g><g id="g-root-tx_unidades_1d1rxbu1if9sle-fill" data-item-order="1000000000" data-item-id="tx_unidades_1d1rxbu1if9sle" data-item-class="Label Stroke Indexed" data-item-index="2" data-renderer-id="0" transform="translate(164, 326)"><g id="tx_unidades_1d1rxbu1if9sle-fill" stroke="none" fill="#484848"><g><text style="font: 20px Roboto, sans-serif; white-space: pre;" font-weight="20px" font-size="Roboto," font-family="sans-serif"><tspan x="34.39" y="34" dominant-baseline="ideographic">Unidades </tspan><tspan x="14.78" y="58" dominant-baseline="ideographic">Habitacionais</tspan></text></g></g></g><g id="g-root-tx_1qbyire1knf0g4-fill" data-item-order="1000000000" data-item-id="tx_1qbyire1knf0g4" data-item-class="Label Stroke" data-item-index="none" data-renderer-id="0" transform="translate(199.30908203125, 380)"><g id="tx_1qbyire1knf0g4-fill" stroke="none" fill="#484848"><g><text style="font: 25px Roboto, sans-serif; white-space: pre;" font-weight="25px" font-size="Roboto," font-family="sans-serif"><tspan x="12" y="43" dominant-baseline="ideographic">192</tspan></text></g></g></g><g id="g-root-3.line_sy_djudfe1if9te6-stroke" data-item-order="999969701" data-item-id="3.line_sy_djudfe1if9te6" data-item-class="Curve Stroke Part Indexed" data-item-index="3" data-renderer-id="0" transform="translate(136.469482421875, 140)"><g id="3.line_sy_djudfe1if9te6-stroke" fill="none" stroke-linecap="round" stroke-linejoin="round" stroke-miterlimit="4" stroke="#484848" stroke-width="2"><g><path d="M 41.18053 28L 11.73053 11"></path><path d="M 20.13053 8.4L 11.33053 10.7L 13.63053 19.6" stroke-dasharray="none"></path></g></g></g><g id="g-root-2.line_sy_mfhdoa1if9slh-stroke" data-item-order="999969703" data-item-id="2.line_sy_mfhdoa1if9slh" data-item-class="Curve Stroke Part Indexed" data-item-index="2" data-renderer-id="0" transform="translate(230.0001220703125, 266)"><g id="2.line_sy_mfhdoa1if9slh-stroke" fill="none" stroke-linecap="round" stroke-linejoin="round" stroke-miterlimit="4" stroke="#484848" stroke-width="2"><g><path d="M 9.999878 10L 9.999878 44"></path><path d="M 3.499878 38L 9.999878 44.5L 16.499878 38" stroke-dasharray="none"></path></g></g></g><g id="g-root-1.line_sy_mfhdoa1if9slg-stroke" data-item-order="999969705" data-item-id="1.line_sy_mfhdoa1if9slg" data-item-class="Curve Stroke Part Indexed Indexed_1" data-item-index="1" data-renderer-id="0" transform="translate(292.3538818359375, 140)"><g id="1.line_sy_mfhdoa1if9slg-stroke" fill="none" stroke-linecap="round" stroke-linejoin="round" stroke-miterlimit="4" stroke="#484848" stroke-width="2"><g><path d="M 9.996094 28L 39.446094 11"></path><path d="M 37.496094 19.6L 39.896094 10.7L 30.996094 8.4" stroke-dasharray="none"></path></g></g></g><g id="g-root-tx_resultad_925g1m1if9v60-stroke" data-item-order="1000000000" data-item-id="tx_resultad_925g1m1if9v60" data-item-class="Label Stroke Title" data-item-index="none" data-renderer-id="0" transform="translate(80, 2)"></g><g id="g-root-tx_partedop_1qclym21if9u69-stroke" data-item-order="1000000000" data-item-id="tx_partedop_1qclym21if9u69" data-item-class="Label Stroke Indexed" data-item-index="3" data-renderer-id="0" transform="translate(2, 98)"></g><g id="g-root-tx_torresre_zqbeyi1if9u6b-stroke" data-item-order="1000000000" data-item-id="tx_torresre_zqbeyi1if9u6b" data-item-class="Label Stroke Indexed Indexed_1" data-item-index="1" data-renderer-id="0" transform="translate(350, 98)"></g><g id="g-root-tx_qunsl61jt3l6z-stroke" data-item-order="1000000000" data-item-id="tx_qunsl61jt3l6z" data-item-class="Label Stroke" data-item-index="none" data-renderer-id="0" transform="translate(44, 157.99609375)"></g><g id="g-root-buil_1uqk4my1if1fkf-stroke" data-item-order="1000000000" data-item-id="buil_1uqk4my1if1fkf" data-item-class="Icon Stroke" data-item-index="none" data-renderer-id="0" transform="translate(194, 157.99609375)"><g id="buil_1uqk4my1if1fkf-stroke" fill="none" stroke-linecap="round" stroke-linejoin="round" stroke-miterlimit="4" stroke="#484848" stroke-width="2"><g><path d="M 53.5 80.5L 14.5 80.5C 12.843145 80.5 11.5 79.156853 11.5 77.5L 11.5 14.5C 11.5 12.843145 12.843145 11.5 14.5 11.5L 77.5 11.5C 79.156853 11.5 80.5 12.843145 80.5 14.5L 80.5 62.5M 29.5 26.5C 29.5 23.186291 26.813709 20.5 23.5 20.5C 20.186291 20.5 17.5 23.186291 17.5 26.5L 17.5 37C 17.5 37.828426 18.171574 38.5 19 38.5L 28 38.5C 28.828428 38.5 29.5 37.828426 29.5 37ZM 47.5 26.5C 47.5 23.186291 44.813709 20.5 41.5 20.5C 38.186291 20.5 35.5 23.186291 35.5 26.5L 35.5 37C 35.5 37.828426 36.171574 38.5 37 38.5L 46 38.5C 46.828426 38.5 47.5 37.828426 47.5 37ZM 29.5 56.5C 29.5 53.186291 26.813709 50.5 23.5 50.5C 20.186291 50.5 17.5 53.186291 17.5 56.5L 17.5 67C 17.5 67.82843 18.171574 68.5 19 68.5L 28 68.5C 28.828428 68.5 29.5 67.82843 29.5 67ZM 47.5 56.5C 47.5 53.186291 44.813709 50.5 41.5 50.5C 38.186291 50.5 35.5 53.186291 35.5 56.5L 35.5 67C 35.5 67.82843 36.171574 68.5 37 68.5L 46 68.5C 46.828426 68.5 47.5 67.82843 47.5 67ZM 74.5 62.5L 74.5 44.5C 74.5 41.186291 71.813713 38.5 68.5 38.5L 65.5 38.5C 62.186287 38.5 59.5 41.186291 59.5 44.5L 59.5 62.5M 61 25C 61 28.313709 63.686287 31 67 31C 70.313713 31 73 28.313709 73 25C 73 21.686291 70.313713 19 67 19C 63.686287 19 61 21.686291 61 25ZM 80.5 62.5L 53.5 62.5L 53.5 80.5L 77.5 80.5C 79.156853 80.5 80.5 79.156853 80.5 77.5ZM 53.5 68.5L 80.5 68.5M 53.5 74.5L 80.5 74.5M 53.5 11.5L 53.5 62.5"></path></g></g></g><g id="g-root-tx_1utnmh61hl9o9a-stroke" data-item-order="1000000000" data-item-id="tx_1utnmh61hl9o9a" data-item-class="Label Stroke" data-item-index="none" data-renderer-id="0" transform="translate(338, 157.99609375)"></g><g id="g-root-tx_qssa7u1jizt37-stroke" data-item-order="1000000000" data-item-id="tx_qssa7u1jizt37" data-item-class="Label Stroke" data-item-index="none" data-renderer-id="0" transform="translate(2, 197.0787353515625)"></g><g id="g-root-tx_18k2qii1kxd6vc-stroke" data-item-order="1000000000" data-item-id="tx_18k2qii1kxd6vc" data-item-class="Label Stroke" data-item-index="none" data-renderer-id="0" transform="translate(368, 194)"></g><g id="g-root-tx_unidades_1d1rxbu1if9sle-stroke" data-item-order="1000000000" data-item-id="tx_unidades_1d1rxbu1if9sle" data-item-class="Label Stroke Indexed" data-item-index="2" data-renderer-id="0" transform="translate(164, 326)"></g><g id="g-root-tx_1qbyire1knf0g4-stroke" data-item-order="1000000000" data-item-id="tx_1qbyire1knf0g4" data-item-class="Label Stroke" data-item-index="none" data-renderer-id="0" transform="translate(199.30908203125, 380)"></g></g></g></svg>
