<?xml version="1.0" encoding="utf-8" standalone="yes"?>
<!DOCTYPE svg PUBLIC "-//W3C//DTD SVG 1.1//EN" "http://www.w3.org/Graphics/SVG/1.1/DTD/svg11.dtd">
<svg width="628" height="255" viewBox="0 0 628 255" style="fill:none;stroke:none;fill-rule:evenodd;clip-rule:evenodd;stroke-linecap:round;stroke-linejoin:round;stroke-miterlimit:1.5;" version="1.1" xmlns="http://www.w3.org/2000/svg" xmlns:xlink="http://www.w3.org/1999/xlink"><style id="fontImports">@import url("https://fonts.googleapis.com/css2?family=Shantell+Sans:wght@300..800&amp;display=block");
@import url("https://fonts.googleapis.com/css2?family=Roboto:wght@400;700&amp;display=block");</style><rect id="" x="0" y="0" width="628" height="255" style="fill: #ffffff;"></rect><g id="items" style="isolation: isolate"><g id="blend" style="mix-blend-mode:normal"><g id="g-root-3.cu_sy_902laza62gy-fill" data-item-order="999899204" data-item-id="3.cu_sy_902laza62gy" data-item-class="Part Indexed Fill Stroke ColorStrokeBlack" data-item-index="3" data-renderer-id="0" transform="translate(400, 135)"></g><g id="g-root-2.cu_sy_dkgkymza60w1-fill" data-item-order="999899206" data-item-id="2.cu_sy_dkgkymza60w1" data-item-class="Part Indexed Fill Stroke ColorStrokeBlack" data-item-index="2" data-renderer-id="0" transform="translate(4, 99)"></g><g id="g-root-1.cu_sy_qvam8uza62gw-fill" data-item-order="999899208" data-item-id="1.cu_sy_qvam8uza62gw" data-item-class="Part Indexed Indexed_1 Fill Stroke ColorStrokeBlack" data-item-index="1" data-renderer-id="0" transform="translate(196, 63)"></g><g id="g-root-incr_1hdukv2z9uv4f-fill" data-item-order="1000000000" data-item-id="incr_1hdukv2z9uv4f" data-item-class="Icon Stroke Indexed Indexed_1 ColorStrokeBlack" data-item-index="1" data-renderer-id="0" transform="translate(280, 3)"></g><g id="g-root-hand_1upb38ez9utji-fill" data-item-order="1000000000" data-item-id="hand_1upb38ez9utji" data-item-class="Icon Stroke Indexed ColorStrokeBlack" data-item-index="2" data-renderer-id="0" transform="translate(88, 39)"></g><g id="g-root-tx_expectat_1qd865aza60we-fill" data-item-order="1000000000" data-item-id="tx_expectat_1qd865aza60we" data-item-class="Label Stroke Indexed Indexed_1 InsideFill InsideColorFill ColorStrokeBlack" data-item-index="1" data-renderer-id="0" transform="translate(220, 75)"><g id="tx_expectat_1qd865aza60we-fill" stroke="none" fill="#484848"><g><text style="font: 20px &quot;Shantell Sans&quot;, cursive; white-space: pre;" font-weight="20px" font-size="&quot;Shantell" font-family="Sans', cursive"><tspan x="14.88" y="35" dominant-baseline="ideographic">Expectativas de </tspan><tspan x="55.46" y="59" dominant-baseline="ideographic">Receita</tspan></text></g></g></g><g id="g-root-1_mahkwuz9utql-fill" data-item-order="1000000000" data-item-id="1_mahkwuz9utql" data-item-class="Icon Stroke Indexed ColorStrokeBlack" data-item-index="3" data-renderer-id="0" transform="translate(472, 75)"></g><g id="g-root-tx_particip_v98p3yza62od-fill" data-item-order="1000000000" data-item-id="tx_particip_v98p3yza62od" data-item-class="Label Stroke Indexed InsideFill InsideColorFill ColorStrokeBlack" data-item-index="2" data-renderer-id="0" transform="translate(28, 111)"><g id="tx_particip_v98p3yza62od-fill" stroke="none" fill="#484848"><g><text style="font: 20px &quot;Shantell Sans&quot;, cursive; white-space: pre;" font-weight="20px" font-size="&quot;Shantell" font-family="Sans', cursive"><tspan x="15.88" y="35" dominant-baseline="ideographic">Participação do </tspan><tspan x="33.26" y="59" dominant-baseline="ideographic">Proprietário</tspan></text></g></g></g><g id="g-root-tx_reatotal_1lvj8riza62oc-fill" data-item-order="1000000000" data-item-id="tx_reatotal_1lvj8riza62oc" data-item-class="Label Stroke Indexed InsideFill InsideColorFill ColorStrokeBlack" data-item-index="3" data-renderer-id="0" transform="translate(442, 147)"><g id="tx_reatotal_1lvj8riza62oc-fill" stroke="none" fill="#484848"><g><text style="font: 20px &quot;Shantell Sans&quot;, cursive; white-space: pre;" font-weight="20px" font-size="&quot;Shantell" font-family="Sans', cursive"><tspan x="13.21" y="35" dominant-baseline="ideographic">Área Total</tspan></text></g></g></g><g id="g-root-tx_1upwiemwi32f4-fill" data-item-order="1000000000" data-item-id="tx_1upwiemwi32f4" data-item-class="Label Stroke" data-item-index="none" data-renderer-id="0" transform="translate(76, 171)"><g id="tx_1upwiemwi32f4-fill" stroke="none" fill="#17b0e3"><g><text style="font: 30px Roboto, sans-serif; white-space: pre;" font-weight="30px" font-size="Roboto," font-family="sans-serif"><tspan x="18.16" y="52" dominant-baseline="ideographic">40%</tspan></text></g></g></g><g id="g-root-tx_1hd83suv4j7k6-fill" data-item-order="1000000000" data-item-id="tx_1hd83suv4j7k6" data-item-class="Label Stroke" data-item-index="none" data-renderer-id="0" transform="translate(268, 177)"><g id="tx_1hd83suv4j7k6-fill" stroke="none" fill="#17b0e3"><g><text style="font: 30px Roboto, sans-serif; white-space: pre;" font-weight="30px" font-size="Roboto," font-family="sans-serif"><tspan x="16.05" y="46" dominant-baseline="ideographic">43M</tspan></text></g></g></g><g id="g-root-tx_1d1qp1avo8k5n-fill" data-item-order="1000000000" data-item-id="tx_1d1qp1avo8k5n" data-item-class="Label Stroke" data-item-index="none" data-renderer-id="0" transform="translate(448, 177)"><g id="tx_1d1qp1avo8k5n-fill" stroke="none" fill="#17b0e3"><g><text style="font: 30px Roboto, sans-serif; white-space: pre;" font-weight="30px" font-size="Roboto," font-family="sans-serif"><tspan x="13.16" y="46" dominant-baseline="ideographic">11 alq.</tspan></text></g></g></g><g id="g-root-3.cu_sy_902laza62gy-stroke" data-item-order="999899204" data-item-id="3.cu_sy_902laza62gy" data-item-class="Part Indexed Fill Stroke ColorStrokeBlack" data-item-index="3" data-renderer-id="0" transform="translate(400, 135)"><g id="3.cu_sy_902laza62gy-stroke" fill="none" stroke-linecap="round" stroke-linejoin="round" stroke-miterlimit="4" stroke="#484848" stroke-width="4"><g><path d="M 208 10C 211.3 9.8 214.7 12.8 214 16C 213.3 19.2 211.3 22.3 208 22C 206 21.8 203.9 21.3 202 22C 200.6 35.2 202.1 48.6 202 61.9C 201.9 76.6 202.2 91.3 202 106C 167.5 107.7 132.9 105.9 98.4 106C 68.9 106.1 39.5 106.8 10 106C 8.9 95.4 8.6 84.5 10 74C 11.4 63.3 9.5 52.5 10 41.8C 10.5 31.2 10.1 20.6 10 10C 33.5 8.7 57.1 10.8 80.6 10C 99.9 9.4 119.2 11.9 138.4 10C 161.5 7.7 184.8 9.2 208 10"></path><path d="M 208 10C 211.314 10 214 12.686 214 16C 214 19.314 211.314 22 208 22L 202 22L 202 106L 10 106L 10 10L 208 10Z"></path></g></g></g><g id="g-root-2.cu_sy_dkgkymza60w1-stroke" data-item-order="999899206" data-item-id="2.cu_sy_dkgkymza60w1" data-item-class="Part Indexed Fill Stroke ColorStrokeBlack" data-item-index="2" data-renderer-id="0" transform="translate(4, 99)"><g id="2.cu_sy_dkgkymza60w1-stroke" fill="none" stroke-linecap="round" stroke-linejoin="round" stroke-miterlimit="4" stroke="#484848" stroke-width="4"><g><path d="M 16 10C 12.7 9.4 9.3 12.8 10 16C 10.7 19.2 12.7 22.1 16 22C 18 21.9 20.1 21.5 22 22C 21.2 40.4 21.5 58.9 22 77.3C 22.6 98.9 21.5 120.4 22 142C 38.5 140.1 55.1 141.5 71.7 142C 88.1 142.5 104.6 142.8 121 142C 137.3 141.2 153.6 143.2 169.8 142C 184.5 140.9 199.4 143.7 214 142C 212 118.9 213 95.5 214 72.3C 214.9 51.6 212.9 30.8 214 10C 191.7 11.9 169.3 9.6 147 10C 125.6 10.4 104.3 10.1 83 10C 60.7 9.9 38.2 12 16 10"></path><path d="M 16 10C 12.6863 10 10 12.686 10 16C 10 19.314 12.6863 22 16 22L 22 22L 22 142L 214 142L 214 10L 16 10Z"></path></g></g></g><g id="g-root-1.cu_sy_qvam8uza62gw-stroke" data-item-order="999899208" data-item-id="1.cu_sy_qvam8uza62gw" data-item-class="Part Indexed Indexed_1 Fill Stroke ColorStrokeBlack" data-item-index="1" data-renderer-id="0" transform="translate(196, 63)"><g id="1.cu_sy_qvam8uza62gw-stroke" fill="none" stroke-linecap="round" stroke-linejoin="round" stroke-miterlimit="4" stroke="#484848" stroke-width="4"><g><path d="M 226 16C 225.8 12.7 223.3 9.5 220 10C 209.6 11.5 199 11.2 188.6 10C 177.7 8.7 166.8 9.8 155.9 10C 143.5 10.2 131.2 9.4 118.9 10C 106.7 10.6 94.6 10 82.5 10C 71.1 10 59.6 8.9 48.2 10C 37.5 11 26.6 8.2 16 10C 12.7 10.6 9.9 12.7 10 16C 10.1 19.3 12.7 22.2 16 22C 18 21.9 20 22.1 22 22C 22.7 39.4 22.5 56.8 22 74.1C 21.5 90.5 22.6 107 22 123.4C 21.3 141.6 23.2 159.8 22 178C 38.6 178 55.1 178.7 71.7 178C 86 177.4 100.4 178.2 114.8 178C 130 177.8 145.2 179.3 160.3 178C 178.1 176.5 196.1 179 214 178C 215.6 166.1 214 153.9 214 141.9C 214 128.7 212.6 115.4 214 102.3C 215.3 89.9 215.2 77.3 214 64.9C 212.6 50.6 213.8 36.3 214 22C 216 22 218 21.6 220 22C 223.2 22.7 226.7 19.2 226 16"></path><path d="M 226 16C 226 12.686 223.314 10 220 10L 16 10C 12.686 10 10 12.686 10 16C 10 19.314 12.686 22 16 22L 22 22L 22 178L 214 178L 214 22L 220 22C 223.314 22 226 19.314 226 16Z"></path></g></g></g><g id="g-root-incr_1hdukv2z9uv4f-stroke" data-item-order="1000000000" data-item-id="incr_1hdukv2z9uv4f" data-item-class="Icon Stroke Indexed Indexed_1 ColorStrokeBlack" data-item-index="1" data-renderer-id="0" transform="translate(280, 3)"><g id="incr_1hdukv2z9uv4f-stroke" fill="none" stroke-linecap="round" stroke-linejoin="round" stroke-miterlimit="4" stroke="#484848" stroke-width="2"><g><path d="M 14.114285 32.285713C 27.142857 26.114285 39.485718 17.542858 53.542858 14.457143M 46.342857 11.714286C 48.742859 12.742857 51.142857 13.428572 53.542858 14.457143C 53.200001 17.199999 52.514286 19.6 50.799999 22M 55.600002 56.285713C 52.857143 55.257141 49.771431 56.628574 47.028572 56.285713C 46.685715 48.400002 46 40.171429 47.028572 32.285713C 47.028572 31.257143 47.714287 30.228573 48.742859 30.571428C 50.114285 30.914286 52.171429 31.257143 53.885715 30.571428C 54.57143 30.228573 55.257141 31.257143 55.600002 32.285713C 55.942856 40.171429 54.914288 48.400002 55.600002 56.285713M 38.457146 56.285713C 35.371429 56.628574 32.628571 55.600002 29.885715 56.285713C 28.514286 50.114285 31.257143 43.600002 29.885715 37.428574C 29.542856 36.399998 30.571428 35.371429 31.6 35.714287C 32.971428 36.399998 35.028572 35.371429 36.742859 35.714287C 37.428574 36.057144 38.114285 36.742859 38.457146 37.428574C 40.171429 43.257141 37.428574 50.114285 38.457146 56.285713M 21.314285 56.285713C 18.228571 56.971428 15.485714 56.971428 12.742857 56.285713C 13.771429 51.828571 13.771429 47.028572 12.742857 42.57143C 12.4 41.542858 13.428572 40.857143 14.457143 40.857143C 16.171429 40.857143 17.885714 40.857143 19.6 40.857143C 20.285715 40.857143 20.971428 41.542858 21.314285 42.57143C 21.657143 47.028572 20.285715 51.828571 21.314285 56.285713M 14.251429 32.422855L 53.68 14.491428M 46.308571 11.714286L 53.68 14.491428L 50.937141 21.862858M 55.428574 56.32L 46.857143 56.32L 46.857143 56.32L 46.857143 32.32C 46.857143 31.373228 47.624657 30.605715 48.57143 30.605715L 53.714287 30.605715C 54.66106 30.605715 55.428574 31.373228 55.428574 32.32L 55.428574 56.32L 55.428574 56.32ZM 38.285713 56.32L 29.714287 56.32L 29.714287 56.32L 29.714287 37.46286C 29.714287 36.516087 30.481798 35.748573 31.428572 35.748573L 36.57143 35.748573C 37.518204 35.748573 38.285713 36.516087 38.285713 37.46286L 38.285713 56.32L 38.285713 56.32ZM 21.142857 56.32L 12.571428 56.32L 12.571428 56.32L 12.571428 42.605717C 12.571428 41.658943 13.338942 40.89143 14.285714 40.89143L 19.428572 40.89143C 20.375343 40.89143 21.142857 41.658943 21.142857 42.605717L 21.142857 56.32L 21.142857 56.32Z"></path></g></g></g><g id="g-root-hand_1upb38ez9utji-stroke" data-item-order="1000000000" data-item-id="hand_1upb38ez9utji" data-item-class="Icon Stroke Indexed ColorStrokeBlack" data-item-index="2" data-renderer-id="0" transform="translate(88, 39)"><g id="hand_1upb38ez9utji-stroke" fill="none" stroke-linecap="round" stroke-linejoin="round" stroke-miterlimit="4" stroke="#484848" stroke-width="2"><g><path d="M 40.514286 32.628571C 38.114285 35.028572 34.685715 36.057144 32.285713 38.457146C 30.914286 36.399998 29.200001 34.342857 27.142857 33.314285C 30.914286 30.914286 31.942858 25.085714 35.714287 23.028572C 38.457146 23.028572 41.542858 23.028572 44.285713 23.028572C 47.028572 21.314285 50.114285 20.628571 52.857143 19.6M 42.914288 41.885715C 46.342857 39.828571 49.771431 38.799999 52.857143 36.742859M 56.285713 40.171429C 55.257141 39.828571 53.885715 39.828571 52.857143 40.171429C 52.514286 32.628571 53.200001 25.085714 52.857143 17.885714C 53.885715 17.542858 55.257141 17.885714 56.285713 17.885714M 37.428574 35.028572C 39.828571 37.428574 41.885715 40.857143 44.285713 43.600002C 39.142857 46.685715 31.942858 46.342857 27.142857 50.457146C 23.371429 46.685715 18.571428 43.942856 15.142858 40.171429M 15.142858 23.028572C 19.257143 22 23.028572 23.714287 27.142857 23.028572C 28.857143 24.4 30.571428 25.771429 31.6 27.828571M 11.714286 21.314285C 12.742857 21.314285 14.114285 20.971428 15.142858 21.314285C 14.8 28.171429 16.857143 35.028572 15.142858 41.885715C 14.114285 41.542858 12.742857 42.228569 11.714286 41.885715M 40.582859 32.765713L 32.285713 38.285713L 27.142857 33.142857L 35.714287 22.857143L 44.285713 22.857143L 52.857143 19.428572M 43.017143 41.885715L 52.857143 36.57143M 56.285713 40L 52.857143 40L 52.857143 17.714285L 56.285713 17.714285M 37.325714 34.925713L 44.285713 43.428574L 27.142857 50.285713L 15.142858 40M 15.142858 22.857143L 27.142857 22.857143L 31.531429 27.862858M 11.714286 21.142857L 15.142858 21.142857L 15.142858 41.714287L 11.714286 41.714287"></path></g></g></g><g id="g-root-tx_expectat_1qd865aza60we-stroke" data-item-order="1000000000" data-item-id="tx_expectat_1qd865aza60we" data-item-class="Label Stroke Indexed Indexed_1 InsideFill InsideColorFill ColorStrokeBlack" data-item-index="1" data-renderer-id="0" transform="translate(220, 75)"></g><g id="g-root-1_mahkwuz9utql-stroke" data-item-order="1000000000" data-item-id="1_mahkwuz9utql" data-item-class="Icon Stroke Indexed ColorStrokeBlack" data-item-index="3" data-renderer-id="0" transform="translate(472, 75)"><g id="1_mahkwuz9utql-stroke" fill="none" stroke-linecap="round" stroke-linejoin="round" stroke-miterlimit="4" stroke="#484848" stroke-width="2"><g><path d="M 57 57C 54 54.200001 51 51.400002 48.400002 48.400002M 43 51.599998C 43 51.799999 43.400002 52.200001 43.799999 52.200001C 44.200001 52.200001 44.599998 52.200001 44.799999 52C 46.599998 48.799999 49.799999 47 52.400002 44.400002C 52.599998 44 52.799999 43.799999 52.599998 43.400002C 52.400002 43 52.200001 42.799999 52 42.599998C 48 41.799999 44.400002 40.200001 40.599998 38.799999C 40.200001 38.799999 39.799999 39 39.400002 39.200001C 39.200001 39.200001 39.200001 39.799999 39.200001 40.200001C 39 44.200001 41 48 43 51.599998M 15 11C 14.4 11.2 13.6 11 13 11C 11.8 11 10.8 11.8 11 13C 11 13.6 11 14.4 11 15M 47 11C 47.599998 10.8 48.400002 11 49 11C 50.200001 11 50.799999 12 51 13C 51.200001 13.6 51.200001 14.4 51 15M 21 11C 23.4 11.4 25.799999 10.4 28 11M 34 11C 36.200001 10.2 38.599998 10.8 41 11M 15 51C 14.4 51.200001 13.6 51 13 51C 11.8 50.799999 10.6 50 11 49C 11.2 48.400002 11 47.599998 11 47M 21 51C 23.200001 50.200001 25.799999 51.599998 28 51M 34 51C 35.599998 50.400002 37.400002 51 39 51M 11 21C 10.2 23.200001 10.6 25.6 11 28M 11 34C 11.8 36.200001 11.4 38.599998 11 41M 51 21C 51.200001 23.4 51.200001 25.6 51 28M 51 34C 51.200001 35.400002 51 36.599998 51 38M 57.004002 56.995998L 48.324001 48.318001M 43.051998 51.542C 43.159721 51.871548 43.430454 52.12178 43.767445 52.203278C 44.104435 52.284775 44.459595 52.185905 44.706001 51.942001L 52.318001 44.330002C 52.561905 44.083595 52.660774 43.728436 52.579277 43.391445C 52.49778 43.054455 52.247547 42.783722 51.917999 42.675999L 40.501999 38.875999C 40.142281 38.755405 39.7453 38.848759 39.477028 39.117027C 39.208755 39.3853 39.115402 39.782284 39.236 40.141998ZM 15 11L 13 11C 11.895431 11 11 11.895431 11 13L 11 15M 47 11L 49 11C 50.104568 11 51 11.895431 51 13L 51 15M 21.001999 10.996L 28.002001 10.996M 34.001999 10.996L 41.001999 10.996M 15 51L 13 51C 11.895431 51 11 50.104568 11 49L 11 47M 21.001999 50.995998L 28.002001 50.995998M 34.001999 50.995998L 39.001999 50.995998M 11.002 20.996L 11.002 27.996M 11.002 33.996002L 11.002 40.996002M 51.001999 20.996L 51.001999 27.996M 51.001999 33.996002L 51.001999 37.996002"></path></g></g></g><g id="g-root-tx_particip_v98p3yza62od-stroke" data-item-order="1000000000" data-item-id="tx_particip_v98p3yza62od" data-item-class="Label Stroke Indexed InsideFill InsideColorFill ColorStrokeBlack" data-item-index="2" data-renderer-id="0" transform="translate(28, 111)"></g><g id="g-root-tx_reatotal_1lvj8riza62oc-stroke" data-item-order="1000000000" data-item-id="tx_reatotal_1lvj8riza62oc" data-item-class="Label Stroke Indexed InsideFill InsideColorFill ColorStrokeBlack" data-item-index="3" data-renderer-id="0" transform="translate(442, 147)"></g><g id="g-root-tx_1upwiemwi32f4-stroke" data-item-order="1000000000" data-item-id="tx_1upwiemwi32f4" data-item-class="Label Stroke" data-item-index="none" data-renderer-id="0" transform="translate(76, 171)"></g><g id="g-root-tx_1hd83suv4j7k6-stroke" data-item-order="1000000000" data-item-id="tx_1hd83suv4j7k6" data-item-class="Label Stroke" data-item-index="none" data-renderer-id="0" transform="translate(268, 177)"></g><g id="g-root-tx_1d1qp1avo8k5n-stroke" data-item-order="1000000000" data-item-id="tx_1d1qp1avo8k5n" data-item-class="Label Stroke" data-item-index="none" data-renderer-id="0" transform="translate(448, 177)"></g></g></g></svg>