<?xml version="1.0" encoding="utf-8" standalone="yes"?>
<!DOCTYPE svg PUBLIC "-//W3C//DTD SVG 1.1//EN" "http://www.w3.org/Graphics/SVG/1.1/DTD/svg11.dtd">
<svg width="588" height="312" viewBox="0 0 588 312" style="fill:none;stroke:none;fill-rule:evenodd;clip-rule:evenodd;stroke-linecap:round;stroke-linejoin:round;stroke-miterlimit:1.5;" version="1.1" xmlns="http://www.w3.org/2000/svg" xmlns:xlink="http://www.w3.org/1999/xlink"><style id="fontImports">@import url("https://fonts.googleapis.com/css2?family=Roboto:wght@400;700&amp;display=block");</style><rect id="" x="0" y="0" width="588" height="312" style="fill: #ffffff;"></rect><g id="items" style="isolation: isolate"><g id="blend" style="mix-blend-mode:normal"><g id="g-root-2.cr-2_cr_1cymrk51bhr01v-fill" data-item-order="999953350" data-item-id="2.cr-2_cr_1cymrk51bhr01v" data-item-class="Shape Stroke Fill Part Indexed" data-item-index="2" data-renderer-id="0" transform="translate(392, 86)"></g><g id="g-root-1.cr-1_cr_zn696t1bhr1ms-fill" data-item-order="999953354" data-item-id="1.cr-1_cr_zn696t1bhr1ms" data-item-class="Shape Stroke Fill Part Indexed Indexed_1" data-item-index="1" data-renderer-id="0" transform="translate(68, 86)"></g><g id="g-root-tx_escolhao_vgud1bhfrwl-fill" data-item-order="1000000000" data-item-id="tx_escolhao_vgud1bhfrwl" data-item-class="Label Stroke Title ColorStrokeBlack" data-item-index="none" data-renderer-id="0" transform="translate(2, 2)"><g id="tx_escolhao_vgud1bhfrwl-fill" stroke="none" fill="#484848"><g><text style="font: 20px Roboto, sans-serif; white-space: pre;" font-size="20px" font-family="Roboto, sans-serif"><tspan x="12.48" y="34" dominant-baseline="ideographic">Escolha o processo de desenvolvimento de terrenos ideal para </tspan><tspan x="165.67" y="58" dominant-baseline="ideographic">eficiência e custo-benefício.</tspan></text></g></g></g><g id="g-root-1_1448phh1bhtts9-fill" data-item-order="1000000000" data-item-id="1_1448phh1bhtts9" data-item-class="Icon Stroke Indexed Indexed_1 InsideFill InsideColorFill" data-item-index="1" data-renderer-id="0" transform="translate(86, 104)"></g><g id="g-root-ligh_4goyyt1bhfr4c-fill" data-item-order="1000000000" data-item-id="ligh_4goyyt1bhfr4c" data-item-class="Icon Stroke Indexed Indexed_0 ColorStrokeBlack" data-item-index="0" data-renderer-id="0" transform="translate(248, 104)"></g><g id="g-root-hear_145hnnp1bhwmpu-fill" data-item-order="1000000000" data-item-id="hear_145hnnp1bhwmpu" data-item-class="Icon Stroke Indexed InsideFill InsideColorFill" data-item-index="2" data-renderer-id="0" transform="translate(410, 104)"></g><g id="g-root-tx_prozeis_1d0i6th1bhqz28-fill" data-item-order="1000000000" data-item-id="tx_prozeis_1d0i6th1bhqz28" data-item-class="Label Stroke Indexed Indexed_1" data-item-index="1" data-renderer-id="0" transform="translate(86, 206)"><g id="tx_prozeis_1d0i6th1bhqz28-fill" stroke="none" fill="#3bc482"><g><text style="font: bold 20px Roboto, sans-serif; white-space: pre;" font-weight="bold" font-size="20px" font-family="Roboto, sans-serif"><tspan x="12.29" y="34" dominant-baseline="ideographic">Prozeis</tspan></text></g></g></g><g id="g-root-tx_processo_90vpj91bhr1mu-fill" data-item-order="1000000000" data-item-id="tx_processo_90vpj91bhr1mu" data-item-class="Label Stroke Indexed" data-item-index="2" data-renderer-id="0" transform="translate(338, 206)"><g id="tx_processo_90vpj91bhr1mu-fill" stroke="none" fill="#e15e5a"><g><text style="font: bold 20px Roboto, sans-serif; white-space: pre;" font-weight="bold" font-size="20px" font-family="Roboto, sans-serif"><tspan x="12.45" y="34" dominant-baseline="ideographic">Processo Convencional</tspan></text></g></g></g><g id="g-root-tx_ofereced_1ur5q851bhqzuv-fill" data-item-order="1000000000" data-item-id="tx_ofereced_1ur5q851bhqzuv" data-item-class="Label Stroke Indexed Indexed_1 ColorStrokeBlack" data-item-index="1" data-renderer-id="0" transform="translate(2, 242)"><g id="tx_ofereced_1ur5q851bhqzuv-fill" stroke="none" fill="#484848"><g><text style="font: 20px Roboto, sans-serif; white-space: pre;" font-size="20px" font-family="Roboto, sans-serif"><tspan x="14.87" y="34" dominant-baseline="ideographic">Oferece desenvolvimento </tspan><tspan x="16.43" y="58" dominant-baseline="ideographic">ágil, flexível e econômico</tspan></text></g></g></g><g id="g-root-tx_envolved_qs5q111bhqz9p-fill" data-item-order="1000000000" data-item-id="tx_envolved_qs5q111bhqz9p" data-item-class="Label Stroke Indexed ColorStrokeBlack" data-item-index="2" data-renderer-id="0" transform="translate(326, 242)"><g id="tx_envolved_qs5q111bhqz9p-fill" stroke="none" fill="#484848"><g><text style="font: 20px Roboto, sans-serif; white-space: pre;" font-size="20px" font-family="Roboto, sans-serif"><tspan x="15.34" y="34" dominant-baseline="ideographic">Envolve desenvolvimento </tspan><tspan x="26.99" y="58" dominant-baseline="ideographic">longo, custoso e rígido</tspan></text></g></g></g><g id="g-root-2.cr-2_cr_1cymrk51bhr01v-stroke" data-item-order="999953350" data-item-id="2.cr-2_cr_1cymrk51bhr01v" data-item-class="Shape Stroke Fill Part Indexed" data-item-index="2" data-renderer-id="0" transform="translate(392, 86)"><g id="2.cr-2_cr_1cymrk51bhr01v-stroke" fill="none" stroke-linecap="round" stroke-linejoin="round" stroke-miterlimit="4" stroke="#e15e5a" stroke-width="2"><g><path d="M 10 64C 10 93.823377 34.176624 118 64 118C 93.823377 118 118 93.823377 118 64C 118 34.176624 93.823377 10 64 10C 34.176624 10 10 34.176624 10 64"></path></g></g></g><g id="g-root-1.cr-1_cr_zn696t1bhr1ms-stroke" data-item-order="999953354" data-item-id="1.cr-1_cr_zn696t1bhr1ms" data-item-class="Shape Stroke Fill Part Indexed Indexed_1" data-item-index="1" data-renderer-id="0" transform="translate(68, 86)"><g id="1.cr-1_cr_zn696t1bhr1ms-stroke" fill="none" stroke-linecap="round" stroke-linejoin="round" stroke-miterlimit="4" stroke="#3bc482" stroke-width="2"><g><path d="M 10 64C 10 93.823377 34.176624 118 64 118C 93.823377 118 118 93.823377 118 64C 118 34.176624 93.823377 10 64 10C 34.176624 10 10 34.176624 10 64"></path></g></g></g><g id="g-root-tx_escolhao_vgud1bhfrwl-stroke" data-item-order="1000000000" data-item-id="tx_escolhao_vgud1bhfrwl" data-item-class="Label Stroke Title ColorStrokeBlack" data-item-index="none" data-renderer-id="0" transform="translate(2, 2)"></g><g id="g-root-1_1448phh1bhtts9-stroke" data-item-order="1000000000" data-item-id="1_1448phh1bhtts9" data-item-class="Icon Stroke Indexed Indexed_1 InsideFill InsideColorFill" data-item-index="1" data-renderer-id="0" transform="translate(86, 104)"><g id="1_1448phh1bhtts9-stroke" fill="none" stroke-linecap="round" stroke-linejoin="round" stroke-miterlimit="4" stroke="#3bc482" stroke-width="2"><g><path d="M 35.5 47.290001C 35.484573 46.752861 35.188496 46.263187 34.720001 46C 34.234238 45.733147 33.645763 45.733147 33.16 46L 12.16 55.989998C 11.742191 56.272362 11.49422 56.745762 11.5 57.25L 11.5 79C 11.5 79.82843 12.171573 80.5 13 80.5L 35.5 80.5ZM 59.5 33.130001C 59.505898 32.723244 59.342976 32.332226 59.050003 32.049999L 47.5 17.5L 35.949997 32.049999C 35.657024 32.332226 35.494102 32.723244 35.5 33.130001L 35.5 80.5L 59.5 80.5ZM 47.5 17.5L 47.5 11.5M 59.5 50.5L 69.25 41.800003C 69.843437 41.224648 70.78656 41.224648 71.379997 41.799999L 80.379997 50.5L 80.379997 79C 80.379997 79.82843 79.708427 80.5 78.879997 80.5L 59.5 80.5ZM 59.5 50.5L 80.5 50.5M 59.5 58L 80.5 58M 59.5 65.5L 80.5 65.5M 59.5 73L 80.5 73M 19 80.5L 19 61M 27.25 80.5L 27.25 61M 59.32 32.439999L 35.860001 32.439999L 59.5 44.5L 35.5 56.5L 59.5 68.5L 36.099998 80.199997"></path></g></g></g><g id="g-root-ligh_4goyyt1bhfr4c-stroke" data-item-order="1000000000" data-item-id="ligh_4goyyt1bhfr4c" data-item-class="Icon Stroke Indexed Indexed_0 ColorStrokeBlack" data-item-index="0" data-renderer-id="0" transform="translate(248, 104)"><g id="ligh_4goyyt1bhfr4c-stroke" fill="none" stroke-linecap="round" stroke-linejoin="round" stroke-miterlimit="4" stroke="#484848" stroke-width="2"><g><path d="M 43.7155 60.25L 41.78965 75.448456C 41.6017 76.932404 43.444153 77.732651 44.395 76.57795C 47.01955 73.3909 50.811699 68.769402 54.856899 63.833954M 69.831848 45.546398C 71.379852 43.654751 72.706451 42.033249 73.705299 40.812103C 74.506447 39.832748 73.809097 38.36335 72.543854 38.36335L 69.158348 38.36335M 25.079649 52.911999L 19.49548 52.911999C 18.223511 52.911999 17.52829 51.428951 18.342926 50.452148L 22.779266 45.132549M 35.112999 30.346449C 39.87685 24.636566 44.504349 19.091724 47.564949 15.428576C 48.525852 14.278646 50.384201 15.095304 50.190849 16.581249L 48.589302 28.888599M 40.897453 54.801849L 46.692249 35.308601C 46.978149 34.346951 46.257702 33.3811 45.254501 33.3811L 42.439301 33.3811C 41.771049 33.3811 41.18335 33.823151 40.9981 34.465149L 36.3946 50.412849C 36.289299 50.77795 35.77 50.772701 35.67205 50.405647L 31.4233 34.494099C 31.2481 33.8377 30.6535 33.3811 29.97415 33.3811L 26.994999 33.3811C 25.99645 33.3811 25.276749 34.338249 25.553949 35.297501L 31.17985 54.7687C 31.7362 56.694099 33.498852 58.019501 35.503002 58.019501L 36.584049 58.019501C 38.575451 58.019501 40.329998 56.710602 40.897453 54.801849ZM 55.995251 52.8979C 54.671501 52.8979 53.315948 52.649349 52.157799 52.296249C 51.212952 52.008099 50.137451 52.530552 49.935249 53.497299L 49.494553 55.60405C 49.356548 56.263451 49.675148 56.93755 50.312199 57.156551C 51.677353 57.6259 53.664398 58.020248 55.7164 58.020248C 62.197296 58.020248 65.500153 54.6562 65.500153 50.398453C 65.500153 47.324951 63.797348 44.9491 59.738503 43.285149C 56.776901 42.0355 55.727348 41.490551 55.727348 40.328049C 55.727348 39.259899 56.758598 38.467899 58.703651 38.467899C 59.83075 38.467899 60.802898 38.636799 61.608551 38.862099C 62.52655 39.118752 63.545498 38.638149 63.765404 37.710701L 64.243744 35.694248C 64.408752 34.998253 64.061646 34.273598 63.381096 34.053402C 62.162048 33.658901 60.618248 33.381851 58.743996 33.381851C 52.776852 33.381851 49.470402 36.687851 49.470402 40.843899C 49.470402 43.873749 51.5695 46.227848 55.602547 47.924351C 58.15675 48.945248 59.221001 49.66465 59.221001 50.874397C 59.221001 52.084152 58.112801 52.8979 55.995251 52.8979Z"></path></g></g></g><g id="g-root-hear_145hnnp1bhwmpu-stroke" data-item-order="1000000000" data-item-id="hear_145hnnp1bhwmpu" data-item-class="Icon Stroke Indexed InsideFill InsideColorFill" data-item-index="2" data-renderer-id="0" transform="translate(410, 104)"><g id="hear_145hnnp1bhwmpu-stroke" fill="none" stroke-linecap="round" stroke-linejoin="round" stroke-miterlimit="4" stroke="#e15e5a" stroke-width="2"><g><path d="M 69.729996 68.376999L 53.616997 71.598999M 55.213001 53.322998L 47.611 56.535999C 46.39666 57.035824 45.030567 57.016308 43.831001 56.482002C 42.617676 55.937065 41.671799 54.930721 41.202999 53.685997C 40.259502 51.26091 41.282314 48.513645 43.581997 47.295998L 51.181 43.500999C 52.843796 42.638119 54.794945 42.522511 56.548004 43.183002L 72.163002 49.336002M 23.5 71.727997L 29.479 71.727997L 39.741997 79.557999C 40.740395 80.684509 42.451923 80.817192 43.612 79.858002L 57.952 68.016998C 59.131874 67.04274 59.323269 65.306923 58.384003 64.098999L 50.5 55.320999M 42.754002 47.829998L 41.923 47.146C 40.245354 45.914215 38.051277 45.634148 36.117996 46.404999L 23.310999 51.522999M 11.5 76L 19.462 76C 21.568289 76.112694 23.371181 74.505363 23.5 72.399994L 23.5 52.614998C 23.37908 50.503658 21.573805 48.887497 19.462 49L 11.5 49M 80.5 76L 74.038002 76C 71.931709 76.112694 70.128815 74.505363 70 72.399994L 70 52.599998C 70.128815 50.494633 71.931709 48.887302 74.037994 49L 80.5 49M 44.892998 38.5L 31.743999 24.784C 29.375801 22.415691 28.788528 18.797802 30.286001 15.802L 30.285999 15.802C 31.404152 13.565184 33.529476 12.002307 35.997902 11.6017C 38.466324 11.201094 40.976833 12.011611 42.744999 13.78L 44.892998 15.927999L 47.041 13.78C 48.809166 12.011611 51.319672 11.201094 53.788097 11.6017C 56.256523 12.002307 58.381851 13.565184 59.5 15.802L 59.5 15.802C 60.991692 18.798681 60.404991 22.413031 58.042 24.784Z"></path></g></g></g><g id="g-root-tx_prozeis_1d0i6th1bhqz28-stroke" data-item-order="1000000000" data-item-id="tx_prozeis_1d0i6th1bhqz28" data-item-class="Label Stroke Indexed Indexed_1" data-item-index="1" data-renderer-id="0" transform="translate(86, 206)"></g><g id="g-root-tx_processo_90vpj91bhr1mu-stroke" data-item-order="1000000000" data-item-id="tx_processo_90vpj91bhr1mu" data-item-class="Label Stroke Indexed" data-item-index="2" data-renderer-id="0" transform="translate(338, 206)"></g><g id="g-root-tx_ofereced_1ur5q851bhqzuv-stroke" data-item-order="1000000000" data-item-id="tx_ofereced_1ur5q851bhqzuv" data-item-class="Label Stroke Indexed Indexed_1 ColorStrokeBlack" data-item-index="1" data-renderer-id="0" transform="translate(2, 242)"></g><g id="g-root-tx_envolved_qs5q111bhqz9p-stroke" data-item-order="1000000000" data-item-id="tx_envolved_qs5q111bhqz9p" data-item-class="Label Stroke Indexed ColorStrokeBlack" data-item-index="2" data-renderer-id="0" transform="translate(326, 242)"></g></g></g></svg>