<?xml version="1.0" encoding="utf-8" standalone="yes"?>
<!DOCTYPE svg PUBLIC "-//W3C//DTD SVG 1.1//EN" "http://www.w3.org/Graphics/SVG/1.1/DTD/svg11.dtd">
<svg width="626" height="301" viewBox="0 0 626 301" style="fill:none;stroke:none;fill-rule:evenodd;clip-rule:evenodd;stroke-linecap:round;stroke-linejoin:round;stroke-miterlimit:1.5;" version="1.1" xmlns="http://www.w3.org/2000/svg" xmlns:xlink="http://www.w3.org/1999/xlink"><style id="fontImports">@import url("https://fonts.googleapis.com/css2?family=Roboto:wght@400;700&amp;display=block");</style><rect id="" x="0" y="0" width="626" height="301" style="fill: #ffffff;"></rect><g id="items" style="isolation: isolate"><g id="blend" style="mix-blend-mode:normal"><g id="g-root-3.cu_sy_8zzsk199voy6-fill" data-item-order="999899206" data-item-id="3.cu_sy_8zzsk199voy6" data-item-class="Part Indexed Fill Stroke" data-item-index="3" data-renderer-id="0" transform="translate(399, 182)"></g><g id="g-root-2.cu_sy_18nti44199vor3-fill" data-item-order="999899210" data-item-id="2.cu_sy_18nti44199vor3" data-item-class="Part Indexed Fill Stroke" data-item-index="2" data-renderer-id="0" transform="translate(3, 146)"></g><g id="g-root-1.cu_sy_qn6dbo199x2iw-fill" data-item-order="999899214" data-item-id="1.cu_sy_qn6dbo199x2iw" data-item-class="Part Indexed Indexed_1 Fill Stroke" data-item-index="1" data-renderer-id="0" transform="translate(195, 110)"></g><g id="g-root-tx_construt_qvx3p0199g8wd-fill" data-item-order="1000000000" data-item-id="tx_construt_qvx3p0199g8wd" data-item-class="Label Stroke Title ColorStrokeBlack" data-item-index="none" data-renderer-id="0" transform="translate(171, 2)"><g id="tx_construt_qvx3p0199g8wd-fill" stroke="none" fill="#484848"><g><text style="font: 20px Roboto, sans-serif; white-space: pre;" font-size="20px" font-family="Roboto, sans-serif"><tspan x="12.53" y="34" dominant-baseline="ideographic">Construtoras Recomendadas</tspan></text></g></g></g><g id="g-root-buil_vahnn8199g6pt-fill" data-item-order="1000000000" data-item-id="buil_vahnn8199g6pt" data-item-class="Icon Stroke Indexed Indexed_1" data-item-index="1" data-renderer-id="0" transform="translate(279, 50)"></g><g id="g-root-baco_4o70tw199zw9a-fill" data-item-order="1000000000" data-item-id="baco_4o70tw199zw9a" data-item-class="Icon Stroke Indexed" data-item-index="2" data-renderer-id="0" transform="translate(87, 86)"></g><g id="g-root-tx_mrv_147dm2c199g7bg-fill" data-item-order="1000000000" data-item-id="tx_mrv_147dm2c199g7bg" data-item-class="Label Stroke Indexed Indexed_1 InsideFill InsideColorFill" data-item-index="1" data-renderer-id="0" transform="translate(279, 122)"><g id="tx_mrv_147dm2c199g7bg-fill" stroke="none" fill="#e3cd09"><g><text style="font: 20px Roboto, sans-serif; white-space: pre;" font-size="20px" font-family="Roboto, sans-serif"><tspan x="12.84" y="34" dominant-baseline="ideographic">MRV</tspan></text></g></g></g><g id="g-root-buil_qn6dbo199yfwt-fill" data-item-order="1000000000" data-item-id="buil_qn6dbo199yfwt" data-item-class="Icon Stroke Indexed" data-item-index="3" data-renderer-id="0" transform="translate(471, 122)"></g><g id="g-root-tx_blendi_1d30mb8199g6ir-fill" data-item-order="1000000000" data-item-id="tx_blendi_1d30mb8199g6ir" data-item-class="Label Stroke Indexed InsideFill InsideColorFill" data-item-index="2" data-renderer-id="0" transform="translate(81, 158)"><g id="tx_blendi_1d30mb8199g6ir-fill" stroke="none" fill="#dd8433"><g><text style="font: 20px Roboto, sans-serif; white-space: pre;" font-size="20px" font-family="Roboto, sans-serif"><tspan x="12.46" y="34" dominant-baseline="ideographic">Blendi</tspan></text></g></g></g><g id="g-root-tx_vpl3_4o73zo199g6pu-fill" data-item-order="1000000000" data-item-id="tx_vpl3_4o73zo199g6pu" data-item-class="Label Stroke Indexed InsideFill InsideColorFill" data-item-index="3" data-renderer-id="0" transform="translate(465, 194)"><g id="tx_vpl3_4o73zo199g6pu-fill" stroke="none" fill="#e15e5a"><g><text style="font: 20px Roboto, sans-serif; white-space: pre;" font-size="20px" font-family="Roboto, sans-serif"><tspan x="16.33" y="34" dominant-baseline="ideographic">VPL3</tspan></text></g></g></g><g id="g-root-3.cu_sy_8zzsk199voy6-stroke" data-item-order="999899206" data-item-id="3.cu_sy_8zzsk199voy6" data-item-class="Part Indexed Fill Stroke" data-item-index="3" data-renderer-id="0" transform="translate(399, 182)"><g id="3.cu_sy_8zzsk199voy6-stroke" fill="none" stroke-linecap="round" stroke-linejoin="round" stroke-miterlimit="4" stroke="#e15e5a" stroke-width="2"><g><path d="M 208 10C 211.314 10 214 12.686 214 16C 214 19.314 211.314 22 208 22L 202 22L 202 106L 10 106L 10 10L 208 10Z"></path></g></g></g><g id="g-root-2.cu_sy_18nti44199vor3-stroke" data-item-order="999899210" data-item-id="2.cu_sy_18nti44199vor3" data-item-class="Part Indexed Fill Stroke" data-item-index="2" data-renderer-id="0" transform="translate(3, 146)"><g id="2.cu_sy_18nti44199vor3-stroke" fill="none" stroke-linecap="round" stroke-linejoin="round" stroke-miterlimit="4" stroke="#dd8433" stroke-width="2"><g><path d="M 16 10C 12.6863 10 10 12.686 10 16C 10 19.314 12.6863 22 16 22L 22 22L 22 142L 214 142L 214 10L 16 10Z"></path></g></g></g><g id="g-root-1.cu_sy_qn6dbo199x2iw-stroke" data-item-order="999899214" data-item-id="1.cu_sy_qn6dbo199x2iw" data-item-class="Part Indexed Indexed_1 Fill Stroke" data-item-index="1" data-renderer-id="0" transform="translate(195, 110)"><g id="1.cu_sy_qn6dbo199x2iw-stroke" fill="none" stroke-linecap="round" stroke-linejoin="round" stroke-miterlimit="4" stroke="#e3cd09" stroke-width="2"><g><path d="M 226 16C 226 12.686 223.314 10 220 10L 16 10C 12.686 10 10 12.686 10 16C 10 19.314 12.686 22 16 22L 22 22L 22 178L 214 178L 214 22L 220 22C 223.314 22 226 19.314 226 16Z"></path></g></g></g><g id="g-root-tx_construt_qvx3p0199g8wd-stroke" data-item-order="1000000000" data-item-id="tx_construt_qvx3p0199g8wd" data-item-class="Label Stroke Title ColorStrokeBlack" data-item-index="none" data-renderer-id="0" transform="translate(171, 2)"></g><g id="g-root-buil_vahnn8199g6pt-stroke" data-item-order="1000000000" data-item-id="buil_vahnn8199g6pt" data-item-class="Icon Stroke Indexed Indexed_1" data-item-index="1" data-renderer-id="0" transform="translate(279, 50)"><g id="buil_vahnn8199g6pt-stroke" fill="none" stroke-linecap="round" stroke-linejoin="round" stroke-miterlimit="4" stroke="#e3cd09" stroke-width="2"><g><path d="M 57 33.914001C 57 33.361717 56.552284 32.914001 56 32.914001L 50 32.914001C 49.447716 32.914001 49 33.361717 49 33.914001L 49 40.914001L 32 40.914001C 31.447716 40.914001 31 41.361717 31 41.914001L 31 46.914001L 12 46.914001C 11.447716 46.914001 11 47.361713 11 47.914001L 11 55.914001C 11 56.466286 11.447716 56.914001 12 56.914001L 56 56.914001C 56.552284 56.914001 57 56.466286 57 55.914001ZM 45 32.914001L 45 40.914001M 41 32.914001L 41 40.914001M 37 32.914001L 37 40.914001M 33 32.914001L 33 40.914001M 43 19.914C 43 20.466286 42.552284 20.914 42 20.914L 12 20.914C 11.447716 20.914 11 20.466286 11 19.914L 11 17.914C 11 17.361715 11.447716 16.914 12 16.914L 43 16.914ZM 12.312 16.914L 18.237999 11.486C 18.720081 11.124463 19.339478 10.999556 19.924 11.146L 43 16.914M 23 20.914L 23 43.200001M 17 43.200001L 17 20.914M 43 19.914L 43 26.914M 19 11.2L 19 16.914"></path></g></g></g><g id="g-root-baco_4o70tw199zw9a-stroke" data-item-order="1000000000" data-item-id="baco_4o70tw199zw9a" data-item-class="Icon Stroke Indexed" data-item-index="2" data-renderer-id="0" transform="translate(87, 86)"><g id="baco_4o70tw199zw9a-stroke" fill="none" stroke-linecap="round" stroke-linejoin="round" stroke-miterlimit="4" stroke="#dd8433" stroke-width="2"><g><path d="M 56.200001 57L 11.8 57L 11.8 53.200001C 11.8 52 12.6 51.200001 13.8 51.200001L 54.200001 51.200001C 55.400002 51.200001 56.200001 52 56.200001 53.200001L 56.200001 57ZM 54 37.200001L 14 37.200001C 12.8 37.200001 11.8 38.200001 11.8 39.400002L 11.8 39.400002C 11.8 40.599998 12.8 41.599998 14 41.599998L 54 41.599998C 55.200001 41.599998 56.200001 40.599998 56.200001 39.400002L 56.200001 39.400002C 56.200001 38.200001 55.200001 37.200001 54 37.200001ZM 22.6 37.200001L 22.6 26.4C 22.6 20.200001 27.6 15.2 33.799999 15.2C 40 15.2 45 20.200001 45 26.4L 45 36.799999M 18.200001 37.200001L 18.200001 26.6C 18.200001 18 25.200001 11.2 33.599998 11.2C 42 11.2 49 18.200001 49 26.6L 49 37.200001M 33.599998 15.4L 33.599998 37.200001M 13.8 41.599998L 13.8 51M 23 41.599998L 23 51M 32 41.599998L 32 51M 41.200001 41.599998L 41.200001 51M 50.200001 41.599998L 50.200001 51M 17.799999 41.599998L 17.799999 51M 26.799999 41.599998L 26.799999 51M 36 41.599998L 36 51M 45 41.599998L 45 51M 54.200001 41.599998L 54.200001 51M 44.799999 26.4L 22.6 26.4"></path></g></g></g><g id="g-root-tx_mrv_147dm2c199g7bg-stroke" data-item-order="1000000000" data-item-id="tx_mrv_147dm2c199g7bg" data-item-class="Label Stroke Indexed Indexed_1 InsideFill InsideColorFill" data-item-index="1" data-renderer-id="0" transform="translate(279, 122)"></g><g id="g-root-buil_qn6dbo199yfwt-stroke" data-item-order="1000000000" data-item-id="buil_qn6dbo199yfwt" data-item-class="Icon Stroke Indexed" data-item-index="3" data-renderer-id="0" transform="translate(471, 122)"><g id="buil_qn6dbo199yfwt-stroke" fill="none" stroke-linecap="round" stroke-linejoin="round" stroke-miterlimit="4" stroke="#e15e5a" stroke-width="2"><g><path d="M 39.142857 56.285713L 11.714286 56.285713L 11.714286 23.714287L 25.428572 11.714286L 39.142857 23.714287L 39.142857 56.285713ZM 39.142857 56.285713L 56.285713 56.285713L 56.285713 32.285713L 39.142857 32.285713M 25.428572 56.285713L 25.428572 49.428574M 20.285715 39.142857L 30.571428 39.142857M 20.285715 28.857143L 30.571428 28.857143"></path></g></g></g><g id="g-root-tx_blendi_1d30mb8199g6ir-stroke" data-item-order="1000000000" data-item-id="tx_blendi_1d30mb8199g6ir" data-item-class="Label Stroke Indexed InsideFill InsideColorFill" data-item-index="2" data-renderer-id="0" transform="translate(81, 158)"></g><g id="g-root-tx_vpl3_4o73zo199g6pu-stroke" data-item-order="1000000000" data-item-id="tx_vpl3_4o73zo199g6pu" data-item-class="Label Stroke Indexed InsideFill InsideColorFill" data-item-index="3" data-renderer-id="0" transform="translate(465, 194)"></g></g></g></svg>