<?xml version="1.0" encoding="utf-8" standalone="yes"?>
<!DOCTYPE svg PUBLIC "-//W3C//DTD SVG 1.1//EN" "http://www.w3.org/Graphics/SVG/1.1/DTD/svg11.dtd">
<svg width="841" height="281" viewBox="0 0 841 281" style="fill:none;stroke:none;fill-rule:evenodd;clip-rule:evenodd;stroke-linecap:round;stroke-linejoin:round;stroke-miterlimit:1.5;" version="1.1" xmlns="http://www.w3.org/2000/svg" xmlns:xlink="http://www.w3.org/1999/xlink"><style id="fontImports">@import url("https://fonts.googleapis.com/css2?family=Shantell+Sans:wght@300..800&amp;display=block");</style><rect id="" x="0" y="0" width="841" height="280.116" style="fill: #ffffff;"></rect><g id="items" style="isolation: isolate"><g id="blend" style="mix-blend-mode:normal"><g id="g-root--1.line_sy_1hf2nsk1brb4ld-fill" data-item-order="999994923" data-item-id="-1.line_sy_1hf2nsk1brb4ld" data-item-class="Curve Stroke Part ColorStrokeBlack" data-item-index="-1" data-renderer-id="0" transform="translate(750, 254.00390625)"></g><g id="g-root--1.vector_sy_18jfnjo1brb5e2-fill" data-item-order="999994927" data-item-id="-1.vector_sy_18jfnjo1brb5e2" data-item-class="Curve Stroke Part ColorStrokeBlack" data-item-index="-1" data-renderer-id="0" transform="translate(3, 253.99609375)"></g><g id="g-root-5.cu-smallCircle_sy_143m5f81brb66b-fill" data-item-order="999994931" data-item-id="5.cu-smallCircle_sy_143m5f81brb66b" data-item-class="Part Indexed Stroke ColorStrokeBlack" data-item-index="5" data-renderer-id="0" transform="translate(744, 251.00390625)"></g><g id="g-root-4.cu-smallCircle_sy_v7z56c1brb6z0-fill" data-item-order="999994935" data-item-id="4.cu-smallCircle_sy_v7z56c1brb6z0" data-item-class="Part Indexed Stroke ColorStrokeBlack" data-item-index="4" data-renderer-id="0" transform="translate(576, 251)"></g><g id="g-root-3.cu-smallCircle_sy_hx53w41brb5e5-fill" data-item-order="999994939" data-item-id="3.cu-smallCircle_sy_hx53w41brb5e5" data-item-class="Part Indexed Stroke ColorStrokeBlack" data-item-index="3" data-renderer-id="0" transform="translate(408, 251)"></g><g id="g-root-2.cu-smallCircle_sy_dhblro1brb66e-fill" data-item-order="999994943" data-item-id="2.cu-smallCircle_sy_dhblro1brb66e" data-item-class="Part Indexed Stroke ColorStrokeBlack" data-item-index="2" data-renderer-id="0" transform="translate(240, 250.884765625)"></g><g id="g-root-1.cu-smallCircle_sy_4lolis1brb6z3-fill" data-item-order="999994947" data-item-id="1.cu-smallCircle_sy_4lolis1brb6z3" data-item-class="Part Indexed Indexed_1 Stroke ColorStrokeBlack" data-item-index="1" data-renderer-id="0" transform="translate(72, 251)"></g><g id="g-root-tx_fasesfin_1ly0jck1brb4zp-fill" data-item-order="1000000000" data-item-id="tx_fasesfin_1ly0jck1brb4zp" data-item-class="Label Stroke Title ColorStrokeBlack" data-item-index="none" data-renderer-id="0" transform="translate(195, 2)"><g id="tx_fasesfin_1ly0jck1brb4zp-fill" stroke="none" fill="#484848"><g><text style="font: bold 25px &quot;Shantell Sans&quot;, cursive; white-space: pre;" font-weight="bold" font-size="25px" font-family="'Shantell Sans', cursive"><tspan x="13.55" y="45" dominant-baseline="ideographic">Fases Financeiras e Cronograma</tspan></text></g></g></g><g id="g-root-tx_perodode_7qino1brb6ro-fill" data-item-order="1000000000" data-item-id="tx_perodode_7qino1brb6ro" data-item-class="Label Stroke Indexed Indexed_1 ColorStrokeBlack" data-item-index="1" data-renderer-id="0" transform="translate(9, 110)"><g id="tx_perodode_7qino1brb6ro-fill" stroke="none" fill="#484848"><g><text style="font: 20px &quot;Shantell Sans&quot;, cursive; white-space: pre;" font-size="20px" font-family="'Shantell Sans', cursive"><tspan x="21.03" y="35" dominant-baseline="ideographic">Período de </tspan><tspan x="15.66" y="59" dominant-baseline="ideographic">Carência de </tspan><tspan x="27.83" y="83" dominant-baseline="ideographic">18 Meses</tspan></text></g></g></g><g id="g-root-tx_pagament_dj71101brb56r-fill" data-item-order="1000000000" data-item-id="tx_pagament_dj71101brb56r" data-item-class="Label Stroke Indexed ColorStrokeBlack" data-item-index="2" data-renderer-id="0" transform="translate(183, 110)"><g id="tx_pagament_dj71101brb56r-fill" stroke="none" fill="#484848"><g><text style="font: 20px &quot;Shantell Sans&quot;, cursive; white-space: pre;" font-size="20px" font-family="'Shantell Sans', cursive"><tspan x="12.61" y="35" dominant-baseline="ideographic">Pagamento </tspan><tspan x="20.02" y="59" dominant-baseline="ideographic">Inicial da </tspan><tspan x="37.23" y="83" dominant-baseline="ideographic">Fase 1</tspan></text></g></g></g><g id="g-root-tx_pagament_v9ukfo1brb5ze-fill" data-item-order="1000000000" data-item-id="tx_pagament_v9ukfo1brb5ze" data-item-class="Label Stroke Indexed ColorStrokeBlack" data-item-index="3" data-renderer-id="0" transform="translate(339, 110)"><g id="tx_pagament_v9ukfo1brb5ze-fill" stroke="none" fill="#484848"><g><text style="font: 20px &quot;Shantell Sans&quot;, cursive; white-space: pre;" font-size="20px" font-family="'Shantell Sans', cursive"><tspan x="25.75" y="35" dominant-baseline="ideographic">Pagamento </tspan><tspan x="14.27" y="59" dominant-baseline="ideographic">Total da Fase </tspan><tspan x="75.56" y="83" dominant-baseline="ideographic">1</tspan></text></g></g></g><g id="g-root-tx_pagament_18lb2t01brb4eh-fill" data-item-order="1000000000" data-item-id="tx_pagament_18lb2t01brb4eh" data-item-class="Label Stroke Indexed ColorStrokeBlack" data-item-index="4" data-renderer-id="0" transform="translate(520, 110)"><g id="tx_pagament_18lb2t01brb4eh-fill" stroke="none" fill="#484848"><g><text style="font: 20px &quot;Shantell Sans&quot;, cursive; white-space: pre;" font-size="20px" font-family="'Shantell Sans', cursive"><tspan x="12.61" y="35" dominant-baseline="ideographic">Pagamento </tspan><tspan x="20.02" y="59" dominant-baseline="ideographic">Inicial da </tspan><tspan x="34.41" y="83" dominant-baseline="ideographic">Fase 2</tspan></text></g></g></g><g id="g-root-tx_pagament_1urs4c41brb56o-fill" data-item-order="1000000000" data-item-id="tx_pagament_1urs4c41brb56o" data-item-class="Label Stroke Indexed ColorStrokeBlack" data-item-index="5" data-renderer-id="0" transform="translate(675, 110)"><g id="tx_pagament_1urs4c41brb56o-fill" stroke="none" fill="#484848"><g><text style="font: 20px &quot;Shantell Sans&quot;, cursive; white-space: pre;" font-size="20px" font-family="'Shantell Sans', cursive"><tspan x="25.75" y="35" dominant-baseline="ideographic">Pagamento </tspan><tspan x="14.27" y="59" dominant-baseline="ideographic">Total da Fase </tspan><tspan x="72.73" y="83" dominant-baseline="ideographic">2</tspan></text></g></g></g><g id="g-root-2_hvwf781brckjt-fill" data-item-order="1000000000" data-item-id="2_hvwf781brckjt" data-item-class="Icon Stroke Indexed Indexed_1 ColorStrokeBlack" data-item-index="1" data-renderer-id="0" transform="translate(51, 194)"></g><g id="g-root-shar_7qoz81brqkga-fill" data-item-order="1000000000" data-item-id="shar_7qoz81brqkga" data-item-class="Icon Stroke Indexed ColorStrokeBlack" data-item-index="2" data-renderer-id="0" transform="translate(219, 194)"></g><g id="g-root-stas_1luwc8k1bri6tl-fill" data-item-order="1000000000" data-item-id="stas_1luwc8k1bri6tl" data-item-class="Icon Stroke Indexed ColorStrokeBlack" data-item-index="3" data-renderer-id="0" transform="translate(387, 194)"></g><g id="g-root-2_8ydtdg1brqm0y-fill" data-item-order="1000000000" data-item-id="2_8ydtdg1brqm0y" data-item-class="Icon Stroke Indexed ColorStrokeBlack" data-item-index="4" data-renderer-id="0" transform="translate(555, 194)"></g><g id="g-root-coin_1qd7njo1brfcw9-fill" data-item-order="1000000000" data-item-id="coin_1qd7njo1brfcw9" data-item-class="Icon Stroke Indexed ColorStrokeBlack" data-item-index="5" data-renderer-id="0" transform="translate(723, 194)"></g><g id="g-root--1.line_sy_1hf2nsk1brb4ld-stroke" data-item-order="999994923" data-item-id="-1.line_sy_1hf2nsk1brb4ld" data-item-class="Curve Stroke Part ColorStrokeBlack" data-item-index="-1" data-renderer-id="0" transform="translate(750, 254.00390625)"><g id="-1.line_sy_1hf2nsk1brb4ld-stroke" fill="none" stroke-linecap="round" stroke-linejoin="round" stroke-miterlimit="4" stroke="#484848" stroke-width="2"><g><path d="M 77 9.996094C 54.7 9.196094 32.3 9.396094 10 9.996094"></path><path d="M 77 9.996094L 10 9.996094"></path><path d="M 71 16.496094C 73.7 14.996094 75.8 12.496094 77.5 9.996094C 75 8.296094 73.1 5.696094 71 3.496094" stroke-dasharray="none"></path><path d="M 71 16.496094L 77.5 9.996094L 71 3.496094" stroke-dasharray="none"></path></g></g></g><g id="g-root--1.vector_sy_18jfnjo1brb5e2-stroke" data-item-order="999994927" data-item-id="-1.vector_sy_18jfnjo1brb5e2" data-item-class="Curve Stroke Part ColorStrokeBlack" data-item-index="-1" data-renderer-id="0" transform="translate(3, 253.99609375)"><g id="-1.vector_sy_18jfnjo1brb5e2-stroke" fill="none" stroke-linecap="round" stroke-linejoin="round" stroke-miterlimit="4" stroke="#484848" stroke-width="2"><g><path d="M 751 10.003906C 734.5 9.303906 717.8 8.403906 701.3 10.003906C 681.2 12.003906 660.8 8.203906 640.6 10.003906C 623.5 11.503906 606.1 11.503906 589 10.003906M 583 10.003906C 554.7 10.303906 526.4 11.403906 498.1 10.003906C 472.5 8.803906 446.6 8.103906 421 10.003906M 247 10.003906C 233 8.703906 218.8 11.103906 204.8 10.003906C 190.6 8.803906 176.1 11.103906 161.9 10.003906C 148.2 8.903906 134.4 10.303906 120.7 10.003906C 108.8 9.703906 96.9 9.603906 85 10.003906M 79 10.003906C 56 9.603906 33 10.203906 10 10.003906M 415 10.003906C 402.2 10.203906 389.3 11.903906 376.7 10.003906C 363.1 7.903906 349.2 10.203906 335.5 10.003906C 323.1 9.803906 310.6 9.703906 298.2 10.003906C 283.2 10.403906 268.1 9.103906 253 10.003906"></path><path d="M 751 10.0039L 589 10.0039M 583 10.0042L 421 10.0009M 247 10.0039L 85 10.0039M 78.9976 10L 10 10M 415 10.0038L 253 10.0038"></path></g></g></g><g id="g-root-5.cu-smallCircle_sy_143m5f81brb66b-stroke" data-item-order="999994931" data-item-id="5.cu-smallCircle_sy_143m5f81brb66b" data-item-class="Part Indexed Stroke ColorStrokeBlack" data-item-index="5" data-renderer-id="0" transform="translate(744, 251.00390625)"><g id="5.cu-smallCircle_sy_143m5f81brb66b-stroke" fill="none" stroke-linecap="round" stroke-linejoin="round" stroke-miterlimit="4" stroke="#484848" stroke-width="2"><g><path d="M 16 12.996094C 15.8 14.596094 14.7 16.096094 13 15.996094C 11.3 15.896094 9.8 14.596094 10 12.996094C 10.2 11.396094 11.4 10.496094 13 9.996094C 14.6 9.496094 16.3 11.396094 16 12.996094"></path><path d="M 16 13C 16 14.6569 14.6569 16 13 16C 11.3431 16 10 14.6569 10 13C 10 11.3431 11.3431 10 13 10C 14.6569 10 16 11.3431 16 13Z"></path></g></g></g><g id="g-root-4.cu-smallCircle_sy_v7z56c1brb6z0-stroke" data-item-order="999994935" data-item-id="4.cu-smallCircle_sy_v7z56c1brb6z0" data-item-class="Part Indexed Stroke ColorStrokeBlack" data-item-index="4" data-renderer-id="0" transform="translate(576, 251)"><g id="4.cu-smallCircle_sy_v7z56c1brb6z0-stroke" fill="none" stroke-linecap="round" stroke-linejoin="round" stroke-miterlimit="4" stroke="#484848" stroke-width="2"><g><path d="M 16 13C 16.2 14.6 14.7 16.1 13 16C 11.3 15.9 9.7 14.6 10 13C 10.3 11.4 11.4 10.3 13 10C 14.6 9.7 15.9 11.4 16 13"></path><path d="M 16 13C 16 14.6569 14.6569 16 13 16C 11.3431 16 10 14.6569 10 13C 10 11.3431 11.3431 10 13 10C 14.6569 10 16 11.3431 16 13Z"></path></g></g></g><g id="g-root-3.cu-smallCircle_sy_hx53w41brb5e5-stroke" data-item-order="999994939" data-item-id="3.cu-smallCircle_sy_hx53w41brb5e5" data-item-class="Part Indexed Stroke ColorStrokeBlack" data-item-index="3" data-renderer-id="0" transform="translate(408, 251)"><g id="3.cu-smallCircle_sy_hx53w41brb5e5-stroke" fill="none" stroke-linecap="round" stroke-linejoin="round" stroke-miterlimit="4" stroke="#484848" stroke-width="2"><g><path d="M 16 13C 15.7 14.6 14.7 16 13 16C 11.3 16 9.9 14.7 10 13C 10.1 11.3 11.4 9.9 13 10C 14.7 10.1 16.2 11.4 16 13"></path><path d="M 16 13C 16 14.6569 14.6569 16 13 16C 11.3431 16 10 14.6569 10 13C 10 11.3431 11.3431 10 13 10C 14.6569 10 16 11.3431 16 13Z"></path></g></g></g><g id="g-root-2.cu-smallCircle_sy_dhblro1brb66e-stroke" data-item-order="999994943" data-item-id="2.cu-smallCircle_sy_dhblro1brb66e" data-item-class="Part Indexed Stroke ColorStrokeBlack" data-item-index="2" data-renderer-id="0" transform="translate(240, 250.884765625)"><g id="2.cu-smallCircle_sy_dhblro1brb66e-stroke" fill="none" stroke-linecap="round" stroke-linejoin="round" stroke-miterlimit="4" stroke="#484848" stroke-width="2"><g><path d="M 16 13.115234C 15.9 14.815234 14.6 16.515234 13 16.215234C 11.4 15.915234 9.5 14.715234 10 13.115234C 10.5 11.515234 11.4 10.515234 13 10.015234C 14.6 9.415234 16 11.415234 16 13.115234"></path><path d="M 16 13.1154C 16 14.836 14.6569 16.2308 13 16.2308C 11.3431 16.2308 10 14.836 10 13.1154C 10 11.3948 11.3431 10 13 10C 14.6569 10 16 11.3948 16 13.1154Z"></path></g></g></g><g id="g-root-1.cu-smallCircle_sy_4lolis1brb6z3-stroke" data-item-order="999994947" data-item-id="1.cu-smallCircle_sy_4lolis1brb6z3" data-item-class="Part Indexed Indexed_1 Stroke ColorStrokeBlack" data-item-index="1" data-renderer-id="0" transform="translate(72, 251)"><g id="1.cu-smallCircle_sy_4lolis1brb6z3-stroke" fill="none" stroke-linecap="round" stroke-linejoin="round" stroke-miterlimit="4" stroke="#484848" stroke-width="2"><g><path d="M 16 13C 15.6 14.6 14.7 16.1 13 16C 11.3 15.8 9.7 14.6 10 13C 10.3 11.4 11.3 9.9 13 10C 14.7 10.1 15.9 11.4 16 13"></path><path d="M 16 13C 16 14.6569 14.6569 16 13 16C 11.3431 16 10 14.6569 10 13C 10 11.3431 11.3431 10 13 10C 14.6569 10 16 11.3431 16 13Z"></path></g></g></g><g id="g-root-tx_fasesfin_1ly0jck1brb4zp-stroke" data-item-order="1000000000" data-item-id="tx_fasesfin_1ly0jck1brb4zp" data-item-class="Label Stroke Title ColorStrokeBlack" data-item-index="none" data-renderer-id="0" transform="translate(195, 2)"></g><g id="g-root-tx_perodode_7qino1brb6ro-stroke" data-item-order="1000000000" data-item-id="tx_perodode_7qino1brb6ro" data-item-class="Label Stroke Indexed Indexed_1 ColorStrokeBlack" data-item-index="1" data-renderer-id="0" transform="translate(9, 110)"></g><g id="g-root-tx_pagament_dj71101brb56r-stroke" data-item-order="1000000000" data-item-id="tx_pagament_dj71101brb56r" data-item-class="Label Stroke Indexed ColorStrokeBlack" data-item-index="2" data-renderer-id="0" transform="translate(183, 110)"></g><g id="g-root-tx_pagament_v9ukfo1brb5ze-stroke" data-item-order="1000000000" data-item-id="tx_pagament_v9ukfo1brb5ze" data-item-class="Label Stroke Indexed ColorStrokeBlack" data-item-index="3" data-renderer-id="0" transform="translate(339, 110)"></g><g id="g-root-tx_pagament_18lb2t01brb4eh-stroke" data-item-order="1000000000" data-item-id="tx_pagament_18lb2t01brb4eh" data-item-class="Label Stroke Indexed ColorStrokeBlack" data-item-index="4" data-renderer-id="0" transform="translate(520, 110)"></g><g id="g-root-tx_pagament_1urs4c41brb56o-stroke" data-item-order="1000000000" data-item-id="tx_pagament_1urs4c41brb56o" data-item-class="Label Stroke Indexed ColorStrokeBlack" data-item-index="5" data-renderer-id="0" transform="translate(675, 110)"></g><g id="g-root-2_hvwf781brckjt-stroke" data-item-order="1000000000" data-item-id="2_hvwf781brckjt" data-item-class="Icon Stroke Indexed Indexed_1 ColorStrokeBlack" data-item-index="1" data-renderer-id="0" transform="translate(51, 194)"><g id="2_hvwf781brckjt-stroke" fill="none" stroke-linecap="round" stroke-linejoin="round" stroke-miterlimit="4" stroke="#484848" stroke-width="2"><g><path d="M 21 31C 24.200001 30.200001 27.6 31 31 31C 30.200001 27 31.6 23 31 19M 29 51C 21.4 47.599998 11.4 44.400002 11.6 35.799999C 11.8 27.4 12.6 18.6 20 14.4C 27.200001 10.4 36.599998 9.4 43 15C 49.400002 20.4 52.200001 28.6 50.200001 36.799999M 57 57C 57.799999 51.799999 57.799999 46.200001 57 41C 51.599998 42 47 45.400002 47 51C 47 51.599998 46.799999 52.400002 47 53C 50 54.200001 53.599998 53 57 53M 44 57C 40.400002 56 36.599998 57.799999 33 57C 35 54.599998 38.400002 53.400002 40 50.799999C 41.400002 48.599998 43 48 42.799999 45C 42.799999 42.400002 39.799999 40 37.400002 41C 35.200001 42 32.599998 43.400002 33 46"></path><path d="M 21 31L 30.997999 31L 31 19M 29.062 50.908001C 20.661427 50.081673 13.686234 44.065712 11.635039 35.877605C 9.583846 27.689499 12.899158 19.095676 19.918079 14.406626C 26.937002 9.717575 36.145336 9.944871 42.924366 14.974506C 49.703396 20.004141 52.590675 28.751066 50.138 36.827999M 57 57L 57 41C 51.477154 41 47 45.477154 47 51L 47 53L 57 53M 44 57L 33 57L 40 50.821999C 41.972 49.082001 43.48 47.863998 42.897999 45C 42.382557 42.487347 40.049393 40.77227 37.497406 41.030098C 34.945419 41.287926 33.002449 43.435024 33 46"></path></g></g></g><g id="g-root-shar_7qoz81brqkga-stroke" data-item-order="1000000000" data-item-id="shar_7qoz81brqkga" data-item-class="Icon Stroke Indexed ColorStrokeBlack" data-item-index="2" data-renderer-id="0" transform="translate(219, 194)"><g id="shar_7qoz81brqkga-stroke" fill="none" stroke-linecap="round" stroke-linejoin="round" stroke-miterlimit="4" stroke="#484848" stroke-width="2"><g><path d="M 11.714286 39.142857C 14.457143 39.828571 17.542858 38.114285 20.285715 39.142857C 24.742859 40.857143 27.485714 43.257141 28.857143 47.714287M 18.571428 47.714287C 23.714287 49.771431 30.228573 49.771431 35.714287 47.714287C 39.142857 46.342857 41.200001 51.142857 42.57143 54.57143C 42.914288 55.600002 41.885715 56.628574 40.857143 56.285713C 31.6 53.200001 21.314285 58.342857 11.714286 56.285713M 43.600002 39.142857C 50.457146 36.742859 55.600002 36.399998 56.285713 30.914286C 56.971428 24.4 52.857143 20.628571 46.685715 17.199999C 47.714287 16.171429 48.057144 14.8 49.085712 13.771429C 49.428574 13.428572 49.428574 12.742857 49.085712 12.4C 49.085712 12.057143 48.400002 11.714286 48.057144 11.714286C 44.971428 11.028571 41.885715 12.742857 38.799999 11.714286C 38.457146 11.714286 37.771431 12.057143 37.771431 12.4C 37.771431 12.742857 37.428574 13.428572 37.771431 13.771429C 38.114285 15.142858 39.142857 16.514286 40.171429 17.199999C 33.314285 18.228571 31.257143 24.4 30.571428 30.914286C 29.885715 36.399998 36.057144 40.514286 43.600002 39.142857"></path><path d="M 11.714286 39.142857L 20.285715 39.142857C 25.019585 39.142857 28.857143 42.980419 28.857143 47.714287L 28.857143 47.714287M 18.571428 47.714287L 35.714287 47.714287C 39.501381 47.714287 42.57143 50.784332 42.57143 54.57143L 42.57143 54.57143C 42.57143 55.518204 41.803917 56.285713 40.857143 56.285713L 11.714286 56.285713M 43.428574 39.142857C 50.937141 39.142857 56.285713 36.502857 56.285713 30.742859C 56.285713 24.4 53.062859 20.148571 46.651428 17.028572L 49.188572 13.771429C 49.413036 13.342818 49.401306 12.828895 49.15752 12.410972C 48.913731 11.99305 48.472153 11.729871 47.988571 11.714286L 38.868572 11.714286C 38.394932 11.735306 37.963795 11.993661 37.721905 12.40142C 37.480015 12.809178 37.459961 13.311398 37.668571 13.737143L 40.205715 17.165714C 33.794285 20.285715 30.571428 24.4 30.571428 30.742859C 30.571428 36.502857 35.919998 39.142857 43.428574 39.142857Z"></path></g></g></g><g id="g-root-stas_1luwc8k1bri6tl-stroke" data-item-order="1000000000" data-item-id="stas_1luwc8k1bri6tl" data-item-class="Icon Stroke Indexed ColorStrokeBlack" data-item-index="3" data-renderer-id="0" transform="translate(387, 194)"><g id="stas_1luwc8k1bri6tl-stroke" fill="none" stroke-linecap="round" stroke-linejoin="round" stroke-miterlimit="4" stroke="#484848" stroke-width="2"><g><path d="M 42.200001 46C 45.200001 46.200001 47.799999 43 51 43C 53.200001 42.400002 55.799999 43 57 45C 31.6 55.200001 40.799999 56.200001 19 50C 16.6 52 13.8 53.400002 11 55M 29 47C 32.599998 47.200001 36.400002 46.400002 40 47C 40.799999 47 41.599998 46.799999 42 46.200001C 42.599998 45.400002 42.599998 44.400002 42 43.799999C 41.400002 43.200001 40.799999 42.599998 40 43C 38 42.799999 35.799999 43.599998 34 43C 31.200001 41.200001 28.4 38.599998 25 39C 23 38.799999 21 39.200001 19 39C 16.200001 40.200001 14 42.599998 11 43M 33 15C 33.200001 16 37.599998 15.6 43 17C 48.400002 18.4 53 16 53 15C 53 13.8 48.599998 13 43 13C 37.400002 13 32.799999 14 33 15M 53 15C 52.799999 17 53.200001 19 53 21C 53 22.200001 48.599998 22.799999 43 23C 37.400002 23.200001 32.799999 22 33 21C 33.400002 19 33.200001 17 33 15M 53 21C 53.400002 23 52.799999 25 53 27C 53.200001 28 48.599998 29.4 43 29C 37.400002 28.6 32.799999 28 33 27C 33.599998 25 33.599998 23 33 21M 53 27C 53 29 52.400002 31 53 33C 53.400002 34 48.599998 35.400002 43 35C 37.400002 34.599998 33.200001 34 33 33C 32.599998 31 32.599998 29 33 27M 19 27C 19.200001 27.6 19 28.4 19 29M 19 17C 19 17.6 19 18.4 19 19M 15 23C 14.4 23.200001 13.6 23.200001 13 23M 25 23C 24.4 22.799999 23.6 23 23 23"></path><path d="M 42.139999 45.942001L 51 43C 53.221539 42.34127 55.618008 43.140095 57 45C 32.542 57.226002 40.456001 57.153999 19 50L 11 55M 29 47L 40 47C 40.799885 47.143661 41.608437 46.796913 42.055729 46.118397C 42.503025 45.439884 42.503025 44.56012 42.055729 43.881603C 41.608437 43.203091 40.799885 42.856342 40 43L 34 43C 31.629362 40.554111 28.404079 39.120651 25 39L 19 39L 11 43M 33.007999 15C 33.008003 16.104568 37.485153 17 43.007999 17C 48.530849 17 53.007999 16.104568 53.007999 15C 53.007999 13.895431 48.530849 13 43.007999 13C 37.485153 13 33.008003 13.895431 33.008003 15ZM 53 15L 53 21C 53 22.105999 48.523998 23 43 23C 37.475998 23 33 22.105999 33 21L 33 15M 53 21L 53 27C 53 28.106001 48.523998 29 43 29C 37.475998 29 33 28.106001 33 27L 33 21M 53 27L 53 33C 53 34.106003 48.523998 35 43 35C 37.475998 35 33 34.106003 33 33L 33 27M 19.007999 27L 19.007999 29M 19.007999 17L 19.007999 19M 15.007999 23L 13.007999 23M 25.007999 23L 23.007999 23"></path></g></g></g><g id="g-root-2_8ydtdg1brqm0y-stroke" data-item-order="1000000000" data-item-id="2_8ydtdg1brqm0y" data-item-class="Icon Stroke Indexed ColorStrokeBlack" data-item-index="4" data-renderer-id="0" transform="translate(555, 194)"><g id="2_8ydtdg1brqm0y-stroke" fill="none" stroke-linecap="round" stroke-linejoin="round" stroke-miterlimit="4" stroke="#484848" stroke-width="2"><g><path d="M 35 37C 30.799999 35 25.4 36.599998 21 35M 47 37C 43 36.200001 38.799999 36 35 37M 38 19C 41 19.200001 44 18.4 47 19C 47.599998 19.200001 48 19.6 48.599998 20C 48.799999 20.200001 49.200001 20.6 49.200001 21C 49.400002 21.799999 49.400002 22.4 49.200001 23.200001C 49.200001 23.6 49 23.799999 48.799999 24C 48.200001 24.6 48.400002 25.6 48.799999 26.200001C 49 26.4 49.200001 26.799999 49.200001 27C 49.599998 27.799999 49.599998 28.6 49.200001 29.200001C 49 29.6 48.799999 29.799999 48.599998 30.200001C 48.200001 30.799999 48 31.6 48.400002 32C 48.599998 32.400002 48.400002 32.799999 48.799999 33.200001C 49 33.599998 48.799999 34.400002 48.400002 35C 48 35.599998 47.599998 36.400002 47 37M 21 25C 23.200001 24.799999 25.4 24.4 27.200001 23.200001C 27.6 23 28 22.6 28.4 22.200001C 29.6 21 30 19.200001 30.799999 17.6C 30.799999 17.200001 31.200001 16.799999 31.6 16.799999C 33.200001 16.6 34.599998 15.6 35.799999 14.6M 35.599998 11C 35.200001 11 35 11.2 34.799999 11.4C 34.599998 11.8 34.599998 12.2 34.799999 12.4C 36.400002 14.2 36.799999 16.799999 38 19C 40 19 42.200001 19.799999 44 19C 45 16.799999 46 14.6 47.200001 12.4C 47.400002 12.2 47.599998 11.8 47.200001 11.4C 47 11.2 46.799999 11.2 46.400002 11C 43 9.8 39 12 35.599998 11M 15 23C 16.200001 22.6 17.6 23 19 23C 20.200001 23 20.6 24 21 25C 22 28.799999 20.799999 33 21 37C 21 38.200001 20 39.400002 19 39C 17.799999 38.400002 16.4 39.200001 15 39M 46 37C 50.400002 38.599998 53 43.200001 53 48C 52.799999 53.799999 47.400002 58.799999 41 57C 34.599998 55.200001 28.6 53.799999 29 48C 29.4 43.400002 32.400002 40.200001 36 37M 41 51C 41.200001 51.599998 41.200001 52.400002 41 53M 41 41C 41 41.599998 40.799999 42.400002 41 43M 37 51C 39 51 41.200001 50.400002 43 51C 44 51.400002 45 50 45 49C 45.200001 47.799999 44 46.799999 43 47C 41.599998 47.200001 40.400002 46.799999 39 47C 38 47.200001 36.799999 46 37 45C 37.200001 44 38 43.400002 39 43C 40.799999 42.400002 43 42.799999 45 43"></path><path d="M 35 37L 21 35M 47 37L 35 37M 38 19L 46.919998 19C 47.615868 19.018253 48.252186 19.397015 48.599998 20L 49.259998 21C 49.699562 21.667465 49.699562 22.532536 49.259998 23.200001L 48.740002 24C 48.300438 24.667465 48.300438 25.532536 48.740002 26.200001L 49.259998 27C 49.699562 27.667465 49.699562 28.532536 49.259998 29.200001L 48.540001 30.280001C 48.195965 30.79196 48.107403 31.434023 48.299999 32.02L 48.700001 33.18C 48.892597 33.765976 48.804035 34.408043 48.459999 34.919998L 47 37M 21 25L 27.16 23.24C 27.697659 23.08812 28.147278 22.718273 28.4 22.220001L 30.700001 17.6C 30.89399 17.209999 31.209997 16.89399 31.6 16.700001L 35.799999 14.6M 35.620003 11C 35.269958 11.001833 34.945313 11.183032 34.760002 11.48C 34.588509 11.777025 34.588509 12.142975 34.759998 12.44L 38 19L 44 19L 47.279999 12.440001C 47.451485 12.142975 47.451485 11.777025 47.279999 11.48C 47.08728 11.170718 46.744205 10.987743 46.380001 11ZM 15 23L 19 23C 20.104568 23 21 23.895432 21 25L 21 37C 21 38.104568 20.104568 39 19 39L 15 39M 46 37.02C 50.251446 39.028465 52.973419 43.29808 53 48C 53 53.799999 47.619999 57 41 57C 34.379997 57 29 53.799999 29 48C 29.026579 43.29808 31.748554 39.028465 36 37.019997M 41 51L 41 53M 41 41L 41 43M 37 51L 43 51C 44.104568 51 45 50.104568 45 49C 45 47.895432 44.104568 47 43 47L 39 47C 37.895432 47 37 46.104568 37 45C 37 43.895432 37.895432 43 39 43L 45 43"></path></g></g></g><g id="g-root-coin_1qd7njo1brfcw9-stroke" data-item-order="1000000000" data-item-id="coin_1qd7njo1brfcw9" data-item-class="Icon Stroke Indexed ColorStrokeBlack" data-item-index="5" data-renderer-id="0" transform="translate(723, 194)"><g id="coin_1qd7njo1brfcw9-stroke" fill="none" stroke-linecap="round" stroke-linejoin="round" stroke-miterlimit="4" stroke="#484848" stroke-width="2"><g><path d="M 11 38.200001C 13.6 38 16.4 38.799999 19 38.200001C 19.4 43.599998 19.6 49 19 54.200001C 16.4 53.599998 13.6 53.799999 11 54.200001C 11.4 49 11.6 43.599998 11 38.200001M 19 51.200001C 40.200001 57.400002 33.400002 59 57 46.200001C 55.400002 44.400002 53 42.799999 51 44.200001C 48.200001 45.599998 45.200001 46.200001 42.200001 47M 19 40.200001C 21 40.599998 23 39.799999 25 40.200001C 28.4 40.200001 31.6 41.799999 34 44.200001C 36 44.200001 38 44 40 44.200001C 40.799999 44 41.599998 44.599998 42 45C 42.599998 45.599998 42.599998 46.799999 42 47.400002C 41.599998 48 40.799999 48.200001 40 48.200001C 36.400002 47.599998 32.400002 49.400002 29 48.200001M 39 18.200001C 39.599998 21.4 41.799999 23.200001 45 24.200001C 48.200001 25 50.400002 21.4 51 18.200001C 51.599998 14.8 48.200001 13 45 12.2C 41.799999 11.2 39.599998 14.8 39 18.200001M 29 32.200001C 29.200001 35.400002 31.799999 38.799999 35 38.200001C 38.200001 37.400002 41 35.400002 41 32.200001C 41 28.799999 38.400002 26.200001 35 26.200001C 31.6 26 28.799999 28.799999 29 32.200001M 35 30.200001C 34.599998 31.4 34.799999 32.799999 35 34.200001M 45 16.200001C 44.799999 17.4 45.200001 18.799999 45 20.200001"></path><path d="M 11.008 38.209999L 19.007999 38.209999L 19.007999 54.209999L 11.008 54.209999ZM 19 51.125999C 40 58.125999 33 58.125999 57 46.125999C 55.618729 44.265095 53.221558 43.466038 51 44.125999L 42.200001 47.048M 19 40.209999L 25 40.209999C 28.404079 40.33065 31.629362 41.764111 34 44.210003L 40 44.209999C 40.799885 44.066341 41.608437 44.41309 42.055729 45.091606C 42.503025 45.770119 42.503025 46.649883 42.055729 47.3284C 41.608437 48.006912 40.799885 48.353661 40 48.210003L 29 48.209999M 39.007999 18.125999C 39.008003 21.439709 41.69429 24.125999 45.007999 24.125999C 48.321709 24.125999 51.007999 21.439709 51.007999 18.125999C 51.007999 14.812292 48.321709 12.126 45.007999 12.126C 41.69429 12.126 39.008003 14.812292 39.008003 18.125999ZM 29.007999 32.125999C 29.008001 35.439709 31.694292 38.125999 35.008003 38.125999C 38.321709 38.125999 41.008003 35.439709 41.008003 32.125999C 41.008003 28.812292 38.321709 26.126001 35.008003 26.126001C 31.694292 26.126001 29.008001 28.812292 29.008001 32.125999ZM 35.007999 30.125999L 35.007999 34.125999M 45.007999 16.125999L 45.007999 20.125999"></path></g></g></g></g></g></svg>