<?xml version="1.0" encoding="utf-8" standalone="yes"?>
<!DOCTYPE svg PUBLIC "-//W3C//DTD SVG 1.1//EN" "http://www.w3.org/Graphics/SVG/1.1/DTD/svg11.dtd">
<svg width="642" height="554" viewBox="0 0 642 554" style="fill:none;stroke:none;fill-rule:evenodd;clip-rule:evenodd;stroke-linecap:round;stroke-linejoin:round;stroke-miterlimit:1.5;" version="1.1" xmlns="http://www.w3.org/2000/svg" xmlns:xlink="http://www.w3.org/1999/xlink"><style id="fontImports">@import url("https://fonts.googleapis.com/css2?family=Roboto:wght@400;700&amp;display=block");</style><rect id="" x="0" y="0" width="642" height="554" style="fill: #ffffff;"></rect><g id="items" style="isolation: isolate"><g id="blend" style="mix-blend-mode:normal"><g id="g-root-ro_1q7laat185rp4w-fill" data-item-order="999978400" data-item-id="ro_1q7laat185rp4w" data-item-class="Shape Stroke Fill" data-item-index="none" data-renderer-id="0" transform="translate(227, 259)"><g id="ro_1q7laat185rp4w-fill" stroke="none" fill="#e6f9ff"><g><path d="M 22 10L 178 10C 178 10 190 10 190 22L 190 118C 190 118 190 130 178 130L 22 130C 22 130 10 130 10 118L 10 22C 10 22 10 10 22 10"></path></g></g></g><g id="g-root-ro_14644md185htzd-fill" data-item-order="999980416" data-item-id="ro_14644md185htzd" data-item-class="Shape Stroke Fill" data-item-index="none" data-renderer-id="0" transform="translate(3, 435)"><g id="ro_14644md185htzd-fill" stroke="none" fill="#e6f9ff"><g><path d="M 22 10L 202 10C 202 10 214 10 214 22L 214 94C 214 94 214 106 202 106L 22 106C 22 106 10 106 10 94L 10 22C 10 22 10 10 22 10"></path></g></g></g><g id="g-root-ro_1q8ubmt185xblz-fill" data-item-order="999981568" data-item-id="ro_1q8ubmt185xblz" data-item-class="Shape Stroke Fill" data-item-index="none" data-renderer-id="0" transform="translate(427, 435)"><g id="ro_1q8ubmt185xblz-fill" stroke="none" fill="#e6f9ff"><g><path d="M 22 10L 190 10C 190 10 202 10 202 22L 202 94C 202 94 202 106 190 106L 22 106C 22 106 10 106 10 94L 10 22C 10 22 10 10 22 10"></path></g></g></g><g id="g-root-ro_7qlid185rmrl-fill" data-item-order="999982720" data-item-id="ro_7qlid185rmrl" data-item-class="Shape Stroke Fill" data-item-index="none" data-renderer-id="0" transform="translate(227, 435)"><g id="ro_7qlid185rmrl-fill" stroke="none" fill="#e6f9ff"><g><path d="M 22 10L 178 10C 178 10 190 10 190 22L 190 94C 190 94 190 106 178 106L 22 106C 22 106 10 106 10 94L 10 22C 10 22 10 10 22 10"></path></g></g></g><g id="g-root-ro_1hcknz9185xatj-fill" data-item-order="999987040" data-item-id="ro_1hcknz9185xatj" data-item-class="Shape Stroke Fill" data-item-index="none" data-renderer-id="0" transform="translate(227, 131)"><g id="ro_1hcknz9185xatj-fill" stroke="none" fill="#e6f9ff"><g><path d="M 22 10L 178 10C 178 10 190 10 190 22L 190 70C 190 70 190 82 178 82L 22 82C 22 82 10 82 10 70L 10 22C 10 22 10 10 22 10"></path></g></g></g><g id="g-root-ro_dffzvp185vuo4-fill" data-item-order="999987904" data-item-id="ro_dffzvp185vuo4" data-item-class="Shape Stroke Fill" data-item-index="none" data-renderer-id="0" transform="translate(233, 3)"><g id="ro_dffzvp185vuo4-fill" stroke="none" fill="#f0f0f0"><g><path d="M 22 10L 166 10C 166 10 178 10 178 22L 178 70C 178 70 178 82 166 82L 22 82C 22 82 10 82 10 70L 10 22C 10 22 10 10 22 10"></path></g></g></g><g id="g-root-tx_dividida_245et185xbt9-fill" data-item-order="1000000000" data-item-id="tx_dividida_245et185xbt9" data-item-class="Label Stroke" data-item-index="none" data-renderer-id="0" transform="translate(275, 143)"><g id="tx_dividida_245et185xbt9-fill" stroke="none" fill="#17b0e3"><g><text style="font: 20px Roboto, sans-serif; white-space: pre;" font-weight="20px" font-size="Roboto," font-family="sans-serif"><tspan x="12" y="34" dominant-baseline="ideographic">Dividida em </tspan><tspan x="12" y="58" dominant-baseline="ideographic">Quatro Lotes</tspan></text></g></g></g><g id="g-root-shak_1qcl65h185hurk-fill" data-item-order="1000000000" data-item-id="shak_1qcl65h185hurk" data-item-class="Icon Stroke" data-item-index="none" data-renderer-id="0" transform="translate(15, 468)"></g><g id="g-root-2_1lse63p185xa1a-fill" data-item-order="1000000000" data-item-id="2_1lse63p185xa1a" data-item-class="Icon Stroke" data-item-index="none" data-renderer-id="0" transform="translate(239, 152)"></g><g id="g-root-tx_idealpar_248kl185rnri-fill" data-item-order="1000000000" data-item-id="tx_idealpar_248kl185rnri" data-item-class="Label Stroke" data-item-index="none" data-renderer-id="0" transform="translate(275, 271)"><g id="tx_idealpar_248kl185rnri-fill" stroke="none" fill="#17b0e3"><g><text style="font: 20px Roboto, sans-serif; white-space: pre;" font-weight="20px" font-size="Roboto," font-family="sans-serif"><tspan x="12" y="34" dominant-baseline="ideographic">Ideal para </tspan><tspan x="12" y="58" dominant-baseline="ideographic">Condomínio </tspan><tspan x="12" y="82" dominant-baseline="ideographic">Horizontal </tspan><tspan x="12" y="106" dominant-baseline="ideographic">Fechado</tspan></text></g></g></g><g id="g-root-buil_4j6s11185xa86-fill" data-item-order="1000000000" data-item-id="buil_4j6s11185xa86" data-item-class="Icon Stroke" data-item-index="none" data-renderer-id="0" transform="translate(439, 468)"></g><g id="g-root-map_dikmsl185rocg-fill" data-item-order="1000000000" data-item-id="map_dikmsl185rocg" data-item-class="Icon Stroke" data-item-index="none" data-renderer-id="0" transform="translate(239, 468)"></g><g id="g-root-tx_localiza_v98679185rp53-fill" data-item-order="1000000000" data-item-id="tx_localiza_v98679185rp53" data-item-class="Label Stroke" data-item-index="none" data-renderer-id="0" transform="translate(275, 459)"><g id="tx_localiza_v98679185rp53-fill" stroke="none" fill="#17b0e3"><g><text style="font: 20px Roboto, sans-serif; white-space: pre;" font-weight="20px" font-size="Roboto," font-family="sans-serif"><tspan x="12" y="34" dominant-baseline="ideographic">Localização </tspan><tspan x="12" y="58" dominant-baseline="ideographic">Estratégica</tspan></text></g></g></g><g id="g-root-buil_hun0x1185vx1n-fill" data-item-order="1000000000" data-item-id="buil_hun0x1185vx1n" data-item-class="Icon Stroke" data-item-index="none" data-renderer-id="0" transform="translate(245, 24)"></g><g id="g-root-tx_oportuni_92r4o5185hslj-fill" data-item-order="1000000000" data-item-id="tx_oportuni_92r4o5185hslj" data-item-class="Label Stroke" data-item-index="none" data-renderer-id="0" transform="translate(51, 447)"><g id="tx_oportuni_92r4o5185hslj-fill" stroke="none" fill="#17b0e3"><g><text style="font: 20px Roboto, sans-serif; white-space: pre;" font-weight="20px" font-size="Roboto," font-family="sans-serif"><tspan x="12" y="34" dominant-baseline="ideographic">Oportunidades </tspan><tspan x="12" y="58" dominant-baseline="ideographic">para Parcerias </tspan><tspan x="12" y="82" dominant-baseline="ideographic">Imobiliárias</tspan></text></g></g></g><g id="g-root-gara_1unesf9185rocn-fill" data-item-order="1000000000" data-item-id="gara_1unesf9185rocn" data-item-class="Icon Stroke" data-item-index="none" data-renderer-id="0" transform="translate(239, 304)"></g><g id="g-root-tx_reade44a_141qjj9185vuo2-fill" data-item-order="1000000000" data-item-id="tx_reade44a_141qjj9185vuo2" data-item-class="Label Stroke" data-item-index="none" data-renderer-id="0" transform="translate(281, 15)"><g id="tx_reade44a_141qjj9185vuo2-fill" stroke="none" fill="#484848"><g><text style="font: 20px Roboto, sans-serif; white-space: pre;" font-weight="20px" font-size="Roboto," font-family="sans-serif"><tspan x="12" y="34" dominant-baseline="ideographic">Área de 44 </tspan><tspan x="12" y="58" dominant-baseline="ideographic">Alqueires</tspan></text></g></g></g><g id="g-root-tx_infraest_m9ubfp185xb0t-fill" data-item-order="1000000000" data-item-id="tx_infraest_m9ubfp185xb0t" data-item-class="Label Stroke" data-item-index="none" data-renderer-id="0" transform="translate(475, 447)"><g id="tx_infraest_m9ubfp185xb0t-fill" stroke="none" fill="#17b0e3"><g><text style="font: 20px Roboto, sans-serif; white-space: pre;" font-weight="20px" font-size="Roboto," font-family="sans-serif"><tspan x="12" y="34" dominant-baseline="ideographic">Infraestrutura </tspan><tspan x="12" y="58" dominant-baseline="ideographic">para Grandes </tspan><tspan x="12" y="82" dominant-baseline="ideographic">Projetos</tspan></text></g></g></g><g id="g-root-cu_1uqj90l185x9u3-fill" data-item-order="1000000002" data-item-id="cu_1uqj90l185x9u3" data-item-class="Curve Stroke" data-item-index="none" data-renderer-id="0" transform="translate(317, 203)"></g><g id="g-root-cu_1qapqw5185xame-fill" data-item-order="1000000002" data-item-id="cu_1qapqw5185xame" data-item-class="Curve Stroke" data-item-index="none" data-renderer-id="0" transform="translate(105, 379)"></g><g id="g-root-cu_1qapqw5185xamh-fill" data-item-order="1000000002" data-item-id="cu_1qapqw5185xamh" data-item-class="Curve Stroke" data-item-index="none" data-renderer-id="0" transform="translate(317, 379)"></g><g id="g-root-cu_1luw8rp185xber-fill" data-item-order="1000000002" data-item-id="cu_1luw8rp185xber" data-item-class="Curve Stroke" data-item-index="none" data-renderer-id="0" transform="translate(317, 379)"></g><g id="g-root-cu_1uqj90l185x9u0-fill" data-item-order="1000000002" data-item-id="cu_1uqj90l185x9u0" data-item-class="Curve Stroke" data-item-index="none" data-renderer-id="0" transform="translate(317, 75)"></g><g id="g-root-ro_1q7laat185rp4w-stroke" data-item-order="999978400" data-item-id="ro_1q7laat185rp4w" data-item-class="Shape Stroke Fill" data-item-index="none" data-renderer-id="0" transform="translate(227, 259)"><g id="ro_1q7laat185rp4w-stroke" fill="none" stroke-linecap="round" stroke-linejoin="round" stroke-miterlimit="4" stroke="#17b0e3" stroke-width="2"><g><path d="M 22 10L 178 10C 178 10 190 10 190 22L 190 118C 190 118 190 130 178 130L 22 130C 22 130 10 130 10 118L 10 22C 10 22 10 10 22 10"></path></g></g></g><g id="g-root-ro_14644md185htzd-stroke" data-item-order="999980416" data-item-id="ro_14644md185htzd" data-item-class="Shape Stroke Fill" data-item-index="none" data-renderer-id="0" transform="translate(3, 435)"><g id="ro_14644md185htzd-stroke" fill="none" stroke-linecap="round" stroke-linejoin="round" stroke-miterlimit="4" stroke="#17b0e3" stroke-width="2"><g><path d="M 22 10L 202 10C 202 10 214 10 214 22L 214 94C 214 94 214 106 202 106L 22 106C 22 106 10 106 10 94L 10 22C 10 22 10 10 22 10"></path></g></g></g><g id="g-root-ro_1q8ubmt185xblz-stroke" data-item-order="999981568" data-item-id="ro_1q8ubmt185xblz" data-item-class="Shape Stroke Fill" data-item-index="none" data-renderer-id="0" transform="translate(427, 435)"><g id="ro_1q8ubmt185xblz-stroke" fill="none" stroke-linecap="round" stroke-linejoin="round" stroke-miterlimit="4" stroke="#17b0e3" stroke-width="2"><g><path d="M 22 10L 190 10C 190 10 202 10 202 22L 202 94C 202 94 202 106 190 106L 22 106C 22 106 10 106 10 94L 10 22C 10 22 10 10 22 10"></path></g></g></g><g id="g-root-ro_7qlid185rmrl-stroke" data-item-order="999982720" data-item-id="ro_7qlid185rmrl" data-item-class="Shape Stroke Fill" data-item-index="none" data-renderer-id="0" transform="translate(227, 435)"><g id="ro_7qlid185rmrl-stroke" fill="none" stroke-linecap="round" stroke-linejoin="round" stroke-miterlimit="4" stroke="#17b0e3" stroke-width="2"><g><path d="M 22 10L 178 10C 178 10 190 10 190 22L 190 94C 190 94 190 106 178 106L 22 106C 22 106 10 106 10 94L 10 22C 10 22 10 10 22 10"></path></g></g></g><g id="g-root-ro_1hcknz9185xatj-stroke" data-item-order="999987040" data-item-id="ro_1hcknz9185xatj" data-item-class="Shape Stroke Fill" data-item-index="none" data-renderer-id="0" transform="translate(227, 131)"><g id="ro_1hcknz9185xatj-stroke" fill="none" stroke-linecap="round" stroke-linejoin="round" stroke-miterlimit="4" stroke="#17b0e3" stroke-width="2"><g><path d="M 22 10L 178 10C 178 10 190 10 190 22L 190 70C 190 70 190 82 178 82L 22 82C 22 82 10 82 10 70L 10 22C 10 22 10 10 22 10"></path></g></g></g><g id="g-root-ro_dffzvp185vuo4-stroke" data-item-order="999987904" data-item-id="ro_dffzvp185vuo4" data-item-class="Shape Stroke Fill" data-item-index="none" data-renderer-id="0" transform="translate(233, 3)"><g id="ro_dffzvp185vuo4-stroke" fill="none" stroke-linecap="round" stroke-linejoin="round" stroke-miterlimit="4" stroke="#484848" stroke-width="2"><g><path d="M 22 10L 166 10C 166 10 178 10 178 22L 178 70C 178 70 178 82 166 82L 22 82C 22 82 10 82 10 70L 10 22C 10 22 10 10 22 10"></path></g></g></g><g id="g-root-tx_dividida_245et185xbt9-stroke" data-item-order="1000000000" data-item-id="tx_dividida_245et185xbt9" data-item-class="Label Stroke" data-item-index="none" data-renderer-id="0" transform="translate(275, 143)"></g><g id="g-root-shak_1qcl65h185hurk-stroke" data-item-order="1000000000" data-item-id="shak_1qcl65h185hurk" data-item-class="Icon Stroke" data-item-index="none" data-renderer-id="0" transform="translate(15, 468)"><g id="shak_1qcl65h185hurk-stroke" fill="none" stroke-linecap="round" stroke-linejoin="round" stroke-miterlimit="4" stroke="#17b0e3" stroke-width="2"><g><path d="M 10 10M 31.875 34.9375L 26.924999 35.924999M 27.5 30.362501L 25.1875 31.3125C 24.819954 31.468088 24.405045 31.468088 24.037498 31.3125C 23.495686 31.08989 23.13496 30.570023 23.116076 29.984564C 23.097189 29.399105 23.423658 28.857067 23.950001 28.600002L 26.25 27.5C 26.535553 27.351173 26.852993 27.27396 27.174999 27.275C 27.41749 27.280041 27.657776 27.322197 27.887501 27.4L 32.112499 29.025M 18.125 35.987503L 19.875 35.987503L 22.787498 38.200001C 23.0886 38.543777 23.607634 38.587952 23.9625 38.299999L 28.3375 34.787498C 28.690722 34.489155 28.745859 33.965355 28.462502 33.599998L 26.0625 30.950001M 23.75 28.75L 23.450001 28.5C 23.132732 28.27305 22.752583 28.150703 22.362501 28.150002C 22.131454 28.146694 21.902042 28.189178 21.6875 28.275L 18.125 29.737499M 14.375 36.612503C 14.375 36.95768 14.654822 37.237503 15 37.237503L 16.875 37.237503C 17.565355 37.237503 18.125 36.677856 18.125 35.987503L 18.125 29.737499C 18.125 29.047144 17.565355 28.487499 16.875 28.487499L 15 28.487499C 14.654822 28.487499 14.375 28.767323 14.375 29.112499ZM 35.625 36.612503C 35.625 36.95768 35.345177 37.237503 35 37.237503L 33.125 37.237503C 32.434647 37.237503 31.875 36.677856 31.875 35.987503L 31.875 29.737499C 31.875 29.047144 32.434647 28.487499 33.125 28.487499L 35 28.487499C 35.345177 28.487499 35.625 28.767323 35.625 29.112499ZM 10.625 25.362499L 24.112499 11.875C 24.347208 11.638359 24.666702 11.505252 25 11.505252C 25.333298 11.505252 25.652792 11.638359 25.887501 11.875L 39.375 25.362499M 30 12.2375L 33.75 12.2375C 34.095177 12.2375 34.375 12.517322 34.375 12.8625L 34.375 16.612499"></path></g></g></g><g id="g-root-2_1lse63p185xa1a-stroke" data-item-order="1000000000" data-item-id="2_1lse63p185xa1a" data-item-class="Icon Stroke" data-item-index="none" data-renderer-id="0" transform="translate(239, 152)"><g id="2_1lse63p185xa1a-stroke" fill="none" stroke-linecap="round" stroke-linejoin="round" stroke-miterlimit="4" stroke="#17b0e3" stroke-width="2"><g><path d="M 10.9375 33.75L 27.1875 33.75M 39.0625 33.75L 34.0625 33.75M 10.9375 18.75L 27.1875 18.75M 39.0625 18.75L 34.0625 18.75M 10.9375 26.25L 15.9375 26.25M 22.8125 26.25L 39.0625 26.25"></path></g></g></g><g id="g-root-tx_idealpar_248kl185rnri-stroke" data-item-order="1000000000" data-item-id="tx_idealpar_248kl185rnri" data-item-class="Label Stroke" data-item-index="none" data-renderer-id="0" transform="translate(275, 271)"></g><g id="g-root-buil_4j6s11185xa86-stroke" data-item-order="1000000000" data-item-id="buil_4j6s11185xa86" data-item-class="Icon Stroke" data-item-index="none" data-renderer-id="0" transform="translate(439, 468)"><g id="buil_4j6s11185xa86-stroke" fill="none" stroke-linecap="round" stroke-linejoin="round" stroke-miterlimit="4" stroke="#17b0e3" stroke-width="2"><g><path d="M 39.375 24.946249C 39.375 24.601072 39.095177 24.321249 38.75 24.321249L 35 24.321249C 34.654823 24.321249 34.375 24.601072 34.375 24.946249L 34.375 29.321249L 23.75 29.321249C 23.404823 29.321249 23.125 29.601072 23.125 29.946249L 23.125 33.071251L 11.25 33.071251C 10.904822 33.071251 10.625 33.35107 10.625 33.696251L 10.625 38.696251C 10.625 39.041428 10.904822 39.321251 11.25 39.321251L 38.75 39.321251C 39.095177 39.321251 39.375 39.041428 39.375 38.696251ZM 31.875 24.321249L 31.875 29.321249M 29.375 24.321249L 29.375 29.321249M 26.875 24.321249L 26.875 29.321249M 24.375 24.321249L 24.375 29.321249M 30.625 16.196249C 30.625 16.541428 30.345177 16.821249 30 16.821249L 11.25 16.821249C 10.904822 16.821249 10.625 16.541428 10.625 16.196249L 10.625 14.94625C 10.625 14.601072 10.904822 14.32125 11.25 14.32125L 30.625 14.32125ZM 11.445 14.32125L 15.14875 10.92875C 15.450051 10.702789 15.837173 10.624722 16.202499 10.71625L 30.625 14.32125M 18.125 16.821249L 18.125 30.75M 14.375 30.75L 14.375 16.821249M 30.625 16.196249L 30.625 20.571249M 15.625 10.75L 15.625 14.32125"></path></g></g></g><g id="g-root-map_dikmsl185rocg-stroke" data-item-order="1000000000" data-item-id="map_dikmsl185rocg" data-item-class="Icon Stroke" data-item-index="none" data-renderer-id="0" transform="translate(239, 468)"><g id="map_dikmsl185rocg-stroke" fill="none" stroke-linecap="round" stroke-linejoin="round" stroke-miterlimit="4" stroke="#17b0e3" stroke-width="2"><g><path d="M 31.25 16.875C 31.25 20.32625 25 25.803749 25 25.803749C 25 25.803749 18.75 20.32625 18.75 16.875C 18.75 13.423221 21.548222 10.625 25 10.625C 28.45178 10.625 31.25 13.423221 31.25 16.875ZM 33.75 15.625L 35.625 15.625C 36.315353 15.625 36.875 16.184645 36.875 16.875L 36.875 38.125C 36.875 38.815353 36.315353 39.375 35.625 39.375L 14.375 39.375C 13.684644 39.375 13.125 38.815353 13.125 38.125L 13.125 16.875C 13.125 16.184645 13.684644 15.625 14.375 15.625L 16.25 15.625"></path></g></g></g><g id="g-root-tx_localiza_v98679185rp53-stroke" data-item-order="1000000000" data-item-id="tx_localiza_v98679185rp53" data-item-class="Label Stroke" data-item-index="none" data-renderer-id="0" transform="translate(275, 459)"></g><g id="g-root-buil_hun0x1185vx1n-stroke" data-item-order="1000000000" data-item-id="buil_hun0x1185vx1n" data-item-class="Icon Stroke" data-item-index="none" data-renderer-id="0" transform="translate(245, 24)"><g id="buil_hun0x1185vx1n-stroke" fill="none" stroke-linecap="round" stroke-linejoin="round" stroke-miterlimit="4" stroke="#484848" stroke-width="2"><g><path d="M 23.1325 35.6175C 18.409281 35.623634 14.53365 31.880127 14.376016 27.159534C 14.218381 22.438942 17.835644 18.445225 22.54875 18.13625C 22.877722 18.114491 23.133219 17.84094 23.1325 17.51125L 23.1325 15.01125C 23.132732 14.839702 23.062441 14.6756 22.938105 14.557408C 22.813768 14.439218 22.646317 14.377329 22.474998 14.38625C 15.751379 14.740932 10.516721 20.357347 10.635424 27.08927C 10.754128 33.821194 16.183537 39.249569 22.915482 39.366993C 29.647429 39.484413 35.262848 34.248688 35.616249 27.525002C 35.625172 27.353683 35.563282 27.186232 35.445091 27.061895C 35.3269 26.937559 35.162796 26.867268 34.991249 26.8675L 32.491249 26.8675C 32.16156 26.866781 31.888008 27.122278 31.866249 27.45125C 31.558887 32.048138 27.739651 35.619209 23.1325 35.6175ZM 27.54125 10.63375C 27.369724 10.624474 27.201941 10.686204 27.077324 10.804434C 26.952709 10.922665 26.88225 11.086973 26.8825 11.25875L 26.8825 13.75875C 26.881824 14.088892 27.138035 14.362621 27.467501 14.38375C 31.840076 14.676395 35.321777 18.158628 35.61375 22.53125C 35.635509 22.860222 35.909058 23.115719 36.23875 23.115L 38.73875 23.115C 38.910526 23.115252 39.074837 23.04479 39.193066 22.920174C 39.311298 22.795561 39.373024 22.627777 39.36375 22.456249C 39.026154 16.071924 33.925575 10.971344 27.54125 10.63375ZM 18.1325 34.05875L 18.1325 23.1175L 24.3825 26.2425L 24.3825 35.52375M 24.3825 28.1175L 28.7575 28.1175C 29.102678 28.1175 29.3825 28.397322 29.3825 28.7425L 29.3825 32.9925M 18.1325 28.1175L 21.2575 28.1175M 18.1325 30.6175L 21.2575 30.6175M 24.3825 26.2425L 24.3825 23.1175M 28.1325 28.1175L 28.1325 24.9925"></path></g></g></g><g id="g-root-tx_oportuni_92r4o5185hslj-stroke" data-item-order="1000000000" data-item-id="tx_oportuni_92r4o5185hslj" data-item-class="Label Stroke" data-item-index="none" data-renderer-id="0" transform="translate(51, 447)"></g><g id="g-root-gara_1unesf9185rocn-stroke" data-item-order="1000000000" data-item-id="gara_1unesf9185rocn" data-item-class="Icon Stroke" data-item-index="none" data-renderer-id="0" transform="translate(239, 304)"><g id="gara_1unesf9185rocn-stroke" fill="none" stroke-linecap="round" stroke-linejoin="round" stroke-miterlimit="4" stroke="#17b0e3" stroke-width="2"><g><path d="M 10.625 36.846249L 39.375 36.846249M 13.125 21.846251L 13.125 36.846249M 36.875 36.846249L 36.875 21.846251M 39.375 19.75625C 39.37487 19.507853 39.227661 19.283108 39 19.18375L 25.25 13.205C 25.090593 13.135429 24.909407 13.135429 24.75 13.205L 11 19.18375C 10.772341 19.283108 10.625128 19.507853 10.625 19.75625L 10.625 21.221251C 10.625 21.566427 10.904822 21.846251 11.25 21.846251L 38.75 21.846251C 39.095177 21.846251 39.375 21.566427 39.375 21.221251ZM 16.25 36.846249C 15.904821 36.846249 15.625 36.566429 15.625 36.221249L 15.625 24.971251C 15.625 24.626072 15.904821 24.346251 16.25 24.346251L 33.75 24.346251C 34.095177 24.346251 34.375 24.626072 34.375 24.971251L 34.375 36.221249C 34.375 36.566429 34.095177 36.846249 33.75 36.846249M 18.125 28.096251L 31.875 28.096251M 18.125 30.596249L 31.875 30.596249M 18.125 33.096249L 31.875 33.096249"></path></g></g></g><g id="g-root-tx_reade44a_141qjj9185vuo2-stroke" data-item-order="1000000000" data-item-id="tx_reade44a_141qjj9185vuo2" data-item-class="Label Stroke" data-item-index="none" data-renderer-id="0" transform="translate(281, 15)"></g><g id="g-root-tx_infraest_m9ubfp185xb0t-stroke" data-item-order="1000000000" data-item-id="tx_infraest_m9ubfp185xb0t" data-item-class="Label Stroke" data-item-index="none" data-renderer-id="0" transform="translate(475, 447)"></g><g id="g-root-cu_1uqj90l185x9u3-stroke" data-item-order="1000000002" data-item-id="cu_1uqj90l185x9u3" data-item-class="Curve Stroke" data-item-index="none" data-renderer-id="0" transform="translate(317, 203)"><g id="cu_1uqj90l185x9u3-stroke" fill="none" stroke-linecap="round" stroke-linejoin="round" stroke-miterlimit="4" stroke="#484848" stroke-width="2"><g><path d="M 10 10L 10 38L 10 64"></path><path d="M 3.5 58L 10 64.5L 16.5 58" stroke-dasharray="none"></path></g></g></g><g id="g-root-cu_1qapqw5185xame-stroke" data-item-order="1000000002" data-item-id="cu_1qapqw5185xame" data-item-class="Curve Stroke" data-item-index="none" data-renderer-id="0" transform="translate(105, 379)"><g id="cu_1qapqw5185xame-stroke" fill="none" stroke-linecap="round" stroke-linejoin="round" stroke-miterlimit="4" stroke="#484848" stroke-width="2"><g><path d="M 222 10L 222 24L 222 38L 116 38L 10 38L 10 52L 10 64"></path><path d="M 3.5 58L 10 64.5L 16.5 58" stroke-dasharray="none"></path></g></g></g><g id="g-root-cu_1qapqw5185xamh-stroke" data-item-order="1000000002" data-item-id="cu_1qapqw5185xamh" data-item-class="Curve Stroke" data-item-index="none" data-renderer-id="0" transform="translate(317, 379)"><g id="cu_1qapqw5185xamh-stroke" fill="none" stroke-linecap="round" stroke-linejoin="round" stroke-miterlimit="4" stroke="#484848" stroke-width="2"><g><path d="M 10 10L 10 38L 10 64"></path><path d="M 3.5 58L 10 64.5L 16.5 58" stroke-dasharray="none"></path></g></g></g><g id="g-root-cu_1luw8rp185xber-stroke" data-item-order="1000000002" data-item-id="cu_1luw8rp185xber" data-item-class="Curve Stroke" data-item-index="none" data-renderer-id="0" transform="translate(317, 379)"><g id="cu_1luw8rp185xber-stroke" fill="none" stroke-linecap="round" stroke-linejoin="round" stroke-miterlimit="4" stroke="#484848" stroke-width="2"><g><path d="M 10 10L 10 24L 10 38L 113 38L 216 38L 216 52L 216 64"></path><path d="M 209.5 58L 216 64.5L 222.5 58" stroke-dasharray="none"></path></g></g></g><g id="g-root-cu_1uqj90l185x9u0-stroke" data-item-order="1000000002" data-item-id="cu_1uqj90l185x9u0" data-item-class="Curve Stroke" data-item-index="none" data-renderer-id="0" transform="translate(317, 75)"><g id="cu_1uqj90l185x9u0-stroke" fill="none" stroke-linecap="round" stroke-linejoin="round" stroke-miterlimit="4" stroke="#484848" stroke-width="2"><g><path d="M 10 10L 10 38L 10 64"></path><path d="M 3.5 58L 10 64.5L 16.5 58" stroke-dasharray="none"></path></g></g></g></g></g></svg>