<?xml version="1.0" encoding="utf-8" standalone="yes"?>
<!DOCTYPE svg PUBLIC "-//W3C//DTD SVG 1.1//EN" "http://www.w3.org/Graphics/SVG/1.1/DTD/svg11.dtd">
<svg width="567" height="674" viewBox="0 0 567 674" style="fill:none;stroke:none;fill-rule:evenodd;clip-rule:evenodd;stroke-linecap:round;stroke-linejoin:round;stroke-miterlimit:1.5;" version="1.1" xmlns="http://www.w3.org/2000/svg" xmlns:xlink="http://www.w3.org/1999/xlink"><style class="text-font-style fontImports" data-font-family="Roboto">@import url('https://fonts.googleapis.com/css2?family=Roboto:wght@400;700&amp;display=block');</style><rect id="" x="0" y="0" width="566" height="674" style="fill: #ffffff;"></rect><g id="items" style="isolation: isolate"><g id="blend" style="mix-blend-mode: normal"><g id="g-root-tf_18lyh0a18zxfrd-fill" data-item-order="-379008" transform="translate(-9, -9)"><g id="tf_18lyh0a18zxfrd-fill" stroke="none" fill="#ffffff"><g><path d="M 10.000244 10L 574.000244 10L 574.000244 682L 10.000244 682Z"></path></g></g></g><g id="g-root-0.cu_sy_1hi7yca18zhzbb-fill" data-item-order="-272154" transform="translate(237.00048828125, 99)"><g id="0.cu_sy_1hi7yca18zhzbb-fill" stroke="none" fill="#f5f5f5"><g><path d="M 10 34L 28 10L 28 18.0001L 52 18.0001L 52 10.0002L 70 34.0002L 52 58.0002L 52 50.0001L 28 50.0001L 28 58L 10 34Z"></path></g></g></g><g id="g-root-0.cu_1_sy_146rfyy18zi0w8-fill" data-item-order="-272151" transform="translate(15, 182.9990234375)"></g><g id="g-root-0.cu_2_sy_qvxeoq18zhzbd-fill" data-item-order="-272149" transform="translate(267.00048828125, 75)"></g><g id="g-root-tx_prs_zog1i218zxibk-fill" data-item-order="0" transform="translate(75.00048828125, 105)"><g id="tx_prs_zog1i218zxibk-fill" stroke="none" fill="#484848"><g><text style="font: bold 30px Roboto, sans-serif; white-space: pre;" font-weight="bold" font-size="30px" font-family="Roboto, sans-serif"><tspan x="12" y="46" dominant-baseline="ideographic">Prós</tspan></text></g></g></g><g id="g-root-tx_contras_1hfq1zu18zxfyf-fill" data-item-order="0" transform="translate(375.00048828125, 105)"><g id="tx_contras_1hfq1zu18zxfyf-fill" stroke="none" fill="#484848"><g><text style="font: bold 30px Roboto, sans-serif; white-space: pre;" font-weight="bold" font-size="30px" font-family="Roboto, sans-serif"><tspan x="12" y="46" dominant-baseline="ideographic">Contras</tspan></text></g></g></g><g id="g-root-patt_90dy218zunf0-fill" data-item-order="0" transform="translate(15.00048828125, 219)"></g><g id="g-root-tx_crescime_59jfe18zxgy6-fill" data-item-order="0" transform="translate(75.00048828125, 219)"><g id="tx_crescime_59jfe18zxgy6-fill" stroke="none" fill="#484848"><g><text style="font: 20px Roboto, sans-serif; white-space: pre;" font-size="20px" font-family="Roboto, sans-serif"><tspan x="12" y="34" dominant-baseline="ideographic">Crescimento </tspan><tspan x="12" y="58" dominant-baseline="ideographic">Populacional</tspan></text></g></g></g><g id="g-root-grap_1hiuffe18zm8sn-fill" data-item-order="0" transform="translate(315.00048828125, 219)"></g><g id="g-root-tx_altastax_1uooo0q18zxiix-fill" data-item-order="0" transform="translate(375.00048828125, 219)"><g id="tx_altastax_1uooo0q18zxiix-fill" stroke="none" fill="#484848"><g><text style="font: 20px Roboto, sans-serif; white-space: pre;" font-size="20px" font-family="Roboto, sans-serif"><tspan x="12" y="34" dominant-baseline="ideographic">Altas Taxas de </tspan><tspan x="12" y="58" dominant-baseline="ideographic">Juros</tspan></text></g></g></g><g id="g-root-1_5w0ii18zt9mr-fill" data-item-order="0" transform="translate(15.00048828125, 303)"></g><g id="g-root-tx_adequaos_dg3kpm18zxij1-fill" data-item-order="0" transform="translate(75.00048828125, 303)"><g id="tx_adequaos_dg3kpm18zxij1-fill" stroke="none" fill="#484848"><g><text style="font: 20px Roboto, sans-serif; white-space: pre;" font-size="20px" font-family="Roboto, sans-serif"><tspan x="12" y="34" dominant-baseline="ideographic">Adequação </tspan><tspan x="12" y="58" dominant-baseline="ideographic">Socioeconômica</tspan></text></g></g></g><g id="g-root-1_1hcloka18zm77y-fill" data-item-order="0" transform="translate(315.00048828125, 303)"></g><g id="g-root-tx_recentes_huo4nu18zxgcg-fill" data-item-order="0" transform="translate(375.00048828125, 291)"><g id="tx_recentes_huo4nu18zxgcg-fill" stroke="none" fill="#484848"><g><text style="font: 20px Roboto, sans-serif; white-space: pre;" font-size="20px" font-family="Roboto, sans-serif"><tspan x="12" y="34" dominant-baseline="ideographic">Recentes </tspan><tspan x="12" y="58" dominant-baseline="ideographic">Quedas no </tspan><tspan x="12" y="82" dominant-baseline="ideographic">Mercado</tspan></text></g></g></g><g id="g-root-decr_1ha3s7u18zrtoi-fill" data-item-order="0" transform="translate(15.00048828125, 387)"></g><g id="g-root-tx_demandad_qrk32y18zxgy4-fill" data-item-order="0" transform="translate(75.00048828125, 387)"><g id="tx_demandad_qrk32y18zxgy4-fill" stroke="none" fill="#484848"><g><text style="font: 20px Roboto, sans-serif; white-space: pre;" font-size="20px" font-family="Roboto, sans-serif"><tspan x="12" y="34" dominant-baseline="ideographic">Demanda de </tspan><tspan x="12" y="58" dominant-baseline="ideographic">Mercado</tspan></text></g></g></g><g id="g-root-gian_hyez6i18zksn9-fill" data-item-order="0" transform="translate(315.00048828125, 387)"></g><g id="g-root-tx_potencia_141566y18zxgcv-fill" data-item-order="0" transform="translate(375.00048828125, 387)"><g id="tx_potencia_141566y18zxgcv-fill" stroke="none" fill="#484848"><g><text style="font: 20px Roboto, sans-serif; white-space: pre;" font-size="20px" font-family="Roboto, sans-serif"><tspan x="12" y="34" dominant-baseline="ideographic">Potencial de </tspan><tspan x="12" y="58" dominant-baseline="ideographic">Superconstrução</tspan></text></g></g></g><g id="g-root-cros_zpozoa18zp2x5-fill" data-item-order="0" transform="translate(15.00048828125, 471)"></g><g id="g-root-tx_apoiogov_142e4d618zxiiz-fill" data-item-order="0" transform="translate(75.00048828125, 471)"><g id="tx_apoiogov_142e4d618zxiiz-fill" stroke="none" fill="#484848"><g><text style="font: 20px Roboto, sans-serif; white-space: pre;" font-size="20px" font-family="Roboto, sans-serif"><tspan x="12" y="34" dominant-baseline="ideographic">Apoio </tspan><tspan x="12" y="58" dominant-baseline="ideographic">Governamental</tspan></text></g></g></g><g id="g-root-1_1hjgwii18zjev8-fill" data-item-order="0" transform="translate(315.00048828125, 471)"></g><g id="g-root-tx_dependnc_1q7m7q218zxh52-fill" data-item-order="0" transform="translate(375.00048828125, 471)"><g id="tx_dependnc_1q7m7q218zxh52-fill" stroke="none" fill="#484848"><g><text style="font: 20px Roboto, sans-serif; white-space: pre;" font-size="20px" font-family="Roboto, sans-serif"><tspan x="12" y="34" dominant-baseline="ideographic">Dependência </tspan><tspan x="12" y="58" dominant-baseline="ideographic">de Subsídios</tspan></text></g></g></g><g id="g-root-food_zrkexm18znojk-fill" data-item-order="0" transform="translate(15.00048828125, 555)"></g><g id="g-root-tx_custosde_1hdumqi18zxgy2-fill" data-item-order="0" transform="translate(75.00048828125, 543)"><g id="tx_custosde_1hdumqi18zxgy2-fill" stroke="none" fill="#484848"><g><text style="font: 20px Roboto, sans-serif; white-space: pre;" font-size="20px" font-family="Roboto, sans-serif"><tspan x="12" y="34" dominant-baseline="ideographic">Custos de </tspan><tspan x="12" y="58" dominant-baseline="ideographic">Transporte </tspan><tspan x="12" y="82" dominant-baseline="ideographic">Reduzidos</tspan></text></g></g></g><g id="g-root-decr_v309lm18zjf9n-fill" data-item-order="0" transform="translate(315.00048828125, 555)"></g><g id="g-root-tx_viabilid_1lzaemy18zi0p6-fill" data-item-order="0" transform="translate(39.00048828125, 39)"><g id="tx_viabilid_1lzaemy18zi0p6-fill" stroke="none" fill="#484848"><g><text style="font: 20px Roboto, sans-serif; white-space: pre;" font-size="20px" font-family="Roboto, sans-serif"><tspan x="13.83" y="34" dominant-baseline="ideographic">Viabilidade do Projeto Habitacional em Miringuava</tspan></text></g></g></g><g id="g-root-tx_estabili_8x5p5m18zxi4t-fill" data-item-order="0" transform="translate(375.00048828125, 543)"><g id="tx_estabili_8x5p5m18zxi4t-fill" stroke="none" fill="#484848"><g><text style="font: 20px Roboto, sans-serif; white-space: pre;" font-size="20px" font-family="Roboto, sans-serif"><tspan x="12" y="34" dominant-baseline="ideographic">Estabilidade </tspan><tspan x="12" y="58" dominant-baseline="ideographic">Econômica </tspan><tspan x="12" y="82" dominant-baseline="ideographic">Incerta</tspan></text></g></g></g><g id="g-root-tf_18lyh0a18zxfrd-stroke" data-item-order="-379008" transform="translate(-9, -9)"></g><g id="g-root-0.cu_sy_1hi7yca18zhzbb-stroke" data-item-order="-272154" transform="translate(237.00048828125, 99)"><g id="0.cu_sy_1hi7yca18zhzbb-stroke" fill="none" stroke-linecap="round" stroke-linejoin="round" stroke-miterlimit="4" stroke="#969696" stroke-width="2"><g><path d="M 10 34L 28 10L 28 18.0001L 52 18.0001L 52 10.0002L 70 34.0002L 52 58.0002L 52 50.0001L 28 50.0001L 28 58L 10 34ZM 30.598633 28.373184L 34.998633 39.480384M 35.198633 39.097384L 39.598633 28.660484M 49.398633 30.192484C 49.065333 29.937084 48.731933 29.681784 48.398633 29.426484C 47.798633 28.851984 46.831933 28.628484 45.498633 28.756184C 44.165333 28.883884 43.465333 29.522184 43.398633 30.671184C 43.265333 31.820284 44.231933 32.905384 46.298633 33.926784C 48.431933 34.884284 49.465333 36.001384 49.398633 37.278084C 49.398633 38.554784 48.631933 39.320784 47.098633 39.576084C 45.498633 39.767584 44.431933 39.416584 43.898633 38.522884C 43.565333 38.075984 43.265333 37.629184 42.998633 37.182384"></path></g></g></g><g id="g-root-0.cu_1_sy_146rfyy18zi0w8-stroke" data-item-order="-272151" transform="translate(15, 182.9990234375)"><g id="0.cu_1_sy_146rfyy18zi0w8-stroke" fill="none" stroke-linecap="round" stroke-linejoin="round" stroke-miterlimit="4" stroke="#969696" stroke-width="2"><g><path d="M 514.0005 10L 10 10.0008"></path></g></g></g><g id="g-root-0.cu_2_sy_qvxeoq18zhzbd-stroke" data-item-order="-272149" transform="translate(267.00048828125, 75)"><g id="0.cu_2_sy_qvxeoq18zhzbd-stroke" fill="none" stroke-linecap="round" stroke-linejoin="round" stroke-miterlimit="4" stroke="#969696" stroke-width="2"><g><path d="M 10.0001 298L 10 214M 10.0001 382L 10 298M 10.0001 466L 10 382M 10.0001 550L 10 466M 10.0001 214L 10 118M 10 118L 10 80M 10 36L 10 10"></path></g></g></g><g id="g-root-tx_prs_zog1i218zxibk-stroke" data-item-order="0" transform="translate(75.00048828125, 105)"></g><g id="g-root-tx_contras_1hfq1zu18zxfyf-stroke" data-item-order="0" transform="translate(375.00048828125, 105)"></g><g id="g-root-patt_90dy218zunf0-stroke" data-item-order="0" transform="translate(15.00048828125, 219)"><g id="patt_90dy218zunf0-stroke" fill="none" stroke-linecap="round" stroke-linejoin="round" stroke-miterlimit="4" stroke="#3cc583" stroke-width="2"><g><path d="M 10 10M 36.75 43.062401L 33.891602 40.639801C 35.891602 38.4398 36.291599 35.239799 34.891602 32.639801C 33.4916 30.039801 30.691601 28.63982 27.69154 29.03982L 24.091541 29.639839C 23.33316 29.829439 22.75452 30.018999 22.185219 30.5494M 10 10M 27.472481 35.715L 18.891579 45.4398M 10 10M 43.091599 47.639801L 47.091599 54.239799C 48.091599 56.239799 50.691601 56.839802 52.4916 55.639801C 54.291599 54.4398 55.091599 52.039799 53.891602 50.239799L 50.421799 44.296799M 19.291561 41.839798C 15.89156 41.839798 13.29156 39.239799 13.29156 35.839798C 13.29156 32.4398 15.89156 29.839821 19.291561 29.839821C 22.691559 29.839821 25.291561 32.4398 25.291561 35.839798C 25.291561 39.239799 22.691559 41.839798 19.291561 41.839798ZM 10 10M 34.491402 46.239799L 39.8894 38.639801C 40.489201 37.639801 41.4888 37.039803 42.6884 37.039803L 52.084801 36.039803C 54.284 35.839798 56.283199 37.4398 56.4832 39.639801C 56.682999 41.839798 55.083599 43.839802 52.884602 44.039799L 45.087399 44.839802L 38.09 54.4398C 37.290398 55.4398 36.290802 55.839802 35.291 56.039799L 34.891197 56.039799C 33.891602 56.039799 33.091999 55.639801 32.292198 55.039799L 26.29446 49.639801L 23.495499 53.239799C 22.09602 54.639801 20.296719 55.4398 18.297459 55.4398C 17.497761 55.4398 16.69808 55.4398 15.89838 55.039799C 13.29934 54.039799 11.5 51.239799 11.5 48.4398L 11.5 43.239799C 11.5 41.458401 12.67492 39.872803 14.44338 39.452599M 10 10M 49.615398 12.62468L 35.971802 21.427021L 30.9104 15.48546L 20.567741 23.1875M 10 10M 42.573601 11.744464L 49.615398 12.62468L 48.075001 19.88662"></path></g></g></g><g id="g-root-tx_crescime_59jfe18zxgy6-stroke" data-item-order="0" transform="translate(75.00048828125, 219)"></g><g id="g-root-grap_1hiuffe18zm8sn-stroke" data-item-order="0" transform="translate(315.00048828125, 219)"><g id="grap_1hiuffe18zm8sn-stroke" fill="none" stroke-linecap="round" stroke-linejoin="round" stroke-miterlimit="4" stroke="#e55753" stroke-width="2"><g><path d="M 56.5 24.099979L 36.299999 41.099998L 30.700001 34.5L 11.5 49.700001M 10 10M 16.5 55.700001L 16.5 45.734402M 16.5 39.5L 16.5 21.699959M 26.5 29.700001L 26.5 11.5M 36.5 30.5L 36.5 17.699961M 46.5 17.700001L 46.5 11.5M 10 10M 26.5 48.099998L 26.5 37.875M 10 10M 36.5 50.5L 36.5 40.9688M 10 10M 46.5 56.5L 46.5 32.5M 47.5 24.099979L 56.5 24.099979L 56.5 32.5"></path></g></g></g><g id="g-root-tx_altastax_1uooo0q18zxiix-stroke" data-item-order="0" transform="translate(375.00048828125, 219)"></g><g id="g-root-1_5w0ii18zt9mr-stroke" data-item-order="0" transform="translate(15.00048828125, 303)"><g id="1_5w0ii18zt9mr-stroke" fill="none" stroke-linecap="round" stroke-linejoin="round" stroke-miterlimit="4" stroke="#4e88e7" stroke-width="2"><g><path d="M 42 34L 56 34M 56 16.5L 49 16.5C 47.799999 16.5 47 17.299999 47 18.5L 47 49.5C 47 50.700001 47.799999 51.5 49 51.5L 56 51.5M 37.400002 49.5C 35.599998 44.299999 30.6 40.5 24.799999 40.5C 19 40.5 13.8 44.299999 12 49.5M 24.60004 22.5L 24.60004 16.5M 13.59986 28.29998L 35.5998 28.29998M 16.39986 30.5C 16.599861 34.900002 20.199841 38.5 24.59984 38.5C 29.199841 38.5 32.799801 34.900002 32.799801 30.299999L 32.799801 26.700001C 32.799801 22.1 29.199841 18.5 24.59984 18.5C 20.199841 18.5 16.599861 22.1 16.39986 26.5L 16.39986 30.5Z"></path></g></g></g><g id="g-root-tx_adequaos_dg3kpm18zxij1-stroke" data-item-order="0" transform="translate(75.00048828125, 303)"></g><g id="g-root-1_1hcloka18zm77y-stroke" data-item-order="0" transform="translate(315.00048828125, 303)"><g id="1_1hcloka18zm77y-stroke" fill="none" stroke-linecap="round" stroke-linejoin="round" stroke-miterlimit="4" stroke="#de8431" stroke-width="2"><g><path d="M 57.007999 56L 11.008 56M 49 56L 49 47C 49 46.447716 49.447716 46 50 46L 54 46C 54.552284 46 55 46.447716 55 47L 55 56M 37 56L 37 37C 37 36.447716 37.447716 36 38 36L 42 36C 42.552284 36 43 36.447716 43 37L 43 56M 25 56L 25 41C 25 40.447716 25.447716 40 26 40L 30 40C 30.552284 40 31 40.447716 31 41L 31 56M 13 56L 13 27C 13 26.447716 13.447716 26 14 26L 18 26C 18.552284 26 19 26.447716 19 27L 19 56M 56 32L 44.759998 19.888C 43.692184 18.736616 42.049446 18.316544 40.559998 18.813999L 33.122002 21.296C 31.80769 21.73415 30.360241 21.461002 29.296 20.574001L 19 12M 48.007999 32L 56.007999 32L 56.007999 24"></path></g></g></g><g id="g-root-tx_recentes_huo4nu18zxgcg-stroke" data-item-order="0" transform="translate(375.00048828125, 291)"></g><g id="g-root-decr_1ha3s7u18zrtoi-stroke" data-item-order="0" transform="translate(15.00048828125, 387)"><g id="decr_1ha3s7u18zrtoi-stroke" fill="none" stroke-linecap="round" stroke-linejoin="round" stroke-miterlimit="4" stroke="#92bd39" stroke-width="2"><g><path d="M 15 45.360001L 15 57L 29 57L 29 45.360001M 10 10M 11 49L 20.66 40.220001C 21.421238 39.532963 22.578762 39.532963 23.34 40.220001L 33 49M 21 35L 11 35L 11 25M 35 11L 11 35M 57 57L 29 57M 31 40L 31 27C 31 26.447716 31.447716 26 32 26L 40 26C 40.552284 26 41 26.447716 41 27L 41 57M 47 57L 47 14C 47 13.447716 47.447716 13 48 13L 56 13C 56.552284 13 57 13.447716 57 14L 57 57"></path></g></g></g><g id="g-root-tx_demandad_qrk32y18zxgy4-stroke" data-item-order="0" transform="translate(75.00048828125, 387)"></g><g id="g-root-gian_hyez6i18zksn9-stroke" data-item-order="0" transform="translate(315.00048828125, 387)"><g id="gian_hyez6i18zksn9-stroke" fill="none" stroke-linecap="round" stroke-linejoin="round" stroke-miterlimit="4" stroke="#e0cb15" stroke-width="2"><g><path d="M 17.647999 46.014L 17.647999 53.566002C 17.648001 55.222855 18.991146 56.566002 20.648001 56.566002C 22.304855 56.566002 23.648001 55.222855 23.648001 53.566002C 23.648001 55.222855 24.991146 56.566002 26.648001 56.566002C 28.304855 56.566002 29.648001 55.222855 29.648001 53.566002L 29.648001 46.014M 23.647999 54.066002L 23.647999 48.181999M 11.5 56.566002L 56.5 56.566002M 42.5 56.566002L 42.5 46.742001M 53.5 46.742001L 53.5 56.566002M 39.5 49.566002L 48 41.566002L 56.5 49.566002M 23.646999 11.434L 23.646999 11.434C 23.646999 11.434 31.578001 11.434 31.578001 19.366001L 31.578001 21.650002C 31.578001 21.650002 31.578001 29.582001 23.646999 29.582001L 23.646999 29.582001C 23.646999 29.582001 15.716 29.582001 15.716 21.650002L 15.716 19.366001C 15.716 19.366001 15.716 11.434 23.646999 11.434M 18.647999 36.200001L 18.647999 43.57C 18.647999 45.502998 17.080997 47.07 15.148001 47.07C 13.215004 47.07 11.648001 45.502998 11.648001 43.57L 11.648 33.07C 11.643485 31.234682 12.362005 29.471436 13.648 28.161999M 28.648001 36.113998L 28.648001 43.566002C 28.648001 45.498997 30.215004 47.066002 32.148003 47.066002C 34.080997 47.066002 35.648003 45.498997 35.648003 43.566002L 35.648003 33.066002C 35.650917 31.292585 34.977921 29.584707 33.765999 28.290001M 27.514 22.571999C 25.179184 23.342026 22.658815 23.342026 20.323999 22.571999M 22.152 23.15L 21.473999 24.77M 25.686001 23.15L 26.364 24.77"></path></g></g></g><g id="g-root-tx_potencia_141566y18zxgcv-stroke" data-item-order="0" transform="translate(375.00048828125, 387)"></g><g id="g-root-cros_zpozoa18zp2x5-stroke" data-item-order="0" transform="translate(15.00048828125, 471)"><g id="cros_zpozoa18zp2x5-stroke" fill="none" stroke-linecap="round" stroke-linejoin="round" stroke-miterlimit="4" stroke="#1eabda" stroke-width="2"><g><path d="M 10 10M 50.059399 36.049801L 42.475399 36.049801L 42.475399 42.491001L 36.034401 42.491001L 36.034401 50.075001L 42.475399 50.075001L 42.475399 56.5158L 50.059399 56.5158L 50.059399 50.075001L 56.500401 50.075001L 56.500401 42.491001L 50.059399 42.491001L 50.059399 36.049801ZM 17.92016 32.882797L 32.9202 32.882797M 17.92016 41.882797L 25.42016 41.882797M 29.856199 50.882801L 14.92016 50.882801C 14.124519 50.882801 13.36146 50.566799 12.79884 50.0042C 12.23624 49.441601 11.920166 48.678398 11.920166 47.882801L 11.920166 14.88282C 11.920166 14.08716 12.23624 13.3241 12.79884 12.761499C 13.36146 12.19888 14.124519 11.882813 14.92016 11.882813L 36.1782 11.882813C 36.973198 11.882982 37.735802 12.19878 38.298203 12.76082L 44.042198 18.50482C 44.604198 19.0672 44.919998 19.82972 44.9202 20.624821L 44.9202 30.129601M 10 10M 18.78076 25.398941L 25.90942 19.82406L 29.473579 24.119461L 35.779602 18.91016"></path></g></g></g><g id="g-root-tx_apoiogov_142e4d618zxiiz-stroke" data-item-order="0" transform="translate(75.00048828125, 471)"></g><g id="g-root-1_1hjgwii18zjev8-stroke" data-item-order="0" transform="translate(315.00048828125, 471)"><g id="1_1hjgwii18zjev8-stroke" fill="none" stroke-linecap="round" stroke-linejoin="round" stroke-miterlimit="4" stroke="#ba5de5" stroke-width="2"><g><path d="M 42.5 21.5C 42.5 25.918278 45.63401 29.5 49.5 29.5C 53.365993 29.5 56.5 25.918278 56.5 21.5C 56.5 17.081722 53.365993 13.5 49.5 13.5C 45.63401 13.5 42.5 17.081722 42.5 21.5M 49.5 29.5L 49.5 54.5M 18.5 13.5L 18.5 54.5M 11.5 13.5L 11.5 22.5C 11.5 26.365993 14.634007 29.5 18.5 29.5C 22.365993 29.5 25.5 26.365993 25.5 22.5L 25.5 13.5M 30.728001 37C 31.005207 39.346764 32.177284 41.496052 34 43C 35.822716 41.496052 36.994793 39.346764 37.271999 37C 36.994793 34.653236 35.822716 32.503948 34 31C 32.177284 32.503948 31.005207 34.653236 30.728001 37ZM 31.667999 40.984001C 33.358345 43.082905 34.191509 45.743877 34 48.431999C 31.311878 48.623508 28.650906 47.790348 26.552 46.099998C 24.861961 44.001801 24.029442 41.341305 24.222 38.653999C 26.909306 38.461441 29.569799 39.293961 31.668001 40.984001ZM 36.332001 40.984001C 34.640762 43.082432 33.807487 45.743763 34 48.432003C 36.688099 48.623306 39.348999 47.790169 41.447998 46.099998C 43.138042 44.001801 43.970562 41.341305 43.778 38.653999C 41.090698 38.461441 38.430202 39.293961 36.332001 40.984001ZM 34 48.431999L 34 53"></path></g></g></g><g id="g-root-tx_dependnc_1q7m7q218zxh52-stroke" data-item-order="0" transform="translate(375.00048828125, 471)"></g><g id="g-root-food_zrkexm18znojk-stroke" data-item-order="0" transform="translate(15.00048828125, 555)"><g id="food_zrkexm18znojk-stroke" fill="none" stroke-linecap="round" stroke-linejoin="round" stroke-miterlimit="4" stroke="#de58a9" stroke-width="2"><g><path d="M 39 16L 39 18C 39 20.761425 41.238579 23 44 23C 46.761425 23 49 20.761425 49 18L 49 16M 34.573997 34.026001C 40.832001 33.132 42.174 30.648001 43.852001 27.502001L 44.375999 26.542C 44.97393 25.464607 46.169846 24.862392 47.391453 25.023537C 48.61306 25.184681 49.611904 26.076412 49.91 27.272001L 56.91 53.271999C 57.206257 54.323853 56.907135 55.45359 56.129189 56.221024C 55.351238 56.988453 54.217533 57.272175 53.169815 56.961628C 52.122093 56.651085 51.326103 55.795406 51.092003 54.728001L 48.599998 46.75C 46.633358 48.992664 45.355587 51.755154 44.919998 54.705997C 44.530087 56.316463 42.908463 57.305916 41.298 56.916C 39.687538 56.526089 38.69809 54.904465 39.088001 53.294003C 41.158001 44.740002 41.865997 45.566002 46.709999 39.192001L 45.742001 35.318001C 42.931366 37.993317 39.293976 39.632507 35.428001 39.966C 33.787716 40.201275 32.267273 39.062286 32.032001 37.422001C 31.796728 35.781715 32.935715 34.261276 34.576004 34.026001ZM 39 16L 49 16L 48.158001 11.8C 48.062946 11.334333 47.653267 10.999903 47.178001 11L 40.818001 11C 40.342731 10.999903 39.933052 11.334333 39.837997 11.8ZM 11 53L 31 53C 32.104568 53 33 52.104568 33 51L 33 44M 12.998 54.995998C 12.998 56.100571 13.893431 56.995998 14.998 56.995998C 16.10257 56.995998 16.998001 56.100571 16.998001 54.995998C 16.998001 53.89143 16.10257 52.995998 14.998 52.995998C 13.893431 52.995998 12.998 53.89143 12.998 54.995998ZM 25.998001 54.995998C 25.998001 56.100571 26.893431 56.995998 27.997999 56.995998C 29.10257 56.995998 29.997999 56.100571 29.997999 54.995998C 29.997999 53.89143 29.10257 52.995998 27.997999 52.995998C 26.893431 52.995998 25.998001 53.89143 25.998001 54.995998ZM 28 49L 12 49C 11.447716 49 11 48.552284 11 48L 11 38C 11 37.447716 11.447716 37 12 37L 28 37C 28.552284 37 29 37.447716 29 38L 29 48C 29 48.552284 28.552284 49 28 49ZM 17 37L 17 36C 17 34.343147 18.343147 33 20 33C 21.656855 33 23 34.343147 23 36L 23 37"></path></g></g></g><g id="g-root-tx_custosde_1hdumqi18zxgy2-stroke" data-item-order="0" transform="translate(75.00048828125, 543)"></g><g id="g-root-decr_v309lm18zjf9n-stroke" data-item-order="0" transform="translate(315.00048828125, 555)"><g id="decr_v309lm18zjf9n-stroke" fill="none" stroke-linecap="round" stroke-linejoin="round" stroke-miterlimit="4" stroke="#7f64ea" stroke-width="2"><g><path d="M 57.007999 56L 11.008 56M 49 56L 49 51C 49 50.447716 49.447716 50 50 50L 54 50C 54.552284 50 55 50.447716 55 51L 55 56M 37 56L 37 43C 37 42.447716 37.447716 42 38 42L 42 42C 42.552284 42 43 42.447716 43 43L 43 56M 25 56L 25 35C 25 34.447716 25.447716 34 26 34L 30 34C 30.552284 34 31 34.447716 31 35L 31 56M 13 56L 13 27C 13 26.447716 13.447716 26 14 26L 18 26C 18.552284 26 19 26.447716 19 27L 19 56M 52.007999 36L 16.007999 12M 51.007999 28L 52.007999 36L 44.007999 37"></path></g></g></g><g id="g-root-tx_viabilid_1lzaemy18zi0p6-stroke" data-item-order="0" transform="translate(39.00048828125, 39)"></g><g id="g-root-tx_estabili_8x5p5m18zxi4t-stroke" data-item-order="0" transform="translate(375.00048828125, 543)"></g></g></g></svg>