<?xml version="1.0" encoding="utf-8" standalone="yes"?>
<!DOCTYPE svg PUBLIC "-//W3C//DTD SVG 1.1//EN" "http://www.w3.org/Graphics/SVG/1.1/DTD/svg11.dtd">
<svg width="723" height="578" viewBox="0 0 723 578" style="fill:none;stroke:none;fill-rule:evenodd;clip-rule:evenodd;stroke-linecap:round;stroke-linejoin:round;stroke-miterlimit:1.5;" version="1.1" xmlns="http://www.w3.org/2000/svg" xmlns:xlink="http://www.w3.org/1999/xlink"><style class="text-font-style fontImports" data-font-family="Roboto">@import url('https://fonts.googleapis.com/css2?family=Roboto:wght@400;700&amp;display=block');</style><rect id="" x="0" y="0" width="723" height="578" style="fill: none;"></rect><g id="items" style="isolation: isolate"><g id="blend" style="mix-blend-mode: normal"><g id="g-root-tf_1uua5cq1bhqzuw-fill" data-item-order="-415296" transform="translate(-9, -9)"></g><g id="g-root-0.g-0_fr_v48fbu1bhr021-fill" data-item-order="-322549" transform="translate(15, 87)"></g><g id="g-root-4.g-4_fr_qoex7e1bhr0ub-fill" data-item-order="-322538" transform="translate(349.6929931640625, 287.328125)"></g><g id="g-root-3.g-3_fr_ddkvx61bhqz9h-fill" data-item-order="-322532" transform="translate(208, 303.69287109375)"></g><g id="g-root-2.g-2_fr_4hxvoa1bhr027-fill" data-item-order="-322526" transform="translate(333.3270263671875, 177)"></g><g id="g-root-1.g-1_fr_24dju1bhr0uh-fill" data-item-order="-322520" transform="translate(208, 177)"></g><g id="g-root-tx_avaliand_1hckw4a1bhqzur-fill" data-item-order="0" transform="translate(82, 39)"><g id="tx_avaliand_1hckw4a1bhqzur-fill" stroke="none" fill="#484848"><g><text style="font: 20px Roboto, sans-serif; white-space: pre;" font-size="20px" font-family="Roboto, sans-serif"><tspan x="15.72" y="34" dominant-baseline="ideographic">Avaliando a Viabilidade do Desenvolvimento em Miringuava</tspan></text></g></g></g><g id="g-root-tx_desenvol_mdl7ru1bhr11q-fill" data-item-order="0" transform="translate(28, 93)"><g id="tx_desenvol_mdl7ru1bhr11q-fill" stroke="none" fill="#92bd39"><g><text style="font: bold 20px Roboto, sans-serif; white-space: pre;" font-weight="bold" font-size="20px" font-family="Roboto, sans-serif"><tspan x="20.8" y="34" dominant-baseline="ideographic">Desenvolvimento </tspan><tspan x="34.25" y="58" dominant-baseline="ideographic">Suburbano com </tspan><tspan x="64.42" y="82" dominant-baseline="ideographic">Potencial de </tspan><tspan x="61.84" y="106" dominant-baseline="ideographic">Crescimento</tspan></text></g></g></g><g id="g-root-tx_desenvol_1lviroa1bhr090-fill" data-item-order="0" transform="translate(496, 93)"><g id="tx_desenvol_1lviroa1bhr090-fill" stroke="none" fill="#3cc583"><g><text style="font: bold 20px Roboto, sans-serif; white-space: pre;" font-weight="bold" font-size="20px" font-family="Roboto, sans-serif"><tspan x="12" y="34" dominant-baseline="ideographic">Desenvolvimento </tspan><tspan x="12" y="58" dominant-baseline="ideographic">Planejado com </tspan><tspan x="12" y="82" dominant-baseline="ideographic">Infraestrutura </tspan><tspan x="12" y="106" dominant-baseline="ideographic">Moderna</tspan></text></g></g></g><g id="g-root-tx_oferecee_92r6hm1bhqzgv-fill" data-item-order="0" transform="translate(28, 201)"><g id="tx_oferecee_92r6hm1bhqzgv-fill" stroke="none" fill="#484848"><g><text style="font: 15px Roboto, sans-serif; white-space: pre;" font-size="15px" font-family="Roboto, sans-serif"><tspan x="55.53" y="31" dominant-baseline="ideographic">Oferece expansão </tspan><tspan x="71.91" y="49" dominant-baseline="ideographic">suburbana com </tspan><tspan x="17.34" y="67" dominant-baseline="ideographic">infraestrutura existente.</tspan></text></g></g></g><g id="g-root-tx_integrai_18k29ay1bhr1tx-fill" data-item-order="0" transform="translate(496, 201)"><g id="tx_integrai_18k29ay1bhr1tx-fill" stroke="none" fill="#484848"><g><text style="font: 15px Roboto, sans-serif; white-space: pre;" font-size="15px" font-family="Roboto, sans-serif"><tspan x="12" y="31" dominant-baseline="ideographic">Integra infraestrutura </tspan><tspan x="12" y="49" dominant-baseline="ideographic">moderna para atrair </tspan><tspan x="12" y="67" dominant-baseline="ideographic">moradores industriais.</tspan></text></g></g></g><g id="g-root-tx_1_1414dqy1bhr1fo-fill" data-item-order="0" transform="translate(286, 237)"><g id="tx_1_1414dqy1bhr1fo-fill" stroke="none" fill="#92bd39"><g><text style="font: bold 30px Roboto, sans-serif; white-space: pre;" font-weight="bold" font-size="30px" font-family="Roboto, sans-serif"><tspan x="13.39" y="46" dominant-baseline="ideographic">1</tspan></text></g></g></g><g id="g-root-tx_2_detu3e1bhr1fq-fill" data-item-order="0" transform="translate(394, 237)"><g id="tx_2_detu3e1bhr1fq-fill" stroke="none" fill="#3cc583"><g><text style="font: bold 30px Roboto, sans-serif; white-space: pre;" font-weight="bold" font-size="30px" font-family="Roboto, sans-serif"><tspan x="13.39" y="46" dominant-baseline="ideographic">2</tspan></text></g></g></g><g id="g-root-tx_3_qqacgq1bhqzut-fill" data-item-order="0" transform="translate(286, 333)"><g id="tx_3_qqacgq1bhqzut-fill" stroke="none" fill="#e0cb15"><g><text style="font: bold 30px Roboto, sans-serif; white-space: pre;" font-weight="bold" font-size="30px" font-family="Roboto, sans-serif"><tspan x="13.39" y="46" dominant-baseline="ideographic">3</tspan></text></g></g></g><g id="g-root-tx_4_3zst61bhqzuv-fill" data-item-order="0" transform="translate(394, 333)"><g id="tx_4_3zst61bhqzuv-fill" stroke="none" fill="#de8431"><g><text style="font: bold 30px Roboto, sans-serif; white-space: pre;" font-weight="bold" font-size="30px" font-family="Roboto, sans-serif"><tspan x="13.39" y="46" dominant-baseline="ideographic">4</tspan></text></g></g></g><g id="g-root-tx_rearural_qs5rq21bhqyv6-fill" data-item-order="0" transform="translate(28, 357)"><g id="tx_rearural_qs5rq21bhqyv6-fill" stroke="none" fill="#e0cb15"><g><text style="font: bold 20px Roboto, sans-serif; white-space: pre;" font-weight="bold" font-size="20px" font-family="Roboto, sans-serif"><tspan x="37.92" y="34" dominant-baseline="ideographic">Área Rural com </tspan><tspan x="52.03" y="58" dominant-baseline="ideographic">Infraestrutura </tspan><tspan x="97.83" y="82" dominant-baseline="ideographic">Limitada</tspan></text></g></g></g><g id="g-root-tx_comunida_1ltncey1bhr18o-fill" data-item-order="0" transform="translate(496, 357)"><g id="tx_comunida_1ltncey1bhr18o-fill" stroke="none" fill="#de8431"><g><text style="font: bold 20px Roboto, sans-serif; white-space: pre;" font-weight="bold" font-size="20px" font-family="Roboto, sans-serif"><tspan x="12" y="34" dominant-baseline="ideographic">Comunidade </tspan><tspan x="12" y="58" dominant-baseline="ideographic">Industrializada </tspan><tspan x="12" y="82" dominant-baseline="ideographic">em Crescimento</tspan></text></g></g></g><g id="g-root-tx_carecede_dgp9cq1bhr0g3-fill" data-item-order="0" transform="translate(28, 441)"><g id="tx_carecede_dgp9cq1bhr0g3-fill" stroke="none" fill="#484848"><g><text style="font: 15px Roboto, sans-serif; white-space: pre;" font-size="15px" font-family="Roboto, sans-serif"><tspan x="12.39" y="31" dominant-baseline="ideographic">Carece de infraestrutura, </tspan><tspan x="31.3" y="49" dominant-baseline="ideographic">limitando atratividade </tspan><tspan x="57.78" y="67" dominant-baseline="ideographic">para investidores.</tspan></text></g></g></g><g id="g-root-tx_atratrab_18itb4q1bhqznt-fill" data-item-order="0" transform="translate(496, 441)"><g id="tx_atratrab_18itb4q1bhqznt-fill" stroke="none" fill="#484848"><g><text style="font: 15px Roboto, sans-serif; white-space: pre;" font-size="15px" font-family="Roboto, sans-serif"><tspan x="12" y="31" dominant-baseline="ideographic">Atraí trabalhadores </tspan><tspan x="12" y="49" dominant-baseline="ideographic">industriais, mas carece </tspan><tspan x="12" y="67" dominant-baseline="ideographic">de infraestrutura.</tspan></text></g></g></g><g id="g-root-tf_1uua5cq1bhqzuw-stroke" data-item-order="-415296" transform="translate(-9, -9)"></g><g id="g-root-0.g-0_fr_v48fbu1bhr021-stroke" data-item-order="-322549" transform="translate(15, 87)"><g id="0.g-0_fr_v48fbu1bhr021-stroke" fill="none" stroke-linecap="round" stroke-linejoin="round" stroke-miterlimit="4" stroke="#808080" stroke-width="2"><g><path d="M 347 10L 347 118M 347 334L 347 442M 683 226L 455 226M 239 226L 10 226"></path></g></g></g><g id="g-root-4.g-4_fr_qoex7e1bhr0ub-stroke" data-item-order="-322538" transform="translate(349.6929931640625, 287.328125)"><g id="4.g-4_fr_qoex7e1bhr0ub-stroke" fill="none" stroke-linecap="round" stroke-linejoin="round" stroke-miterlimit="4" stroke="#de8431" stroke-width="2"><g><path d="M 10 116.5261C 21.424 128.3327 37.4359 135.6727 55.1621 135.6727C 89.8657 135.6727 117.9985 107.5399 117.9985 72.8364C 117.9985 38.1328 89.8657 10 55.1621 10C 38.1012 9.999999 22.6284 16.7994 11.3056 27.8362C 22.2469 39.1439 28.9798 54.5486 28.9798 71.5259C 28.9798 89.1686 21.7089 105.113 10 116.5261ZM 66.306641 115.671875C 66.306641 112.358175 63.620341 109.671875 60.306641 109.671875C 56.992941 109.671875 54.306641 112.358175 54.306641 115.671875C 54.306641 118.985575 56.992941 121.671875 60.306641 121.671875C 63.620341 121.671875 66.306641 118.985575 66.306641 115.671875ZM 62.306641 121.171875L 72.306641 151.671875L 144.306641 151.671875"></path></g></g></g><g id="g-root-3.g-3_fr_ddkvx61bhqz9h-stroke" data-item-order="-322532" transform="translate(208, 303.69287109375)"><g id="3.g-3_fr_ddkvx61bhqz9h-stroke" fill="none" stroke-linecap="round" stroke-linejoin="round" stroke-miterlimit="4" stroke="#e0cb15" stroke-width="2"><g><path d="M 64.1452 10C 75.5583 21.7086 91.5025 28.9794 109.145 28.9794C 126.123 28.9794 141.5283 22.2459 152.8361 11.3038C 163.8732 22.6267 170.6727 38.0997 170.6727 55.1608C 170.6727 89.8644 142.5399 117.9972 107.8364 117.9972C 73.1328 117.9972 45 89.8644 45 55.1608C 45 37.4352 52.3395 21.4239 64.1452 10ZM 88 99.306641C 88 95.992941 90.6863 93.306641 94 93.306641C 97.3137 93.306641 100 95.992941 100 99.306641C 100 102.620341 97.3137 105.306641 94 105.306641C 90.6863 105.306641 88 102.620341 88 99.306641ZM 92 104.806641L 82 135.306641L 10 135.306641"></path></g></g></g><g id="g-root-2.g-2_fr_4hxvoa1bhr027-stroke" data-item-order="-322526" transform="translate(333.3270263671875, 177)"><g id="2.g-2_fr_4hxvoa1bhr027-stroke" fill="none" stroke-linecap="round" stroke-linejoin="round" stroke-miterlimit="4" stroke="#3cc583" stroke-width="2"><g><path d="M 116.5272 139.306094C 128.3331 127.882194 135.6727 111.870694 135.6727 94.144994C 135.6727 59.441394 107.5399 31.308594 72.8364 31.308594C 38.1328 31.308594 10 59.441394 10 94.144994C 10 111.205794 16.7993 126.678594 27.8361 138.001394C 39.1439 127.059494 54.5491 120.326194 71.5269 120.326194C 89.1696 120.326194 105.1141 127.597194 116.5272 139.306094ZM 82.672852 46C 82.672852 49.3137 79.986552 52 76.672852 52C 73.359152 52 70.672852 49.3137 70.672852 46C 70.672852 42.6863 73.359152 40 76.672852 40C 79.986552 40 82.672852 42.6863 82.672852 46ZM 78.672852 40.5L 88.672852 10L 160.672852 10"></path></g></g></g><g id="g-root-1.g-1_fr_24dju1bhr0uh-stroke" data-item-order="-322520" transform="translate(208, 177)"><g id="1.g-1_fr_24dju1bhr0uh-stroke" fill="none" stroke-linecap="round" stroke-linejoin="round" stroke-miterlimit="4" stroke="#92bd39" stroke-width="2"><g><path d="M 46.308594 92.8364C 46.308594 127.5399 74.441394 155.6727 109.144994 155.6727C 126.206294 155.6727 141.679494 148.873 153.002294 137.8357C 142.060494 126.5279 135.327194 111.1228 135.327194 94.145C 135.327194 76.5027 142.597794 60.5587 154.306094 49.1456C 142.882194 37.3396 126.870694 30 109.144994 30C 74.441394 30 46.308594 58.1328 46.308594 92.8364ZM 88 46C 88 49.3137 90.6863 52 94 52C 97.3137 52 100 49.3137 100 46C 100 42.6863 97.3137 40 94 40C 90.6863 40 88 42.6863 88 46ZM 92 40.5L 82 10L 10 10"></path></g></g></g><g id="g-root-tx_avaliand_1hckw4a1bhqzur-stroke" data-item-order="0" transform="translate(82, 39)"></g><g id="g-root-tx_desenvol_mdl7ru1bhr11q-stroke" data-item-order="0" transform="translate(28, 93)"></g><g id="g-root-tx_desenvol_1lviroa1bhr090-stroke" data-item-order="0" transform="translate(496, 93)"></g><g id="g-root-tx_oferecee_92r6hm1bhqzgv-stroke" data-item-order="0" transform="translate(28, 201)"></g><g id="g-root-tx_integrai_18k29ay1bhr1tx-stroke" data-item-order="0" transform="translate(496, 201)"></g><g id="g-root-tx_1_1414dqy1bhr1fo-stroke" data-item-order="0" transform="translate(286, 237)"></g><g id="g-root-tx_2_detu3e1bhr1fq-stroke" data-item-order="0" transform="translate(394, 237)"></g><g id="g-root-tx_3_qqacgq1bhqzut-stroke" data-item-order="0" transform="translate(286, 333)"></g><g id="g-root-tx_4_3zst61bhqzuv-stroke" data-item-order="0" transform="translate(394, 333)"></g><g id="g-root-tx_rearural_qs5rq21bhqyv6-stroke" data-item-order="0" transform="translate(28, 357)"></g><g id="g-root-tx_comunida_1ltncey1bhr18o-stroke" data-item-order="0" transform="translate(496, 357)"></g><g id="g-root-tx_carecede_dgp9cq1bhr0g3-stroke" data-item-order="0" transform="translate(28, 441)"></g><g id="g-root-tx_atratrab_18itb4q1bhqznt-stroke" data-item-order="0" transform="translate(496, 441)"></g></g></g></svg>