<?xml version="1.0" encoding="utf-8" standalone="yes"?>
<!DOCTYPE svg PUBLIC "-//W3C//DTD SVG 1.1//EN" "http://www.w3.org/Graphics/SVG/1.1/DTD/svg11.dtd">
<svg width="700" height="676" viewBox="0 0 700 676" style="fill:none;stroke:none;fill-rule:evenodd;clip-rule:evenodd;stroke-linecap:round;stroke-linejoin:round;stroke-miterlimit:1.5;" version="1.1" xmlns="http://www.w3.org/2000/svg" xmlns:xlink="http://www.w3.org/1999/xlink"><style class="text-font-style fontImports" data-font-family="Shantell Sans">@import url('https://fonts.googleapis.com/css2?family=Shantell+Sans:wght@300..800&amp;display=block');</style><rect id="" x="0" y="0" width="700" height="676" style="fill: #ffffff;"></rect><g id="items" style="isolation: isolate"><g id="blend" style="mix-blend-mode: normal"><g id="g-root-tf_1d1rmi21a3djwh-fill" data-item-order="-467712" transform="translate(-8, -8)"><g id="tf_1d1rmi21a3djwh-fill" stroke="none" fill="#ffffff"><g><path d="M 10 10L 706 10L 706 682L 10 682Z"></path></g></g></g><g id="g-root--1.Vector_sy_qn65d61a3vvuy-fill" data-item-order="-35419" transform="translate(208, 196)"></g><g id="g-root--1.line_sy_qn65d61a3vvuz-fill" data-item-order="-35415" transform="translate(208, 580)"></g><g id="g-root-5.cr-big_cr_m7z4bu1a3vthg-fill" data-item-order="-35412" transform="translate(172, 508)"><g id="5.cr-big_cr_m7z4bu1a3vthg-fill" stroke="none" fill="#ffffff"><g><path d="M 10 46C 10 65.882251 26.117749 82 46 82C 65.882251 82 82 65.882251 82 46C 82 26.117749 65.882251 10 46 10C 26.117749 10 10 26.117749 10 46"></path></g></g></g><g id="g-root-4.cr-big_cr_dcc42y1a3vua5-fill" data-item-order="-35408" transform="translate(172, 412)"><g id="4.cr-big_cr_dcc42y1a3vua5-fill" stroke="none" fill="#ffffff"><g><path d="M 10 46C 10 65.882251 26.117749 82 46 82C 65.882251 82 82 65.882251 82 46C 82 26.117749 65.882251 10 46 10C 26.117749 10 10 26.117749 10 46"></path></g></g></g><g id="g-root-3.cr-big_cr_8wilyi1a3vv2e-fill" data-item-order="-35404" transform="translate(172, 316)"><g id="3.cr-big_cr_8wilyi1a3vv2e-fill" stroke="none" fill="#ffffff"><g><path d="M 10 46C 10 65.882251 26.117749 82 46 82C 65.882251 82 82 65.882251 82 46C 82 26.117749 65.882251 10 46 10C 26.117749 10 10 26.117749 10 46"></path></g></g></g><g id="g-root-2.cr-big_cr_vlpm1a3vvv3-fill" data-item-order="-35400" transform="translate(172, 220)"><g id="2.cr-big_cr_vlpm1a3vvv3-fill" stroke="none" fill="#ffffff"><g><path d="M 10 46C 10 65.882251 26.117749 82 46 82C 65.882251 82 82 65.882251 82 46C 82 26.117749 65.882251 10 46 10C 26.117749 10 10 26.117749 10 46"></path></g></g></g><g id="g-root-1.cr-big_cr_1umsmne1a3vtag-fill" data-item-order="-35396" transform="translate(172, 124)"><g id="1.cr-big_cr_1umsmne1a3vtag-fill" stroke="none" fill="#ffffff"><g><path d="M 10 46C 10 65.882251 26.117749 82 46 82C 65.882251 82 82 65.882251 82 46C 82 26.117749 65.882251 10 46 10C 26.117749 10 10 26.117749 10 46"></path></g></g></g><g id="g-root-tx_censo202_1uo1ktm1a3vvgm-fill" data-item-order="0" transform="translate(268, 124)"><g id="tx_censo202_1uo1ktm1a3vvgm-fill" stroke="none" fill="#484848"><g><text style="font: 20px &quot;Shantell Sans&quot;, cursive; white-space: pre;" font-size="20px" font-family="'Shantell Sans', cursive"><tspan x="12" y="35" dominant-baseline="ideographic">Censo 2022 revela um crescimento </tspan><tspan x="12" y="59" dominant-baseline="ideographic">populacional significativo em São José </tspan><tspan x="12" y="83" dominant-baseline="ideographic">dos Pinhais</tspan></text></g></g></g><g id="g-root-tx_2022_4mg8a1a3vtvv-fill" data-item-order="0" transform="translate(100, 148)"><g id="tx_2022_4mg8a1a3vtvv-fill" stroke="none" fill="#484848"><g><text style="font: bold 20px &quot;Shantell Sans&quot;, cursive; white-space: pre;" font-weight="bold" font-size="20px" font-family="'Shantell Sans', cursive"><tspan x="13.38" y="35" dominant-baseline="ideographic">2022</tspan></text></g></g></g><g id="g-root-head_1414qei1a3x98n-fill" data-item-order="0" transform="translate(184, 136)"></g><g id="g-root-tx_2024_dfghii1a3vvgq-fill" data-item-order="0" transform="translate(100, 244)"><g id="tx_2024_dfghii1a3vvgq-fill" stroke="none" fill="#484848"><g><text style="font: bold 20px &quot;Shantell Sans&quot;, cursive; white-space: pre;" font-weight="bold" font-size="20px" font-family="'Shantell Sans', cursive"><tspan x="13.94" y="35" dominant-baseline="ideographic">2024</tspan></text></g></g></g><g id="g-root-top_18kp31m1a3rmki-fill" data-item-order="0" transform="translate(184, 232)"></g><g id="g-root-tx_investim_2r0yy1a3vuvh-fill" data-item-order="0" transform="translate(268, 232)"><g id="tx_investim_2r0yy1a3vuvh-fill" stroke="none" fill="#484848"><g><text style="font: 20px &quot;Shantell Sans&quot;, cursive; white-space: pre;" font-size="20px" font-family="'Shantell Sans', cursive"><tspan x="12" y="35" dominant-baseline="ideographic">Investimento no Terminal </tspan><tspan x="12" y="59" dominant-baseline="ideographic">Metropolitano Afonso Pena</tspan></text></g></g></g><g id="g-root-tx_2024_qqwzvu1a3vtvt-fill" data-item-order="0" transform="translate(100, 340)"><g id="tx_2024_qqwzvu1a3vtvt-fill" stroke="none" fill="#484848"><g><text style="font: bold 20px &quot;Shantell Sans&quot;, cursive; white-space: pre;" font-weight="bold" font-size="20px" font-family="'Shantell Sans', cursive"><tspan x="13.94" y="35" dominant-baseline="ideographic">2024</tspan></text></g></g></g><g id="g-root-1_v7zjca1a3t1xi-fill" data-item-order="0" transform="translate(184, 328)"></g><g id="g-root-tx_inciodop_m982i21a3vvno-fill" data-item-order="0" transform="translate(268, 328)"><g id="tx_inciodop_m982i21a3vvno-fill" stroke="none" fill="#484848"><g><text style="font: 20px &quot;Shantell Sans&quot;, cursive; white-space: pre;" font-size="20px" font-family="'Shantell Sans', cursive"><tspan x="12" y="35" dominant-baseline="ideographic">Início do projeto de pavimentação SJP–</tspan><tspan x="12" y="59" dominant-baseline="ideographic">Mandirituba</tspan></text></g></g></g><g id="g-root-tx_retomada_140i2zu1a3vtai-fill" data-item-order="0" transform="translate(268, 520)"><g id="tx_retomada_140i2zu1a3vtai-fill" stroke="none" fill="#484848"><g><text style="font: 20px &quot;Shantell Sans&quot;, cursive; white-space: pre;" font-size="20px" font-family="'Shantell Sans', cursive"><tspan x="12" y="35" dominant-baseline="ideographic">Retomada do MCMV com novos </tspan><tspan x="12" y="59" dominant-baseline="ideographic">subsídios</tspan></text></g></g></g><g id="g-root-tx_2024_zmk04q1a3vt34-fill" data-item-order="0" transform="translate(100, 436)"><g id="tx_2024_zmk04q1a3vt34-fill" stroke="none" fill="#484848"><g><text style="font: bold 20px &quot;Shantell Sans&quot;, cursive; white-space: pre;" font-weight="bold" font-size="20px" font-family="'Shantell Sans', cursive"><tspan x="13.94" y="35" dominant-baseline="ideographic">2024</tspan></text></g></g></g><g id="g-root-fish_141r4bu1a3rnyg-fill" data-item-order="0" transform="translate(184, 424)"></g><g id="g-root-tx_expansod_qp1kmi1a3vuvf-fill" data-item-order="0" transform="translate(268, 436)"><g id="tx_expansod_qp1kmi1a3vuvf-fill" stroke="none" fill="#484848"><g><text style="font: 20px &quot;Shantell Sans&quot;, cursive; white-space: pre;" font-size="20px" font-family="'Shantell Sans', cursive"><tspan x="12" y="35" dominant-baseline="ideographic">Expansão da Barragem do Miringuava</tspan></text></g></g></g><g id="g-root-tx_2024_1hd7jje1a3vtvr-fill" data-item-order="0" transform="translate(100, 532)"><g id="tx_2024_1hd7jje1a3vtvr-fill" stroke="none" fill="#484848"><g><text style="font: bold 20px &quot;Shantell Sans&quot;, cursive; white-space: pre;" font-weight="bold" font-size="20px" font-family="'Shantell Sans', cursive"><tspan x="13.94" y="35" dominant-baseline="ideographic">2024</tspan></text></g></g></g><g id="g-root-incr_1upx02y1a3vuh0-fill" data-item-order="0" transform="translate(184, 520)"></g><g id="g-root-tx_principa_1q6z4iy1a3vu2p-fill" data-item-order="0" transform="translate(16, 28)"><g id="tx_principa_1q6z4iy1a3vu2p-fill" stroke="none" fill="#484848"><g><text style="font: bold 25px &quot;Shantell Sans&quot;, cursive; white-space: pre;" font-weight="bold" font-size="25px" font-family="'Shantell Sans', cursive"><tspan x="11.84" y="42" dominant-baseline="ideographic">Principais Desenvolvimentos no Crescimento </tspan><tspan x="28.91" y="72" dominant-baseline="ideographic">e Infraestrutura de São José dos Pinhais</tspan></text></g></g></g><g id="g-root-tf_1d1rmi21a3djwh-stroke" data-item-order="-467712" transform="translate(-8, -8)"></g><g id="g-root--1.Vector_sy_qn65d61a3vvuy-stroke" data-item-order="-35419" transform="translate(208, 196)"><g id="-1.Vector_sy_qn65d61a3vvuy-stroke" fill="none" stroke-linecap="round" stroke-linejoin="round" stroke-miterlimit="4" stroke="#484848" stroke-width="2"><g><path d="M 10 322C 8.9 314.1 9.7 306 10 298M 10 226C 9.2 218 10.6 210 10 202M 10 130C 9 122.1 10.5 114 10 106M 10 34C 9 26.1 9 17.9 10 10"></path><path d="M 10 322L 10 298M 10 226L 10 202M 10 130L 10 106M 10 34L 10 10"></path></g></g></g><g id="g-root--1.line_sy_qn65d61a3vvuz-stroke" data-item-order="-35415" transform="translate(208, 580)"><g id="-1.line_sy_qn65d61a3vvuz-stroke" fill="none" stroke-linecap="round" stroke-linejoin="round" stroke-miterlimit="4" stroke="#484848" stroke-width="2"><g><path d="M 10 44C 11.5 32.8 10 21.3 10 10"></path><path d="M 10 44L 10 10"></path><path d="M 3.5 38C 4.8 40.8 7.8 42.3 10 44.5C 11.6 41.9 14 39.7 16.5 38" stroke-dasharray="none"></path><path d="M 3.5 38L 10 44.5L 16.5 38" stroke-dasharray="none"></path></g></g></g><g id="g-root-5.cr-big_cr_m7z4bu1a3vthg-stroke" data-item-order="-35412" transform="translate(172, 508)"><g id="5.cr-big_cr_m7z4bu1a3vthg-stroke" fill="none" stroke-linecap="round" stroke-linejoin="round" stroke-miterlimit="4" stroke="#484848" stroke-width="4"><g><path d="M 10 46C 12 65.8 26.2 80.7 46 82C 65.8 83.3 82.6 65.9 82 46C 81.4 26.1 65.9 10.2 46 10C 36.2 9.9 27.5 14 20.9 20.2C 14.1 26.6 11.7 36 10 46"></path><path d="M 10 46C 10 65.882251 26.117749 82 46 82C 65.882251 82 82 65.882251 82 46C 82 26.117749 65.882251 10 46 10C 26.117749 10 10 26.117749 10 46"></path></g></g></g><g id="g-root-4.cr-big_cr_dcc42y1a3vua5-stroke" data-item-order="-35408" transform="translate(172, 412)"><g id="4.cr-big_cr_dcc42y1a3vua5-stroke" fill="none" stroke-linecap="round" stroke-linejoin="round" stroke-miterlimit="4" stroke="#484848" stroke-width="4"><g><path d="M 10 46C 11.1 65.8 26.1 81.1 46 82C 65.9 82.9 81.9 65.9 82 46C 82.1 26.1 65.9 9.6 46 10C 26.1 10.4 9.7 26.1 10 46"></path><path d="M 10 46C 10 65.882251 26.117749 82 46 82C 65.882251 82 82 65.882251 82 46C 82 26.117749 65.882251 10 46 10C 26.117749 10 10 26.117749 10 46"></path></g></g></g><g id="g-root-3.cr-big_cr_8wilyi1a3vv2e-stroke" data-item-order="-35404" transform="translate(172, 316)"><g id="3.cr-big_cr_8wilyi1a3vv2e-stroke" fill="none" stroke-linecap="round" stroke-linejoin="round" stroke-miterlimit="4" stroke="#484848" stroke-width="4"><g><path d="M 10 46C 10.2 65.9 26.2 83.3 46 82C 65.8 80.7 80.9 65.8 82 46C 83.1 26.1 65.8 8.5 46 10C 26.2 11.5 10.4 26.1 10 46"></path><path d="M 10 46C 10 65.882251 26.117749 82 46 82C 65.882251 82 82 65.882251 82 46C 82 26.117749 65.882251 10 46 10C 26.117749 10 10 26.117749 10 46"></path></g></g></g><g id="g-root-2.cr-big_cr_vlpm1a3vvv3-stroke" data-item-order="-35400" transform="translate(172, 220)"><g id="2.cr-big_cr_vlpm1a3vvv3-stroke" fill="none" stroke-linecap="round" stroke-linejoin="round" stroke-miterlimit="4" stroke="#484848" stroke-width="4"><g><path d="M 10 46C 10.5 65.9 26.1 81.5 46 82C 65.9 82.5 83 65.8 82 46C 81 26.1 65.8 8.5 46 10C 26.2 11.5 11.1 26.1 10 46"></path><path d="M 10 46C 10 65.882251 26.117749 82 46 82C 65.882251 82 82 65.882251 82 46C 82 26.117749 65.882251 10 46 10C 26.117749 10 10 26.117749 10 46"></path></g></g></g><g id="g-root-1.cr-big_cr_1umsmne1a3vtag-stroke" data-item-order="-35396" transform="translate(172, 124)"><g id="1.cr-big_cr_1umsmne1a3vtag-stroke" fill="none" stroke-linecap="round" stroke-linejoin="round" stroke-miterlimit="4" stroke="#484848" stroke-width="4"><g><path d="M 10 46C 8.9 65.8 26.2 80.2 46 82C 65.8 83.8 83.7 65.8 82 46C 80.3 26.2 65.8 11.3 46 10C 26.2 8.7 10.3 26.1 10 46"></path><path d="M 10 46C 10 65.882251 26.117749 82 46 82C 65.882251 82 82 65.882251 82 46C 82 26.117749 65.882251 10 46 10C 26.117749 10 10 26.117749 10 46"></path></g></g></g><g id="g-root-tx_censo202_1uo1ktm1a3vvgm-stroke" data-item-order="0" transform="translate(268, 124)"></g><g id="g-root-tx_2022_4mg8a1a3vtvv-stroke" data-item-order="0" transform="translate(100, 148)"></g><g id="g-root-head_1414qei1a3x98n-stroke" data-item-order="0" transform="translate(184, 136)"><g id="head_1414qei1a3x98n-stroke" fill="none" stroke-linecap="round" stroke-linejoin="round" stroke-miterlimit="4" stroke="#484848" stroke-width="2"><g><path d="M 34 23.6C 37.200001 23.799999 41 20.6 40 17.6C 39 14.4 37.200001 12 34 11.6C 30.799999 11 27.6 14.2 28 17.6C 28.4 20.799999 30.6 23.6 34 23.6M 23 56.599998C 23.6 50.599998 28 45.599998 34 45.599998C 40 45.400002 44.799999 50.599998 45 56.599998M 26.200001 35C 26.6 35.799999 26.799999 37 27.4 37.400002C 28.799999 38.799999 29.200001 41.200001 27.799999 42.799999C 25.799999 43.599998 24.200001 43.400002 22.200001 42.799999C 19.4 41 19 36.599998 19.4 33.200001C 20.799999 27.6 26.200001 22.799999 34 23.6C 41.799999 24.200001 48.599998 27.4 48.599998 33.200001C 50.400002 36.200001 48.400002 40.799999 45.799999 42.799999C 44 43.799999 41.599998 44.400002 40.200001 42.799999C 38.799999 41.400002 38.799999 38.200001 40.599998 37.400002C 41 37 41.599998 35.799999 41.799999 35M 28.4 42C 28.799999 44.200001 31.4 45 34 45.400002C 36.599998 45.799999 39 44.200001 39.599998 42M 39.799999 38.400002C 38.799999 35.799999 36.599998 34.799999 34 33.799999C 31.4 32.599998 27.799999 35.599998 28.200001 38.400002"></path><path d="M 34 23.5C 37.313801 23.5 40 20.8137 40 17.5C 40 14.1863 37.313801 11.5 34 11.5C 30.686199 11.5 28 14.1863 28 17.5C 28 20.8137 30.686199 23.5 34 23.5ZM 23 56.5C 23 50.5 28 45.5 34 45.5C 40 45.5 45 50.5 45 56.5M 26.25 35.062401C 26.25 35.875 26.975019 36.887398 27.400021 37.299999C 29.000019 38.700001 29.400021 41.5 27.80002 42.700001C 26.20002 44.099998 23.80002 44.099998 22.20002 42.700001C 19.80002 40.5 18.20002 36.5 19.400021 33.099998C 21.20002 27.69998 26.20002 23.5 34 23.5C 41.799999 23.5 46.799999 27.69998 48.599998 33.099998C 49.799999 36.5 48.200001 40.5 45.799999 42.700001C 44.200001 44.099998 41.799999 44.099998 40.200001 42.700001C 38.599998 41.5 39 38.700001 40.599998 37.299999C 41.025002 36.887398 41.75 35.875 41.75 35.062401M 28.453119 41.953201C 29.44504 44.1134 31.428801 45.487999 34.007797 45.487999C 36.5868 45.487999 38.570602 44.1134 39.562599 41.953201M 39.7812 38.299999C 39.183201 35.700001 36.791 33.700001 34 33.700001C 31.209 33.700001 28.81682 35.700001 28.21876 38.299999"></path></g></g></g><g id="g-root-tx_2024_dfghii1a3vvgq-stroke" data-item-order="0" transform="translate(100, 244)"></g><g id="g-root-top_18kp31m1a3rmki-stroke" data-item-order="0" transform="translate(184, 232)"><g id="top_18kp31m1a3rmki-stroke" fill="none" stroke-linecap="round" stroke-linejoin="round" stroke-miterlimit="4" stroke="#484848" stroke-width="2"><g><path d="M 37 20.4C 36.200001 19.4 35.200001 19.200001 34 19C 32.799999 18.799999 31.799999 19.4 31 20.4M 27.4 51.400002C 27.200001 53.200001 27.799999 55.200001 28 57M 40 57C 40.400002 55.200001 41 53.200001 40.599998 51.400002M 34 19C 33 16.6 33.200001 13.6 34 11M 34 57C 33.400002 49.400002 36 41.400002 34 34M 21.200001 57C 28.799999 51 35.799999 42.400002 34 33C 33 27.4 32.400002 21.6 29.200001 17C 28.200001 17.200001 27 17 26 17C 25.6 19.799999 26 22.799999 27.200001 25.4C 31.799999 35.200001 22.6 49 12 49M 46.799999 57C 34.599998 46.599998 32.200001 31.4 38.799999 17C 39.799999 16.799999 41 17 42 17C 40.599998 19.4 40.400002 22.6 40.799999 25.4C 42.200001 36 46 45.200001 56 49"></path><path d="M 36.950001 20.318001C 36.199108 19.477913 35.125755 18.997681 33.999001 18.997681C 32.872242 18.997681 31.798891 19.477913 31.048 20.318001M 27.382 51.419998L 28.002001 57M 39.998001 57L 40.618 51.422001M 34 18.986L 34 11M 34 56.987999L 34 33.993999M 21.279999 56.987999C 29.23819 51.598442 34.003674 42.611458 34 33C 34.003525 27.304049 32.315514 21.735336 29.15 17L 26 17L 27.26 25.496C 28.827129 36.073776 22.292221 46.169056 12 49.07M 46.720001 56.987999C 33.55574 48.084763 30.041311 30.227718 38.850002 17L 42 17L 40.739998 25.496C 39.172874 36.073776 45.707779 46.169056 56 49.07"></path></g></g></g><g id="g-root-tx_investim_2r0yy1a3vuvh-stroke" data-item-order="0" transform="translate(268, 232)"></g><g id="g-root-tx_2024_qqwzvu1a3vtvt-stroke" data-item-order="0" transform="translate(100, 340)"></g><g id="g-root-1_v7zjca1a3t1xi-stroke" data-item-order="0" transform="translate(184, 328)"><g id="1_v7zjca1a3t1xi-stroke" fill="none" stroke-linecap="round" stroke-linejoin="round" stroke-miterlimit="4" stroke="#484848" stroke-width="2"><g><path d="M 55.599998 35.400002C 50.400002 43.400002 42.400002 49 35.400002 55.599998C 35.400002 55.599998 34.400002 56.599998 32.599998 55.599998C 24.200001 51 19.6 41.599998 12.4 35.400002C 12.4 35.400002 11.6 34.400002 12.4 32.599998C 16 23.799999 27.4 20.4 32.599998 12.4C 32.599998 12.4 33.599998 11.4 35.400002 12.4C 43.799999 17 48.799999 25.799999 55.599998 32.599998C 55.599998 32.599998 57.400002 34.599998 55.599998 35.400002M 35 30C 35.200001 28.4 34.799999 26.6 35 25C 34.400002 25.200001 33.599998 25.200001 33 25C 34 23.799999 35.400002 23 36.200001 21.799999C 36.400002 21.4 36.799999 21.4 37 21.4C 37.200001 21.4 37.599998 21.6 37.799999 21.799999C 39 22.6 39.599998 24.200001 41 25C 40.400002 25 39.599998 24.799999 39 25C 39.400002 27.200001 39.599998 29.4 39 31.6C 39 31.799999 38.799999 32.200001 38.599998 32.400002C 35.799999 33.200001 34.200001 36.599998 31.4 37.799999C 31.200001 37.799999 31 38.200001 31 38.599998C 30.6 40.200001 31.4 42.200001 31 44C 30.799999 44.599998 30.6 44.799999 30 45C 29.4 45.200001 28.6 45.200001 28 45C 27.4 44.799999 27 44.599998 27 44C 27.4 41.400002 26.4 38.599998 27 36C 29 33.400002 33 32.599998 35 30M 25 29C 25 29.4 25.200001 29.799999 25.6 29.799999C 25.799999 30 26.200001 30 26.6 29.799999C 27.4 29.4 28 29 28.6 28.4C 28.799999 28 29 27.799999 29 27.6C 29 27 29 26.6 29 26C 29 25.4 28.6 25.200001 28 25C 27.4 24.799999 26.6 25 26 25C 25.4 25 25 25.4 25 26C 25 27 25.200001 28 25 29M 37 44C 37.200001 44.599998 37.400002 44.799999 38 45C 38.599998 45.200001 39.400002 44.799999 40 45C 40.599998 45.200001 41.200001 44.599998 41 44C 40.400002 42.400002 41.200001 40.599998 41 39C 41 38.599998 40.799999 38.200001 40.400002 38.200001C 40.200001 38 39.599998 37.799999 39.400002 38.200001C 39 38.799999 38 39.200001 37.400002 39.799999C 37.200001 39.799999 37 40.200001 37 40.599998C 36.599998 41.599998 37.200001 42.799999 37 44"></path><path d="M 55.587433 35.414215L 35.416504 55.58514C 35.416504 55.58514 34.002289 56.999355 32.588074 55.58514L 12.417149 35.414215C 12.417149 35.414215 11.002934 34 12.417149 32.585785L 32.588074 12.414858C 32.588074 12.414858 34.002289 11.000644 35.416504 12.414858L 55.587433 32.585785C 55.587433 32.585785 57.001644 34 55.587433 35.414215M 35 30L 35 25L 33 25L 36.292 21.708C 36.479607 21.519917 36.734344 21.414211 37 21.414211C 37.265656 21.414211 37.520393 21.519917 37.708 21.708L 41 25L 39 25L 39 31.5C 39 31.814756 38.851807 32.111145 38.599998 32.299999L 31.4 37.700001C 31.148193 37.888855 31 38.185242 31 38.5L 31 44C 31 44.552284 30.552284 45 30 45L 28 45C 27.447716 45 27 44.552284 27 44L 27 36ZM 25 29C 25 29.378773 25.214003 29.725035 25.552788 29.894426C 25.891571 30.06382 26.296982 30.027264 26.6 29.799999L 28.6 28.299999C 28.851807 28.111145 29 27.814756 29 27.5L 29 26C 29 25.447716 28.552284 25 28 25L 26 25C 25.447716 25 25 25.447716 25 26ZM 37 44C 37 44.552284 37.447716 45 38 45L 40 45C 40.552284 45 41 44.552284 41 44L 41 39C 41 38.621227 40.785995 38.274963 40.447212 38.105576C 40.108429 37.93618 39.703018 37.972736 39.400002 38.200001L 37.400002 39.700001C 37.148193 39.888855 37 40.185242 37 40.5Z"></path></g></g></g><g id="g-root-tx_inciodop_m982i21a3vvno-stroke" data-item-order="0" transform="translate(268, 328)"></g><g id="g-root-tx_retomada_140i2zu1a3vtai-stroke" data-item-order="0" transform="translate(268, 520)"></g><g id="g-root-tx_2024_zmk04q1a3vt34-stroke" data-item-order="0" transform="translate(100, 436)"></g><g id="g-root-fish_141r4bu1a3rnyg-stroke" data-item-order="0" transform="translate(184, 424)"><g id="fish_141r4bu1a3rnyg-stroke" fill="none" stroke-linecap="round" stroke-linejoin="round" stroke-miterlimit="4" stroke="#484848" stroke-width="2"><g><path d="M 57 56.799999C 52.200001 58.799999 48.799999 52.799999 48.799999 52.799999C 47.799999 55.599998 44.599998 57 41.599998 57C 38.799999 57.599998 36.400002 54.799999 34.400002 52.799999C 33.599998 55.599998 30 56.400002 27.200001 57C 24.4 57.799999 20.6 55.599998 20 52.799999C 20 52.799999 15.4 59.200001 11 56.799999M 25 39C 35.400002 41 46.599998 41.400002 57 39M 29 39C 29.799999 43.599998 27.6 48.599998 29 53M 37 39C 36 42.599998 37.599998 46.400002 37 50M 53 39C 53.200001 43.400002 53 47.599998 53 52M 45 39C 44.799999 43.400002 43.799999 47.799999 45 52M 41 39C 39.799999 35.200001 42.400002 30.799999 41 27C 39.799999 23.799999 43.799999 21.6 47 21C 50.200001 20.4 52 23.799999 53 27C 54.200001 30.799999 54.200001 35.200001 53 39M 47 21C 47 19.6 46.799999 18.4 47 17M 47 13C 47.400002 11.8 48.799999 11.6 50 11C 51.799999 11.6 52.200001 13.8 54 13C 55.200001 13.4 56.400002 12.2 57 11M 15 51C 15 38 15.2 25 15 12M 29 39C 25 29.6 17.4 21.799999 15 12C 20.6 22.200001 31 29 37 39"></path><path d="M 57 56.778C 51.990002 57.82 48.880001 52.82 48.880001 52.82L 48.880001 52.82C 47.305988 55.316681 44.586586 56.859577 41.636002 56.930004C 38.70747 56.78928 36.020721 55.263226 34.400002 52.82L 34.400002 52.82C 32.828304 55.317123 30.109749 56.860394 27.160002 56.930004C 24.22867 56.793388 21.538368 55.266579 19.917999 52.819996L 19.917999 52.82C 19.917999 52.82 15.918 57.902 11.008 56.860001M 25 39L 57 39M 29 39L 29 53M 37 39L 37 50M 53 39L 53 52M 45 39L 45 52M 41 39L 41 27C 41 23.686291 43.686291 21 47 21C 50.313709 21 53 23.686291 53 27L 53 39M 47 21L 47 17M 47 13C 47.585548 11.858235 48.720852 11.101366 50 11C 52 11 52 13 54 13C 55.279144 12.898634 56.414448 12.141765 57 11M 15 51L 15 12M 29 39L 15 12L 37 39"></path></g></g></g><g id="g-root-tx_expansod_qp1kmi1a3vuvf-stroke" data-item-order="0" transform="translate(268, 436)"></g><g id="g-root-tx_2024_1hd7jje1a3vtvr-stroke" data-item-order="0" transform="translate(100, 532)"></g><g id="g-root-incr_1upx02y1a3vuh0-stroke" data-item-order="0" transform="translate(184, 520)"><g id="incr_1upx02y1a3vuh0-stroke" fill="none" stroke-linecap="round" stroke-linejoin="round" stroke-miterlimit="4" stroke="#484848" stroke-width="2"><g><path d="M 15 45.400002C 14 49 14.2 53.200001 15 57C 19.4 55.200001 24.4 56.400002 29 57C 29.200001 53.200001 28.799999 49.200001 29 45.400002M 10 10M 11 49C 13.4 45.400002 17.200001 42.799999 20.6 40.200001C 21.4 39.599998 22.4 39.799999 23.4 40.200001C 27.200001 42.400002 29.200001 47 33 49M 25 11C 28.200001 11.8 31.799999 11.4 35 11C 35 14.4 35 17.6 35 21M 11 35C 16.200001 25 26.4 18.200001 35 11M 57 57C 48 59.200001 38.200001 57.799999 29 57M 31 40C 30 35.799999 29.799999 31.200001 31 27C 31.200001 26.4 31.4 26.200001 32 26C 34.599998 25.200001 37.400002 26.799999 40 26C 40.599998 25.799999 41.200001 26.4 41 27C 37.400002 36.400002 41.599998 47 41 57M 47 57C 47 42.599998 50.599998 27.799999 47 14C 46.799999 13.4 47.400002 12.8 48 13C 50.599998 13.8 53.400002 13.6 56 13C 56.599998 12.8 57 13.4 57 14C 56 28.200001 55 42.799999 57 57"></path><path d="M 15 45.360001L 15 57L 29 57L 29 45.360001M 10 10M 11 49L 20.66 40.220001C 21.421238 39.532963 22.578762 39.532963 23.34 40.220001L 33 49M 25 11L 35 11L 35 21M 11 35L 35 11M 57 57L 29 57M 31 40L 31 27C 31 26.447716 31.447716 26 32 26L 40 26C 40.552284 26 41 26.447716 41 27L 41 57M 47 57L 47 14C 47 13.447716 47.447716 13 48 13L 56 13C 56.552284 13 57 13.447716 57 14L 57 57"></path></g></g></g><g id="g-root-tx_principa_1q6z4iy1a3vu2p-stroke" data-item-order="0" transform="translate(16, 28)"></g></g></g></svg>