<?xml version="1.0" encoding="utf-8" standalone="yes"?>
<!DOCTYPE svg PUBLIC "-//W3C//DTD SVG 1.1//EN" "http://www.w3.org/Graphics/SVG/1.1/DTD/svg11.dtd">
<svg width="649" height="287" viewBox="0 0 649 287" style="fill:none;stroke:none;fill-rule:evenodd;clip-rule:evenodd;stroke-linecap:round;stroke-linejoin:round;stroke-miterlimit:1.5;" version="1.1" xmlns="http://www.w3.org/2000/svg" xmlns:xlink="http://www.w3.org/1999/xlink"><style id="fontImports">@import url("https://fonts.googleapis.com/css2?family=Roboto:wght@400;700&amp;display=block");</style><rect id="" x="0" y="0" width="648" height="286.16" style="fill: #ffffff;"></rect><g id="items" style="isolation: isolate"><g id="blend" style="mix-blend-mode:normal"><g id="g-root-2.Vector_sy_13zv1311b7vlz9-fill" data-item-order="999927668" data-item-id="2.Vector_sy_13zv1311b7vlz9" data-item-class="Part Indexed Fill Stroke" data-item-index="2" data-renderer-id="0" transform="translate(398.12103271484375, 3.002105712890625)"><g id="2.Vector_sy_13zv1311b7vlz9-fill" stroke="none" fill="#cedfff"><g><path d="M 28.925998 96.45L 9.999998 94.769L 13.167998 76.024L 17.553998 81.709L 38.170998 65.785L 38.310998 65.67C 36.236998 61.896 34.810998 57.683 34.198998 53.159C 31.536998 33.456 45.350998 15.325 65.053998 12.6625C 84.756998 10 102.887998 23.814 105.550998 43.517C 108.212998 63.221 94.398998 81.351 74.695998 84.014C 63.603998 85.513 53.009998 81.79 45.393998 74.734L 45.208998 74.891L 24.583998 90.821L 28.925998 96.45Z"></path></g></g></g><g id="g-root-1.Vector_sy_1hap2d91b7vnk4-fill" data-item-order="999927670" data-item-id="1.Vector_sy_1hap2d91b7vnk4" data-item-class="Part Indexed Indexed_1 Fill Stroke" data-item-index="1" data-renderer-id="0" transform="translate(155.66500854492188, 3)"><g id="1.Vector_sy_1hap2d91b7vnk4-fill" stroke="none" fill="#ecf7d5"><g><path d="M 89.310007 96.437098L 108.238007 94.779098L 105.091007 76.030098L 100.699007 81.710098L 80.073007 65.740098L 79.930007 65.623098C 81.989007 61.862098 83.406007 57.666098 84.014007 53.163098C 86.678007 33.460098 72.865007 15.327898 53.163007 12.663998C 33.460007 9.999998 15.328007 23.813098 12.664007 43.516098C 10.000007 63.219098 23.813007 81.351098 43.515007 84.015098C 54.624007 85.517098 65.233007 81.781098 72.852007 74.705098L 73.031007 74.844098L 93.659007 90.814098L 89.310007 96.437098Z"></path></g></g></g><g id="g-root-0.cr-big_cr_1um5kql1b7vlz7-fill" data-item-order="999927672" data-item-id="0.cr-big_cr_1um5kql1b7vlz7" data-item-class="Shape Stroke Fill Part Indexed_0 ColorFillGray ColorStrokeBlack" data-item-index="0" data-renderer-id="0" transform="translate(254.00003051757812, 71.33609008789062)"><g id="0.cr-big_cr_1um5kql1b7vlz7-fill" stroke="none" fill="#eaeaea"><g><path d="M 10 82C 10.000001 121.764503 42.235499 154.000001 82.000001 154.000001C 121.764503 154.000001 154.000001 121.764503 154.000001 82.000001C 154.000001 42.235499 121.764503 10.000001 82.000001 10.000001C 42.235499 10.000001 10.000001 42.235499 10.000001 82.000001"></path></g></g></g><g id="g-root-tx_disponib_m7c2f11b7vm69-fill" data-item-order="1000000000" data-item-id="tx_disponib_m7c2f11b7vm69" data-item-class="Label Stroke Indexed Indexed_1 ColorStrokeBlack" data-item-index="1" data-renderer-id="0" transform="translate(2, 17.336090087890625)"><g id="tx_disponib_m7c2f11b7vm69-fill" stroke="none" fill="#484848"><g><text style="font: 20px Roboto, sans-serif; white-space: pre;" font-weight="20px" font-size="Roboto," font-family="sans-serif"><tspan x="15.38" y="34" dominant-baseline="ideographic">Disponibilidade </tspan><tspan x="57.61" y="58" dominant-baseline="ideographic">de Terreno</tspan></text></g></g></g><g id="g-root-barn_hte2pp1b7ls7e-fill" data-item-order="1000000000" data-item-id="barn_hte2pp1b7ls7e" data-item-class="Icon Stroke Indexed Indexed_1 InsideFill InsideColorFill" data-item-index="1" data-renderer-id="0" transform="translate(170.00003051757812, 17.336090087890625)"></g><g id="g-root-1_1hbbmm51b7lreo-fill" data-item-order="1000000000" data-item-id="1_1hbbmm51b7lreo" data-item-class="Icon Stroke Indexed InsideFill InsideColorFill" data-item-index="2" data-renderer-id="0" transform="translate(433.98406982421875, 17.336090087890625)"></g><g id="g-root-tx_interess_zs5p311b7u96o-fill" data-item-order="1000000000" data-item-id="tx_interess_zs5p311b7u96o" data-item-class="Label Stroke Indexed ColorStrokeBlack" data-item-index="2" data-renderer-id="0" transform="translate(506.00006103515625, 17.336090087890625)"><g id="tx_interess_zs5p311b7u96o-fill" stroke="none" fill="#484848"><g><text style="font: 20px Roboto, sans-serif; white-space: pre;" font-weight="20px" font-size="Roboto," font-family="sans-serif"><tspan x="12" y="34" dominant-baseline="ideographic">Interesse do </tspan><tspan x="12" y="58" dominant-baseline="ideographic">Proprietário</tspan></text></g></g></g><g id="g-root-neig_v483zx1b7lts9-fill" data-item-order="1000000000" data-item-id="neig_v483zx1b7lts9" data-item-class="Icon Stroke InsideFill InsideGrayFill ColorFillGray ColorStrokeGray" data-item-index="none" data-renderer-id="0" transform="translate(290.00006103515625, 107.33609008789062)"></g><g id="g-root-tx_desenvol_8vvk1p1b7vnr6-fill" data-item-order="1000000000" data-item-id="tx_desenvol_8vvk1p1b7vnr6" data-item-class="Label Stroke" data-item-index="none" data-renderer-id="0" transform="translate(164.00003051757812, 240.16030883789062)"><g id="tx_desenvol_8vvk1p1b7vnr6-fill" stroke="none" fill="#484848"><g><text style="font: 20px Roboto, sans-serif; white-space: pre;" font-weight="20px" font-size="Roboto," font-family="sans-serif"><tspan x="15.76" y="34" dominant-baseline="ideographic">Condomínio Fechado em Maringá</tspan></text></g></g></g><g id="g-root-2.Vector_sy_13zv1311b7vlz9-stroke" data-item-order="999927668" data-item-id="2.Vector_sy_13zv1311b7vlz9" data-item-class="Part Indexed Fill Stroke" data-item-index="2" data-renderer-id="0" transform="translate(398.12103271484375, 3.002105712890625)"><g id="2.Vector_sy_13zv1311b7vlz9-stroke" fill="none" stroke-linecap="round" stroke-linejoin="round" stroke-miterlimit="4" stroke="#2c2c2c" stroke-width="2"><g><path d="M 28.925998 96.45L 9.999998 94.769L 13.167998 76.024L 17.553998 81.709L 38.170998 65.785L 38.310998 65.67C 36.236998 61.896 34.810998 57.683 34.198998 53.159C 31.536998 33.456 45.350998 15.325 65.053998 12.6625C 84.756998 10 102.887998 23.814 105.550998 43.517C 108.212998 63.221 94.398998 81.351 74.695998 84.014C 63.603998 85.513 53.009998 81.79 45.393998 74.734L 45.208998 74.891L 24.583998 90.821L 28.925998 96.45Z"></path></g></g></g><g id="g-root-1.Vector_sy_1hap2d91b7vnk4-stroke" data-item-order="999927670" data-item-id="1.Vector_sy_1hap2d91b7vnk4" data-item-class="Part Indexed Indexed_1 Fill Stroke" data-item-index="1" data-renderer-id="0" transform="translate(155.66500854492188, 3)"><g id="1.Vector_sy_1hap2d91b7vnk4-stroke" fill="none" stroke-linecap="round" stroke-linejoin="round" stroke-miterlimit="4" stroke="#2c2c2c" stroke-width="2"><g><path d="M 89.310007 96.437098L 108.238007 94.779098L 105.091007 76.030098L 100.699007 81.710098L 80.073007 65.740098L 79.930007 65.623098C 81.989007 61.862098 83.406007 57.666098 84.014007 53.163098C 86.678007 33.460098 72.865007 15.327898 53.163007 12.663998C 33.460007 9.999998 15.328007 23.813098 12.664007 43.516098C 10.000007 63.219098 23.813007 81.351098 43.515007 84.015098C 54.624007 85.517098 65.233007 81.781098 72.852007 74.705098L 73.031007 74.844098L 93.659007 90.814098L 89.310007 96.437098Z"></path></g></g></g><g id="g-root-0.cr-big_cr_1um5kql1b7vlz7-stroke" data-item-order="999927672" data-item-id="0.cr-big_cr_1um5kql1b7vlz7" data-item-class="Shape Stroke Fill Part Indexed_0 ColorFillGray ColorStrokeBlack" data-item-index="0" data-renderer-id="0" transform="translate(254.00003051757812, 71.33609008789062)"><g id="0.cr-big_cr_1um5kql1b7vlz7-stroke" fill="none" stroke-linecap="round" stroke-linejoin="round" stroke-miterlimit="4" stroke="#2c2c2c" stroke-width="2"><g><path d="M 10 82C 10.000001 121.764503 42.235499 154.000001 82.000001 154.000001C 121.764503 154.000001 154.000001 121.764503 154.000001 82.000001C 154.000001 42.235499 121.764503 10.000001 82.000001 10.000001C 42.235499 10.000001 10.000001 42.235499 10.000001 82.000001"></path></g></g></g><g id="g-root-tx_disponib_m7c2f11b7vm69-stroke" data-item-order="1000000000" data-item-id="tx_disponib_m7c2f11b7vm69" data-item-class="Label Stroke Indexed Indexed_1 ColorStrokeBlack" data-item-index="1" data-renderer-id="0" transform="translate(2, 17.336090087890625)"></g><g id="g-root-barn_hte2pp1b7ls7e-stroke" data-item-order="1000000000" data-item-id="barn_hte2pp1b7ls7e" data-item-class="Icon Stroke Indexed Indexed_1 InsideFill InsideColorFill" data-item-index="1" data-renderer-id="0" transform="translate(170.00003051757812, 17.336090087890625)"><g id="barn_hte2pp1b7ls7e-stroke" fill="none" stroke-linecap="round" stroke-linejoin="round" stroke-miterlimit="4" stroke="#93c131" stroke-width="2"><g><path d="M 11 56.877998L 57 56.877998M 53 56.877998L 53 31.878M 15 31.878L 15 56.877998M 57 28.382C 57 28.067244 56.851807 27.770855 56.599998 27.582001L 34.599998 11.318C 34.24691 11.057287 33.765091 11.057287 33.412003 11.318L 11.4 27.577999C 11.148194 27.766855 11 28.063242 11 28.378L 11 32.893997C 11 33.272774 11.214003 33.619034 11.552786 33.788429C 11.89157 33.957817 12.296982 33.921265 12.6 33.694L 33.466 18.316C 33.819088 18.055286 34.300911 18.055286 34.653999 18.316L 55.400002 33.695999C 55.703018 33.923264 56.108429 33.95982 56.447212 33.790428C 56.785999 33.621033 57 33.274773 57 32.896ZM 45 56.877998L 45 36.877998L 23 36.877998L 23 56.877998M 23 36.877998L 45 56.877998M 45 36.877998L 23 56.877998M 30 27.878C 30 30.087139 31.790861 31.878 34 31.878C 36.209137 31.878 38 30.087139 38 27.878C 38 25.668861 36.209137 23.878 34 23.878C 31.790861 23.878 30 25.668861 30 27.878Z"></path></g></g></g><g id="g-root-1_1hbbmm51b7lreo-stroke" data-item-order="1000000000" data-item-id="1_1hbbmm51b7lreo" data-item-class="Icon Stroke Indexed InsideFill InsideColorFill" data-item-index="2" data-renderer-id="0" transform="translate(433.98406982421875, 17.336090087890625)"><g id="1_1hbbmm51b7lreo-stroke" fill="none" stroke-linecap="round" stroke-linejoin="round" stroke-miterlimit="4" stroke="#4682e3" stroke-width="2"><g><path d="M 37 41.666L 37 56C 37 56.552284 37.447716 57 38 57L 52 57C 52.552284 57 53 56.552284 53 56L 53 41.666M 10 10M 33 45L 45 35L 57 45M 33 26C 33.004654 20.315588 28.677433 15.563891 23.017384 15.038146C 17.357334 14.5124 12.228953 18.385792 11.186543 23.973812C 10.144132 29.561829 13.531075 35.023705 19 36.574001L 19 39L 17.354 40.646C 17.259958 40.739803 17.207106 40.867172 17.207106 41C 17.207106 41.132828 17.259958 41.260197 17.354 41.354L 19 43L 19 45L 17.354 46.646C 17.259958 46.739803 17.207106 46.867172 17.207106 47C 17.207106 47.132828 17.259958 47.260197 17.354 47.354L 19 49L 19 52L 21.646 54.646C 21.739803 54.74004 21.867172 54.792892 22 54.792892C 22.132828 54.792892 22.260197 54.74004 22.354 54.646L 25 52L 25 36.573997C 29.730028 35.233166 32.995975 30.916399 33 26ZM 19 22C 19 23.656855 20.343147 25 22 25C 23.656855 25 25 23.656855 25 22C 25 20.343147 23.656855 19 22 19C 20.343147 19 19 20.343147 19 22ZM 22.528 19.046C 24.234352 13.632248 29.634953 10.272785 35.245365 11.135118C 40.855774 11.997453 44.998215 16.823704 45 22.5L 45 41M 42 44C 42 45.656857 43.343147 47 45 47C 46.656857 47 48 45.656857 48 44C 48 42.343147 46.656857 41 45 41C 43.343147 41 42 42.343147 42 44Z"></path></g></g></g><g id="g-root-tx_interess_zs5p311b7u96o-stroke" data-item-order="1000000000" data-item-id="tx_interess_zs5p311b7u96o" data-item-class="Label Stroke Indexed ColorStrokeBlack" data-item-index="2" data-renderer-id="0" transform="translate(506.00006103515625, 17.336090087890625)"></g><g id="g-root-neig_v483zx1b7lts9-stroke" data-item-order="1000000000" data-item-id="neig_v483zx1b7lts9" data-item-class="Icon Stroke InsideFill InsideGrayFill ColorFillGray ColorStrokeGray" data-item-index="none" data-renderer-id="0" transform="translate(290.00006103515625, 107.33609008789062)"><g id="neig_v483zx1b7lts9-stroke" fill="none" stroke-linecap="round" stroke-linejoin="round" stroke-miterlimit="4" stroke="#484848" stroke-width="2"><g><path d="M 23.5 73.972L 23.5 66.472C 23.5 63.986717 25.514719 61.972004 28 61.972004C 30.485283 61.972004 32.5 63.986717 32.5 66.472L 32.5 73.972M 17.5 56.517998L 17.5 73.972L 38.5 73.972L 38.5 56.517998M 10 10M 11.5 61.972L 25.993 48.799C 27.135311 47.76664 28.87369 47.76664 30.015999 48.799L 43 60.472M 41.5 43.972L 41.5 36.472C 41.5 33.986717 43.514721 31.972 46 31.972C 48.485283 31.972 50.5 33.986717 50.5 36.472L 50.5 43.972M 35.5 26.518L 35.5 43.972L 56.5 43.972L 56.5 26.518M 10 10M 29.5 31.972L 43.980999 18.808001C 45.125557 17.766571 46.874443 17.766571 48.019001 18.808001L 62.5 31.972M 59.5 73.972L 59.5 66.472C 59.5 63.986717 61.514721 61.972004 64 61.972004C 66.485283 61.972004 68.5 63.986717 68.5 66.472L 68.5 73.972M 53.5 56.517998L 53.5 73.972L 74.5 73.972L 74.5 56.517998M 10 10M 49 60.472L 61.983997 48.771999C 63.126312 47.739639 64.864685 47.739639 66.007004 48.771999L 80.5 61.972"></path></g></g></g><g id="g-root-tx_desenvol_8vvk1p1b7vnr6-stroke" data-item-order="1000000000" data-item-id="tx_desenvol_8vvk1p1b7vnr6" data-item-class="Label Stroke" data-item-index="none" data-renderer-id="0" transform="translate(164.00003051757812, 240.16030883789062)"></g></g></g></svg>
