<?xml version="1.0" encoding="utf-8" standalone="yes"?>
<!DOCTYPE svg PUBLIC "-//W3C//DTD SVG 1.1//EN" "http://www.w3.org/Graphics/SVG/1.1/DTD/svg11.dtd">
<svg width="781" height="493" viewBox="0 0 781 493" style="fill:none;stroke:none;fill-rule:evenodd;clip-rule:evenodd;stroke-linecap:round;stroke-linejoin:round;stroke-miterlimit:1.5;" version="1.1" xmlns="http://www.w3.org/2000/svg" xmlns:xlink="http://www.w3.org/1999/xlink"><style id="fontImports"></style><rect id="" x="0" y="0" width="781" height="493" style="fill: #ffffff;"></rect><g id="items" style="isolation: isolate"><g id="blend" style="mix-blend-mode:normal"><g id="g-root-tf_1d1qz9pve0jyh-fill" data-item-order="-383760" transform="translate(-9.5, -9.5)"><g id="tf_1d1qz9pve0jyh-fill" stroke="none" fill="#ffffff"><g><path d="M 10 10L 790 10L 790 502L 10 502Z"></path></g></g></g><g id="g-root-4.Rectangle_sy_1ut0wlpvek7wg-fill" data-item-order="-69688" transform="translate(290.5, 170.5)"><g id="4.Rectangle_sy_1ut0wlpvek7wg-fill" stroke="none" fill="#95bdff"><g><path d="M 10 10L 82 10L 82 82L 10 82Z"></path></g></g></g><g id="g-root-4.cu_sy_1hi6vbhvek6bl-fill" data-item-order="-69686" transform="translate(254.5, 134.5)"><g id="4.cu_sy_1hi6vbhvek6bl-fill" stroke="none" fill="#95bdff"><g><path d="M 10 10L 118 10L 118 28L 28 28L 28 118L 10 118L 10 10Z"></path></g></g></g><g id="g-root-3.Rectangle_sy_1qf2tqlvek6x6-fill" data-item-order="-69682" transform="translate(290.5, 290.5)"><g id="3.Rectangle_sy_1qf2tqlvek6x6-fill" stroke="none" fill="#4e8ff9"><g><path d="M 10 10L 82 10L 82 82L 10 82Z"></path></g></g></g><g id="g-root-3.cu_sy_18efs3xvdz3lv-fill" data-item-order="-69678" transform="translate(254.5, 290.5)"><g id="3.cu_sy_18efs3xvdz3lv-fill" stroke="none" fill="#4e8ff9"><g><path d="M 10 10L 10 118L 118 118L 118 100L 28 100L 28 10L 10 10Z"></path></g></g></g><g id="g-root-2.cu_sy_m7yqktvdz2to-fill" data-item-order="-69674" transform="translate(410.5, 290.5)"><g id="2.cu_sy_m7yqktvdz2to-fill" stroke="none" fill="#4f84da"><g><path d="M 100 10L 100 100L 10 100L 10 118L 118 118L 118 10L 100 10Z"></path></g></g></g><g id="g-root-2.Rectangle_sy_1hbbqj1vdz47h-fill" data-item-order="-69672" transform="translate(410.5, 290.5)"><g id="2.Rectangle_sy_1hbbqj1vdz47h-fill" stroke="none" fill="#4f84da"><g><path d="M 10 10L 82 10L 82 82L 10 82Z"></path></g></g></g><g id="g-root-1.cu_sy_m97or1vdz4zq-fill" data-item-order="-69668" transform="translate(410.5, 134.5)"><g id="1.cu_sy_m97or1vdz4zq-fill" stroke="none" fill="#42649b"><g><path d="M 118 118L 118 10L 10 10L 10 28L 100 28L 100 118L 118 118Z"></path></g></g></g><g id="g-root-1.Rectangle_sy_2qn7xvdz47j-fill" data-item-order="-69666" transform="translate(410.5, 170.5)"><g id="1.Rectangle_sy_2qn7xvdz47j-fill" stroke="none" fill="#42649b"><g><path d="M 10 10L 82 10L 82 82L 10 82Z"></path></g></g></g><g id="g-root-tx_oportuni_1hd75sdvdz37s-fill" data-item-order="0" transform="translate(110.5, 26.5)"><g id="tx_oportuni_1hd75sdvdz37s-fill" stroke="none" fill="#484848"><g><text style="font: bold 25px Arial, Helvetica, sans-serif; white-space: pre;" font-weight="bold" font-size="25px" font-family="Arial, Helvetica, sans-serif"><tspan x="12.34" y="42" dominant-baseline="ideographic">Oportunidade de Desenvolvimento Imobiliário</tspan></text></g></g></g><g id="g-root-tx_segurana_3zle5ve0jri-fill" data-item-order="0" transform="translate(38.5, 110.5)"><g id="tx_segurana_3zle5ve0jri-fill" stroke="none" fill="#484848"><g><text style="font: bold 20px Arial, Helvetica, sans-serif; white-space: pre;" font-weight="bold" font-size="20px" font-family="Arial, Helvetica, sans-serif"><tspan x="15.47" y="33" dominant-baseline="ideographic">Segurança Jurídica</tspan></text></g></g></g><g id="g-root-tx_propried_91i0wdve0hz4-fill" data-item-order="0" transform="translate(542.5, 110.5)"><g id="tx_propried_91i0wdve0hz4-fill" stroke="none" fill="#484848"><g><text style="font: bold 20px Arial, Helvetica, sans-serif; white-space: pre;" font-weight="bold" font-size="20px" font-family="Arial, Helvetica, sans-serif"><tspan x="12" y="33" dominant-baseline="ideographic">Propriedade ZC3</tspan></text></g></g></g><g id="g-root-tx_assegura_1heg3ylvdz5dt-fill" data-item-order="0" transform="translate(26.5, 146.5)"><g id="tx_assegura_1heg3ylvdz5dt-fill" stroke="none" fill="#484848"><g><text style="font: 15px Arial, Helvetica, sans-serif; white-space: pre;" font-size="15px" font-family="Arial, Helvetica, sans-serif"><tspan x="20.22" y="30" dominant-baseline="ideographic">Assegura viabilidade através </tspan><tspan x="50.2" y="48" dominant-baseline="ideographic">de aprovação de projeto </tspan><tspan x="108.59" y="66" dominant-baseline="ideographic">governamental.</tspan></text></g></g></g><g id="g-root-tx_destacao_hte6mlve0j5w-fill" data-item-order="0" transform="translate(542.5, 146.5)"><g id="tx_destacao_hte6mlve0j5w-fill" stroke="none" fill="#484848"><g><text style="font: 15px Arial, Helvetica, sans-serif; white-space: pre;" font-size="15px" font-family="Arial, Helvetica, sans-serif"><tspan x="12" y="30" dominant-baseline="ideographic">Destaca o potencial de </tspan><tspan x="12" y="48" dominant-baseline="ideographic">verticalização em uma área </tspan><tspan x="12" y="66" dominant-baseline="ideographic">urbana.</tspan></text></g></g></g><g id="g-root-tx_estrutur_v7z2fhve0hzj-fill" data-item-order="0" transform="translate(26.5, 338.5)"><g id="tx_estrutur_v7z2fhve0hzj-fill" stroke="none" fill="#484848"><g><text style="font: bold 20px Arial, Helvetica, sans-serif; white-space: pre;" font-weight="bold" font-size="20px" font-family="Arial, Helvetica, sans-serif"><tspan x="17.48" y="33" dominant-baseline="ideographic">Estrutura Financeira</tspan></text></g></g></g><g id="g-root-tx_propried_qqa51pve0jrh-fill" data-item-order="0" transform="translate(542.5, 338.5)"><g id="tx_propried_qqa51pve0jrh-fill" stroke="none" fill="#484848"><g><text style="font: bold 20px Arial, Helvetica, sans-serif; white-space: pre;" font-weight="bold" font-size="20px" font-family="Arial, Helvetica, sans-serif"><tspan x="12" y="33" dominant-baseline="ideographic">Propriedade ZR2</tspan></text></g></g></g><g id="g-root-tx_descreve_5v0nhvdz5du-fill" data-item-order="0" transform="translate(26.5, 374.5)"><g id="tx_descreve_5v0nhvdz5du-fill" stroke="none" fill="#484848"><g><text style="font: 15px Arial, Helvetica, sans-serif; white-space: pre;" font-size="15px" font-family="Arial, Helvetica, sans-serif"><tspan x="30.23" y="30" dominant-baseline="ideographic">Descreve a combinação de </tspan><tspan x="15.23" y="48" dominant-baseline="ideographic">investimento direto e parceria </tspan><tspan x="142.78" y="66" dominant-baseline="ideographic">financeira.</tspan></text></g></g></g><g id="g-root-tx_enfatiza_v9uhotvdz3lv-fill" data-item-order="0" transform="translate(542.5, 374.5)"><g id="tx_enfatiza_v9uhotvdz3lv-fill" stroke="none" fill="#484848"><g><text style="font: 15px Arial, Helvetica, sans-serif; white-space: pre;" font-size="15px" font-family="Arial, Helvetica, sans-serif"><tspan x="12" y="30" dominant-baseline="ideographic">Enfatiza o lote padrão com </tspan><tspan x="12" y="48" dominant-baseline="ideographic">opções de desenvolvimento </tspan><tspan x="12" y="66" dominant-baseline="ideographic">residencial/comercial.</tspan></text></g></g></g><g id="g-root-tf_1d1qz9pve0jyh-stroke" data-item-order="-383760" transform="translate(-9.5, -9.5)"></g><g id="g-root-4.Rectangle_sy_1ut0wlpvek7wg-stroke" data-item-order="-69688" transform="translate(290.5, 170.5)"><g id="4.Rectangle_sy_1ut0wlpvek7wg-stroke" fill="none" stroke-linecap="butt" stroke-linejoin="miter" stroke-miterlimit="4" stroke="#95bdff" stroke-width="1"><g><path d="M 10 10L 82 10L 82 82L 10 82Z"></path></g></g></g><g id="g-root-4.cu_sy_1hi6vbhvek6bl-stroke" data-item-order="-69686" transform="translate(254.5, 134.5)"><g id="4.cu_sy_1hi6vbhvek6bl-stroke" fill="none" stroke-linecap="butt" stroke-linejoin="miter" stroke-miterlimit="4" stroke="#95bdff" stroke-width="1"><g><path d="M 10 10L 118 10L 118 28L 28 28L 28 118L 10 118L 10 10Z"></path></g></g></g><g id="g-root-3.Rectangle_sy_1qf2tqlvek6x6-stroke" data-item-order="-69682" transform="translate(290.5, 290.5)"><g id="3.Rectangle_sy_1qf2tqlvek6x6-stroke" fill="none" stroke-linecap="butt" stroke-linejoin="miter" stroke-miterlimit="4" stroke="#4e8ff9" stroke-width="1"><g><path d="M 10 10L 82 10L 82 82L 10 82Z"></path></g></g></g><g id="g-root-3.cu_sy_18efs3xvdz3lv-stroke" data-item-order="-69678" transform="translate(254.5, 290.5)"><g id="3.cu_sy_18efs3xvdz3lv-stroke" fill="none" stroke-linecap="butt" stroke-linejoin="miter" stroke-miterlimit="4" stroke="#4e8ff9" stroke-width="1"><g><path d="M 10 10L 10 118L 118 118L 118 100L 28 100L 28 10L 10 10Z"></path></g></g></g><g id="g-root-2.cu_sy_m7yqktvdz2to-stroke" data-item-order="-69674" transform="translate(410.5, 290.5)"><g id="2.cu_sy_m7yqktvdz2to-stroke" fill="none" stroke-linecap="butt" stroke-linejoin="miter" stroke-miterlimit="4" stroke="#4f84da" stroke-width="1"><g><path d="M 100 10L 100 100L 10 100L 10 118L 118 118L 118 10L 100 10Z"></path></g></g></g><g id="g-root-2.Rectangle_sy_1hbbqj1vdz47h-stroke" data-item-order="-69672" transform="translate(410.5, 290.5)"><g id="2.Rectangle_sy_1hbbqj1vdz47h-stroke" fill="none" stroke-linecap="butt" stroke-linejoin="miter" stroke-miterlimit="4" stroke="#4f84da" stroke-width="1"><g><path d="M 10 10L 82 10L 82 82L 10 82Z"></path></g></g></g><g id="g-root-1.cu_sy_m97or1vdz4zq-stroke" data-item-order="-69668" transform="translate(410.5, 134.5)"><g id="1.cu_sy_m97or1vdz4zq-stroke" fill="none" stroke-linecap="butt" stroke-linejoin="miter" stroke-miterlimit="4" stroke="#42649b" stroke-width="1"><g><path d="M 118 118L 118 10L 10 10L 10 28L 100 28L 100 118L 118 118Z"></path></g></g></g><g id="g-root-1.Rectangle_sy_2qn7xvdz47j-stroke" data-item-order="-69666" transform="translate(410.5, 170.5)"><g id="1.Rectangle_sy_2qn7xvdz47j-stroke" fill="none" stroke-linecap="butt" stroke-linejoin="miter" stroke-miterlimit="4" stroke="#42649b" stroke-width="1"><g><path d="M 10 10L 82 10L 82 82L 10 82Z"></path></g></g></g><g id="g-root-tx_oportuni_1hd75sdvdz37s-stroke" data-item-order="0" transform="translate(110.5, 26.5)"></g><g id="g-root-tx_segurana_3zle5ve0jri-stroke" data-item-order="0" transform="translate(38.5, 110.5)"></g><g id="g-root-tx_propried_91i0wdve0hz4-stroke" data-item-order="0" transform="translate(542.5, 110.5)"></g><g id="g-root-tx_assegura_1heg3ylvdz5dt-stroke" data-item-order="0" transform="translate(26.5, 146.5)"></g><g id="g-root-tx_destacao_hte6mlve0j5w-stroke" data-item-order="0" transform="translate(542.5, 146.5)"></g><g id="g-root-tx_estrutur_v7z2fhve0hzj-stroke" data-item-order="0" transform="translate(26.5, 338.5)"></g><g id="g-root-tx_propried_qqa51pve0jrh-stroke" data-item-order="0" transform="translate(542.5, 338.5)"></g><g id="g-root-tx_descreve_5v0nhvdz5du-stroke" data-item-order="0" transform="translate(26.5, 374.5)"></g><g id="g-root-tx_enfatiza_v9uhotvdz3lv-stroke" data-item-order="0" transform="translate(542.5, 374.5)"></g></g></g></svg>