<?xml version="1.0" encoding="utf-8" standalone="yes"?>
<!DOCTYPE svg PUBLIC "-//W3C//DTD SVG 1.1//EN" "http://www.w3.org/Graphics/SVG/1.1/DTD/svg11.dtd">
<svg width="238" height="328" viewBox="0 0 238 328" style="fill:none;stroke:none;fill-rule:evenodd;clip-rule:evenodd;stroke-linecap:round;stroke-linejoin:round;stroke-miterlimit:1.5;" version="1.1" xmlns="http://www.w3.org/2000/svg" xmlns:xlink="http://www.w3.org/1999/xlink"><style id="fontImports">@import url("https://fonts.googleapis.com/css2?family=Shantell+Sans:wght@300..800&amp;display=block");</style><rect id="" x="0" y="0" width="238" height="328" style="fill: #ffffff;"></rect><g id="items" style="isolation: isolate"><g id="blend" style="mix-blend-mode:normal"><g id="g-root-tf_mg3lqz1l777cy-fill" data-item-order="-75816" transform="translate(-8, -8)"><g id="tf_mg3lqz1l777cy-fill" stroke="none" fill="#ffffff"><g><path d="M 10 10L 244 10L 244 334L 10 334Z"></path></g></g></g><g id="g-root-1_1q7lwwr1l74dfn-fill" data-item-order="0" transform="translate(22, 46)"></g><g id="g-root-tx_localiza_1hdubx71l72z2m-fill" data-item-order="0" transform="translate(70, 40)"><g id="tx_localiza_1hdubx71l72z2m-fill" stroke="none" fill="#484848"><g><text style="font: 20px &quot;Shantell Sans&quot;, cursive; white-space: pre;" font-size="20px" font-family="'Shantell Sans', cursive"><tspan x="12" y="35" dominant-baseline="ideographic">Localização </tspan><tspan x="12" y="59" dominant-baseline="ideographic">Estratégica</tspan></text></g></g></g><g id="g-root-land_v3mfvf1l75slh-fill" data-item-order="0" transform="translate(22, 106)"></g><g id="g-root-tx_topograf_zp27rv1l72xac-fill" data-item-order="0" transform="translate(70, 100)"><g id="tx_topograf_zp27rv1l72xac-fill" stroke="none" fill="#484848"><g><text style="font: 20px &quot;Shantell Sans&quot;, cursive; white-space: pre;" font-size="20px" font-family="'Shantell Sans', cursive"><tspan x="12" y="35" dominant-baseline="ideographic">Topografia </tspan><tspan x="12" y="59" dominant-baseline="ideographic">Favorável</tspan></text></g></g></g><g id="g-root-view_1hi7niz1l75t6v-fill" data-item-order="0" transform="translate(22, 166)"></g><g id="g-root-tx_visibili_mdlpej1l72yv9-fill" data-item-order="0" transform="translate(70, 160)"><g id="tx_visibili_mdlpej1l72yv9-fill" stroke="none" fill="#484848"><g><text style="font: 20px &quot;Shantell Sans&quot;, cursive; white-space: pre;" font-size="20px" font-family="'Shantell Sans', cursive"><tspan x="12" y="35" dominant-baseline="ideographic">Visibilidade </tspan><tspan x="12" y="59" dominant-baseline="ideographic">Privilegiada</tspan></text></g></g></g><g id="g-root-bloc_4nkn2z1l777k1-fill" data-item-order="0" transform="translate(22, 226)"></g><g id="g-root-tx_zoneamen_dhyp5n1l72zny-fill" data-item-order="0" transform="translate(70, 220)"><g id="tx_zoneamen_dhyp5n1l72zny-fill" stroke="none" fill="#484848"><g><text style="font: 20px &quot;Shantell Sans&quot;, cursive; white-space: pre;" font-size="20px" font-family="'Shantell Sans', cursive"><tspan x="12" y="35" dominant-baseline="ideographic">Zoneamento </tspan><tspan x="12" y="59" dominant-baseline="ideographic">Flexível</tspan></text></g></g></g><g id="g-root-tf_mg3lqz1l777cy-stroke" data-item-order="-75816" transform="translate(-8, -8)"></g><g id="g-root-1_1q7lwwr1l74dfn-stroke" data-item-order="0" transform="translate(22, 46)"><g id="1_1q7lwwr1l74dfn-stroke" fill="none" stroke-linecap="round" stroke-linejoin="round" stroke-miterlimit="4" stroke="#484848" stroke-width="2"><g><path d="M 22.75 20.5C 23.049999 23.349998 25.150002 25.75 28 25.75C 30.849998 25.75 33.700001 23.349998 33.25 20.5C 32.799999 17.65 30.849998 15.4 28 15.25C 25.150002 15.1 23.200001 17.65 22.75 20.5M 28 10.75C 33.700001 10.3 38.650002 15.4 38.349998 21.1C 37.900002 25.900002 31.599998 38.5 28.599998 41.349998C 28.450001 41.5 28.299999 41.650002 28 41.650002C 27.700001 41.650002 27.400002 41.5 27.400002 41.349998C 26.200001 37.300003 17.5 25.900002 17.65 21.1C 17.950001 15.4 22.299999 11.05 28 10.75M 35.5 39.550003C 41.349998 39.099998 45.099998 41.050003 45.25 42.25C 45.400002 43.900002 37.449997 44.800003 28 45.25C 18.549999 45.699997 10.75 43.900002 10.75 42.25C 10.75 41.050003 14.95 41.050003 20.5 39.550003"></path><path d="M 22.75 20.5C 22.750002 23.399494 25.100506 25.75 28.000002 25.75C 30.899494 25.75 33.25 23.399494 33.25 20.5C 33.25 17.600506 30.899494 15.25 28.000002 15.25C 25.100506 15.25 22.750002 17.600506 22.750002 20.5ZM 28 10.75C 33.679111 10.750828 38.282501 15.354889 38.282501 21.034C 38.282501 25.856501 30.869499 37.811501 28.6315 41.309498C 28.493608 41.524715 28.255602 41.654892 28 41.654892C 27.744398 41.654892 27.506392 41.524715 27.3685 41.309498C 25.130501 37.811501 17.717501 25.859501 17.717501 21.034C 17.716671 15.354547 22.320545 10.75 28.000002 10.75ZM 35.5 39.550003C 41.271999 40.035999 45.25 41.063499 45.25 42.25C 45.25 43.907501 37.528 45.25 28 45.25C 18.472 45.25 10.75 43.907501 10.75 42.25C 10.75 41.064999 14.7025 40.040501 20.437 39.550003"></path></g></g></g><g id="g-root-tx_localiza_1hdubx71l72z2m-stroke" data-item-order="0" transform="translate(70, 40)"></g><g id="g-root-land_v3mfvf1l75slh-stroke" data-item-order="0" transform="translate(22, 106)"><g id="land_v3mfvf1l75slh-stroke" fill="none" stroke-linecap="round" stroke-linejoin="round" stroke-miterlimit="4" stroke="#484848" stroke-width="2"><g><path d="M 19.75 24.25C 19.15 25.75 21.1 27.549999 22.75 27.25C 24.400002 26.950001 25.900002 25.900002 25.75 24.25C 25.599998 22.599998 24.400002 20.950001 22.75 21.25C 21.1 21.549999 19.9 22.599998 19.75 24.25M 30.849998 28.299999C 30.700001 28 30.549999 27.849998 30.25 27.849998C 29.950001 28 29.799999 28 29.650002 28.299999C 28.450001 30.400002 27.25 32.650002 25.599998 34.599998C 25.150002 33.700001 24.849998 32.650002 24.099998 32.049999C 23.799999 31.900002 23.650002 31.75 23.349998 31.599998C 23.200001 31.599998 22.900002 31.75 22.75 32.049999C 22 34.75 20.35 37.449997 18.25 39.25C 24.700001 40.150002 31.299999 39.699997 37.75 39.25C 37 35.050003 33.400002 31.75 30.849998 28.299999M 41.800003 16.75C 42.099998 17.049999 42.400002 17.35 42.25 17.799999C 40 26.200001 42.699997 35.050003 42.25 43.75C 42.25 44.650002 41.5 45.550003 40.75 45.25C 32.650002 42.699997 23.799999 45.699997 15.25 45.25C 14.35 45.25 13.45 44.5 13.75 43.75C 17.799999 34 13.15 22.75 13.75 12.25C 13.75 11.35 14.5 10.45 15.25 10.75C 21.4 13.3 28.599998 10.6 35.199997 10.75C 35.650002 10.75 35.949997 10.9 36.25 11.2C 38.050003 13.15 39.699997 15.25 41.800003 16.75"></path><path d="M 19.75 24.25C 19.75 25.906855 21.093145 27.25 22.75 27.25C 24.406855 27.25 25.75 25.906855 25.75 24.25C 25.75 22.593145 24.406855 21.25 22.75 21.25C 21.093145 21.25 19.75 22.593145 19.75 24.25ZM 30.886 28.267C 30.748947 28.047714 30.508595 27.914497 30.25 27.914497C 29.991405 27.914497 29.751053 28.047714 29.614 28.267L 25.6555 34.599998L 24.043001 32.017002C 23.905947 31.797714 23.665592 31.664497 23.407 31.664497C 23.148407 31.664497 22.908052 31.797714 22.771 32.017002L 18.25 39.25L 37.75 39.25ZM 41.810501 16.75C 42.091827 17.031239 42.249916 17.412708 42.25 17.810499L 42.25 43.75C 42.25 44.578426 41.578426 45.25 40.75 45.25L 15.25 45.25C 14.421573 45.25 13.75 44.578426 13.75 43.75L 13.75 12.25C 13.75 11.421573 14.421573 10.75 15.25 10.75L 35.189499 10.75C 35.587292 10.750085 35.968761 10.908176 36.25 11.1895Z"></path></g></g></g><g id="g-root-tx_topograf_zp27rv1l72xac-stroke" data-item-order="0" transform="translate(70, 100)"></g><g id="g-root-view_1hi7niz1l75t6v-stroke" data-item-order="0" transform="translate(22, 166)"><g id="view_1hi7niz1l75t6v-stroke" fill="none" stroke-linecap="round" stroke-linejoin="round" stroke-miterlimit="4" stroke="#484848" stroke-width="2"><g><path d="M 28.150002 29.950001C 27.25 28.599998 25.75 28 24.849998 26.650002C 23.650002 24.25 19.75 25 17.65 26.650002C 14.8 28 13.45 31.299999 11.2 33.25M 33.549999 26.200001C 32.650002 25.599998 31.900002 25.150002 31 24.849998C 30.099998 24.700001 29.049999 25.299999 28.599998 26.200001C 28 26.950001 27.25 27.700001 26.650002 28.599998M 20.5 39.699997C 17.950001 38.800003 15.25 40 12.7 39.699997C 11.8 39.550003 10.9 38.949997 11.2 38.199997C 12.85 29.799999 11.35 21.1 11.2 12.7C 11.05 11.8 11.8 10.9 12.7 11.2C 19.9 13.15 27.700001 11.05 35.199997 11.2C 35.949997 11.2 36.849998 11.8 36.699997 12.7C 34.900002 17.5 38.050003 23.200001 36.699997 28.299999M 11.2 33.700001C 14.65 33.849998 18.1 33.400002 21.700001 33.700001M 25.150002 17.5C 25.299999 19.15 26.5 20.799999 28.150002 20.5C 29.650002 20.35 31.599998 19.15 31.150002 17.5C 30.549999 16 29.799999 14.5 28.150002 14.5C 26.5 14.65 25.599998 16 25.150002 17.5M 44.949997 38.199997C 44.949997 38.199997 41.349998 46.300003 34.75 44.949997C 28.150002 43.449997 24.700001 38.199997 24.700001 38.199997C 24.700001 38.199997 28.450001 28.900002 34.75 31.450001C 41.050003 33.849998 44.949997 38.199997 44.949997 38.199997M 31.450001 38.199997C 31 40 32.950001 41.199997 34.75 41.5C 36.550003 41.800003 37.599998 39.849998 38.199997 38.199997C 38.650002 36.400002 36.550003 34.75 34.75 34.75C 32.950001 34.75 30.700001 36.400002 31.450001 38.199997"></path><path d="M 28.087 29.950001L 24.831999 26.720501C 22.768536 24.932224 19.704466 24.932224 17.641001 26.720501L 11.125 33.197502M 33.507999 26.133999C 32.920452 25.350868 31.998533 24.889999 31.019499 24.889999C 30.040466 24.889999 29.118546 25.350868 28.531 26.133999L 26.702499 28.571499M 20.5 39.625L 12.625 39.625C 11.796573 39.625 11.125 38.953426 11.125 38.125L 11.125 12.625C 11.125 11.796573 11.796573 11.125 12.625 11.125L 35.125 11.125C 35.953426 11.125 36.625 11.796573 36.625 12.625L 36.625 28.2325M 11.125 33.625L 21.625 33.625M 25.0975 17.527C 25.097097 19.178339 26.435659 20.517227 28.087 20.517227C 29.738338 20.517227 31.0769 19.178339 31.0765 17.527C 31.0769 15.87566 29.738338 14.536772 28.087 14.536772C 26.435659 14.536772 25.097097 15.87566 25.0975 17.527M 44.875 38.125C 44.875 38.125 41.5 44.875 34.75 44.875C 28 44.875 24.625 38.125 24.625 38.125C 24.625 38.125 28 31.375 34.75 31.375C 41.5 31.375 44.875 38.125 44.875 38.125ZM 31.375 38.125C 31.375 39.98896 32.88604 41.5 34.75 41.5C 36.61396 41.5 38.125 39.98896 38.125 38.125C 38.125 36.26104 36.61396 34.75 34.75 34.75C 32.88604 34.75 31.375 36.26104 31.375 38.125"></path></g></g></g><g id="g-root-tx_visibili_mdlpej1l72yv9-stroke" data-item-order="0" transform="translate(70, 160)"></g><g id="g-root-bloc_4nkn2z1l777k1-stroke" data-item-order="0" transform="translate(22, 226)"><g id="bloc_4nkn2z1l777k1-stroke" fill="none" stroke-linecap="round" stroke-linejoin="round" stroke-miterlimit="4" stroke="#484848" stroke-width="2"><g><path d="M 13.75 45.25C 15.4 36.400002 13.15 27.25 13.75 18.25M 10.75 42.25C 11.8 43.150002 12.55 44.5 13.75 45.25C 14.95 44.5 15.7 43.150002 16.75 42.25M 16.75 21.25C 15.7 20.200001 14.35 19.450001 13.75 18.25C 12.55 19 11.95 20.5 10.75 21.25M 18.25 13.75C 27.099998 15.1 36.699997 11.2 45.25 13.75M 21.25 10.75C 20.049999 11.5 18.85 12.55 18.25 13.75C 19.299999 14.65 20.35 15.7 21.25 16.75M 42.25 16.75C 43.300003 15.7 44.050003 14.5 45.25 13.75C 43.900002 13.15 43.150002 11.8 42.25 10.75M 21.25 21.25C 29.049999 23.200001 37.300003 20.950001 45.25 21.25C 45.099998 29.200001 45.25 37.300003 45.25 45.25C 37.300003 45.849998 29.200001 46.150002 21.25 45.25C 20.049999 37.300003 22.450001 29.200001 21.25 21.25M 39.25 45.25C 38.5 43.150002 39.25 40.75 39.25 38.5C 39.25 38.050003 39.550003 37.75 40 37.75C 40.449997 37.75 41.050003 37.75 41.5 37.75M 45.25 33.25C 43.300003 33.400002 41.199997 32.950001 39.25 33.25M 45.25 28.75C 43.300003 28.299999 41.050003 28 39.25 28.75M 27.25 21.25C 27.25 23.5 26.799999 25.75 27.25 28C 27.400002 28.450001 27.549999 28.599998 28 28.75C 29.950001 29.049999 32.049999 28.599998 34 28.75C 34.449997 28.75 34.900002 28.450001 34.75 28C 34 25.900002 34.900002 23.5 34.75 21.25M 25.75 39.25C 25.599998 37.449997 25.150002 35.650002 25.75 34C 25.900002 33.549999 25.450001 33.25 25 33.25C 23.799999 33.400002 22.450001 33.700001 21.25 33.25M 30.25 45.25C 29.950001 43.300003 29.650002 41.199997 30.25 39.25M 34.75 45.25C 34.150002 42.099998 35.650002 38.650002 34.75 35.5C 34.599998 35.050003 34.449997 34.900002 34 34.75C 32.799999 34.449997 31.450001 35.199997 30.25 34.75"></path><path d="M 13.75 45.25L 13.75 18.25M 10.75 42.25L 13.75 45.25L 16.75 42.25M 16.75 21.25L 13.75 18.25L 10.75 21.25M 18.25 13.75L 45.25 13.75M 21.25 10.75L 18.25 13.75L 21.25 16.75M 42.25 16.75L 45.25 13.75L 42.25 10.75M 21.25 21.25L 45.25 21.25L 45.25 45.25L 21.25 45.25ZM 39.25 45.25L 39.25 38.5C 39.25 38.085785 39.585785 37.75 40 37.75L 41.5 37.75M 45.25 33.25L 39.25 33.25M 45.25 28.75L 39.25 28.75M 27.25 21.25L 27.25 28C 27.25 28.414213 27.585787 28.75 28 28.75L 34 28.75C 34.414215 28.75 34.75 28.414213 34.75 28L 34.75 21.25M 25.75 39.25L 25.75 34C 25.75 33.585785 25.414213 33.25 25 33.25L 21.25 33.25M 30.25 45.25L 30.25 39.25M 34.75 45.25L 34.75 35.5C 34.75 35.085785 34.414215 34.75 34 34.75L 30.25 34.75"></path></g></g></g><g id="g-root-tx_zoneamen_dhyp5n1l72zny-stroke" data-item-order="0" transform="translate(70, 220)"></g></g></g></svg>