<?xml version="1.0" encoding="utf-8" standalone="yes"?>
<!DOCTYPE svg PUBLIC "-//W3C//DTD SVG 1.1//EN" "http://www.w3.org/Graphics/SVG/1.1/DTD/svg11.dtd">
<svg width="721" height="690" viewBox="0 0 721 690" style="fill:none;stroke:none;fill-rule:evenodd;clip-rule:evenodd;stroke-linecap:round;stroke-linejoin:round;stroke-miterlimit:1.5;" version="1.1" xmlns="http://www.w3.org/2000/svg" xmlns:xlink="http://www.w3.org/1999/xlink"><style id="fontImports"></style><rect id="" x="0" y="0" width="721" height="689.059" style="fill: #ffffff;"></rect><g id="items" style="isolation: isolate"><g id="blend" style="mix-blend-mode:normal"><g id="g-root-tf_qqxebf1kxen7u-fill" data-item-order="-495402" transform="translate(-9.5, -9.5)"><g id="tf_qqxebf1kxen7u-fill" stroke="none" fill="#ffffff"><g><path d="M 10 10L 730 10L 730 698.06L 10 698.06Z"></path></g></g></g><g id="g-root--1.cu-2_sy_1lynpvf1kxbrwn-fill" data-item-order="-357498" transform="translate(14.5, 38.5)"></g><g id="g-root--1.cu-1_sy_qwjo3f1kxbsow-fill" data-item-order="-357496" transform="translate(66, 66.5)"></g><g id="g-root-4.cu_sy_v3mj0b1kxd8n5-fill" data-item-order="-357492" transform="translate(542.5, 270.5)"></g><g id="g-root-3.cu_sy_1hbyzsr1kxd7nu-fill" data-item-order="-357488" transform="translate(374.5, 270.5)"></g><g id="g-root-2.cu_sy_1ltnx6j1kxd5vv-fill" data-item-order="-357484" transform="translate(206.5, 270.5)"></g><g id="g-root-1.cu_sy_1luwvcr1kxd81w-fill" data-item-order="-357480" transform="translate(38.5, 270.5)"></g><g id="g-root-tx_oportuni_1ih8b1kxemtd-fill" data-item-order="0" transform="translate(188.5, 144.5)"><g id="tx_oportuni_1ih8b1kxemtd-fill" stroke="none" fill="#484848"><g><text style="font: bold 25px Arial, Helvetica, sans-serif; white-space: pre;" font-weight="bold" font-size="25px" font-family="Arial, Helvetica, sans-serif"><tspan x="17.34" y="39" dominant-baseline="ideographic">Oportunidade Estratégica </tspan><tspan x="102.06" y="69" dominant-baseline="ideographic">em Imóveis</tspan></text></g></g></g><g id="g-root-tx_vantagem_4mbs1n1kxd81x-fill" data-item-order="0" transform="translate(32.5, 582.55859375)"><g id="tx_vantagem_4mbs1n1kxd81x-fill" stroke="none" fill="#484848"><g><text style="font: 20px Arial, Helvetica, sans-serif; white-space: pre;" font-size="20px" font-family="Arial, Helvetica, sans-serif"><tspan x="14.47" y="33" dominant-baseline="ideographic">Vantagem de </tspan><tspan x="20.41" y="57" dominant-baseline="ideographic">Localização</tspan></text></g></g></g><g id="g-root-tx_atualiza_8dp6j1kxd72m-fill" data-item-order="0" transform="translate(194.5, 582.55859375)"><g id="tx_atualiza_8dp6j1kxd72m-fill" stroke="none" fill="#484848"><g><text style="font: 20px Arial, Helvetica, sans-serif; white-space: pre;" font-size="20px" font-family="Arial, Helvetica, sans-serif"><tspan x="14.2" y="33" dominant-baseline="ideographic">Atualização de </tspan><tspan x="23.65" y="57" dominant-baseline="ideographic">Zoneamento</tspan></text></g></g></g><g id="g-root-tx_demandad_vbqp4r1kxd8gf-fill" data-item-order="0" transform="translate(368.5, 582.55859375)"><g id="tx_demandad_vbqp4r1kxd8gf-fill" stroke="none" fill="#484848"><g><text style="font: 20px Arial, Helvetica, sans-serif; white-space: pre;" font-size="20px" font-family="Arial, Helvetica, sans-serif"><tspan x="15.95" y="33" dominant-baseline="ideographic">Demanda de </tspan><tspan x="34.31" y="57" dominant-baseline="ideographic">Mercado</tspan></text></g></g></g><g id="g-root-tx_potencia_1ha3kjf1kxemtc-fill" data-item-order="0" transform="translate(536.5, 582.5)"><g id="tx_potencia_1ha3kjf1kxemtc-fill" stroke="none" fill="#484848"><g><text style="font: 20px Arial, Helvetica, sans-serif; white-space: pre;" font-size="20px" font-family="Arial, Helvetica, sans-serif"><tspan x="19.01" y="33" dominant-baseline="ideographic">Potencial de </tspan><tspan x="17.35" y="57" dominant-baseline="ideographic">Investimento</tspan></text></g></g></g><g id="g-root-tf_qqxebf1kxen7u-stroke" data-item-order="-495402" transform="translate(-9.5, -9.5)"></g><g id="g-root--1.cu-2_sy_1lynpvf1kxbrwn-stroke" data-item-order="-357498" transform="translate(14.5, 38.5)"><g id="-1.cu-2_sy_1lynpvf1kxbrwn-stroke" fill="none" stroke-linecap="butt" stroke-linejoin="miter" stroke-miterlimit="4" stroke="#484848" stroke-width="1"><g><path d="M 670 230C 663.3726 230 658 235.3726 658 242L 34 242C 34 235.3726 28.6274 230 22 230L 670 230ZM 22 206L 670 206L 670 230L 22 230L 22 206ZM 10 542L 682 542L 682 518L 10 518L 10 542ZM 682 518C 675.3726 518 670 512.6274 670 506L 22 506C 22 512.6274 16.6274 518 10 518L 682 518ZM 346 10L 682 180.2642L 682 206L 10 206L 10 180.2642L 346 10Z"></path></g></g></g><g id="g-root--1.cu-1_sy_qwjo3f1kxbsow-stroke" data-item-order="-357496" transform="translate(66, 66.5)"><g id="-1.cu-1_sy_qwjo3f1kxbsow-stroke" fill="none" stroke-linecap="butt" stroke-linejoin="miter" stroke-miterlimit="4" stroke="#484848" stroke-width="1"><g><path d="M 294.5 10L 10 154L 580 154L 294.5 10Z"></path></g></g></g><g id="g-root-4.cu_sy_v3mj0b1kxd8n5-stroke" data-item-order="-357492" transform="translate(542.5, 270.5)"><g id="4.cu_sy_v3mj0b1kxd8n5-stroke" fill="none" stroke-linecap="butt" stroke-linejoin="miter" stroke-miterlimit="4" stroke="#484848" stroke-width="1"><g><path d="M 34 58.058594L 106 58.058594L 118 226.058594L 22 226.058594L 34 58.058594ZM 22 10L 118 10L 118 34.0583L 22 34.0583L 22 10ZM 10 274.058594L 130 274.058594L 130 250.058777L 10 250.058777L 10 274.058594ZM 22 34.058594L 118 34.058594C 111.3726 34.058594 106 39.431194 106 46.058594L 34 46.058594C 34 39.431194 28.6274 34.058594 22 34.058594ZM 10 250.058594L 130 250.058594C 123.3726 250.058594 118 244.685994 118 238.058594L 22 238.058594C 22 244.685994 16.6274 250.058594 10 250.058594Z"></path></g></g><g id="4.cu_sy_v3mj0b1kxd8n5-stroke" fill="none" stroke-linecap="butt" stroke-linejoin="miter" stroke-miterlimit="4" stroke="#484848" stroke-width="1"><g><path d="M 37 46.058594L 103 46.058594C 103 46.058594 115 46.058594 115 52.058594L 115 52.058594C 115 52.058594 115 58.058594 103 58.058594L 37 58.058594C 37 58.058594 25 58.058594 25 52.058594L 25 52.058594C 25 52.058594 25 46.058594 37 46.058594M 28 226.058594L 112 226.058594C 112 226.058594 124 226.058594 124 232.058594L 124 232.058594C 124 232.058594 124 238.058594 112 238.058594L 28 238.058594C 28 238.058594 16 238.058594 16 232.058594L 16 232.058594C 16 232.058594 16 226.058594 28 226.058594"></path></g></g></g><g id="g-root-3.cu_sy_1hbyzsr1kxd7nu-stroke" data-item-order="-357488" transform="translate(374.5, 270.5)"><g id="3.cu_sy_1hbyzsr1kxd7nu-stroke" fill="none" stroke-linecap="butt" stroke-linejoin="miter" stroke-miterlimit="4" stroke="#484848" stroke-width="1"><g><path d="M 34 58.058594L 106 58.058594L 118 226.058594L 22 226.058594L 34 58.058594ZM 22 10L 118 10L 118 34.0583L 22 34.0583L 22 10ZM 10 274.058594L 130 274.058594L 130 250.058777L 10 250.058777L 10 274.058594ZM 22 34.058594L 118 34.058594C 111.3726 34.058594 106 39.431194 106 46.058594L 34 46.058594C 34 39.431194 28.6274 34.058594 22 34.058594ZM 10 250.058594L 130 250.058594C 123.3726 250.058594 118 244.685994 118 238.058594L 22 238.058594C 22 244.685994 16.6274 250.058594 10 250.058594Z"></path></g></g><g id="3.cu_sy_1hbyzsr1kxd7nu-stroke" fill="none" stroke-linecap="butt" stroke-linejoin="miter" stroke-miterlimit="4" stroke="#484848" stroke-width="1"><g><path d="M 37 46.058594L 103 46.058594C 103 46.058594 115 46.058594 115 52.058594L 115 52.058594C 115 52.058594 115 58.058594 103 58.058594L 37 58.058594C 37 58.058594 25 58.058594 25 52.058594L 25 52.058594C 25 52.058594 25 46.058594 37 46.058594M 28 226.058594L 112 226.058594C 112 226.058594 124 226.058594 124 232.058594L 124 232.058594C 124 232.058594 124 238.058594 112 238.058594L 28 238.058594C 28 238.058594 16 238.058594 16 232.058594L 16 232.058594C 16 232.058594 16 226.058594 28 226.058594"></path></g></g></g><g id="g-root-2.cu_sy_1ltnx6j1kxd5vv-stroke" data-item-order="-357484" transform="translate(206.5, 270.5)"><g id="2.cu_sy_1ltnx6j1kxd5vv-stroke" fill="none" stroke-linecap="butt" stroke-linejoin="miter" stroke-miterlimit="4" stroke="#484848" stroke-width="1"><g><path d="M 34 58.058594L 106 58.058594L 118 226.058594L 22 226.058594L 34 58.058594ZM 22 10L 118 10L 118 34.0583L 22 34.0583L 22 10ZM 10 274.058594L 130 274.058594L 130 250.058777L 10 250.058777L 10 274.058594ZM 22 34.058594L 118 34.058594C 111.3726 34.058594 106 39.431194 106 46.058594L 34 46.058594C 34 39.431194 28.6274 34.058594 22 34.058594ZM 10 250.058594L 130 250.058594C 123.3726 250.058594 118 244.685994 118 238.058594L 22 238.058594C 22 244.685994 16.6274 250.058594 10 250.058594Z"></path></g></g><g id="2.cu_sy_1ltnx6j1kxd5vv-stroke" fill="none" stroke-linecap="butt" stroke-linejoin="miter" stroke-miterlimit="4" stroke="#484848" stroke-width="1"><g><path d="M 37 46.058594L 103 46.058594C 103 46.058594 115 46.058594 115 52.058594L 115 52.058594C 115 52.058594 115 58.058594 103 58.058594L 37 58.058594C 37 58.058594 25 58.058594 25 52.058594L 25 52.058594C 25 52.058594 25 46.058594 37 46.058594M 28 226.058594L 112 226.058594C 112 226.058594 124 226.058594 124 232.058594L 124 232.058594C 124 232.058594 124 238.058594 112 238.058594L 28 238.058594C 28 238.058594 16 238.058594 16 232.058594L 16 232.058594C 16 232.058594 16 226.058594 28 226.058594"></path></g></g></g><g id="g-root-1.cu_sy_1luwvcr1kxd81w-stroke" data-item-order="-357480" transform="translate(38.5, 270.5)"><g id="1.cu_sy_1luwvcr1kxd81w-stroke" fill="none" stroke-linecap="butt" stroke-linejoin="miter" stroke-miterlimit="4" stroke="#484848" stroke-width="1"><g><path d="M 34 58.058594L 106 58.058594L 118 226.058594L 22 226.058594L 34 58.058594ZM 22 10L 118 10L 118 34.0583L 22 34.0583L 22 10ZM 10 274.058594L 130 274.058594L 130 250.058777L 10 250.058777L 10 274.058594ZM 22 34.058594L 118 34.058594C 111.3726 34.058594 106 39.431194 106 46.058594L 34 46.058594C 34 39.431194 28.6274 34.058594 22 34.058594ZM 10 250.058594L 130 250.058594C 123.3726 250.058594 118 244.685994 118 238.058594L 22 238.058594C 22 244.685994 16.6274 250.058594 10 250.058594Z"></path></g></g><g id="1.cu_sy_1luwvcr1kxd81w-stroke" fill="none" stroke-linecap="butt" stroke-linejoin="miter" stroke-miterlimit="4" stroke="#484848" stroke-width="1"><g><path d="M 37 46.058594L 103 46.058594C 103 46.058594 115 46.058594 115 52.058594L 115 52.058594C 115 52.058594 115 58.058594 103 58.058594L 37 58.058594C 37 58.058594 25 58.058594 25 52.058594L 25 52.058594C 25 52.058594 25 46.058594 37 46.058594M 28 226.058594L 112 226.058594C 112 226.058594 124 226.058594 124 232.058594L 124 232.058594C 124 232.058594 124 238.058594 112 238.058594L 28 238.058594C 28 238.058594 16 238.058594 16 232.058594L 16 232.058594C 16 232.058594 16 226.058594 28 226.058594"></path></g></g></g><g id="g-root-tx_oportuni_1ih8b1kxemtd-stroke" data-item-order="0" transform="translate(188.5, 144.5)"></g><g id="g-root-tx_vantagem_4mbs1n1kxd81x-stroke" data-item-order="0" transform="translate(32.5, 582.55859375)"></g><g id="g-root-tx_atualiza_8dp6j1kxd72m-stroke" data-item-order="0" transform="translate(194.5, 582.55859375)"></g><g id="g-root-tx_demandad_vbqp4r1kxd8gf-stroke" data-item-order="0" transform="translate(368.5, 582.55859375)"></g><g id="g-root-tx_potencia_1ha3kjf1kxemtc-stroke" data-item-order="0" transform="translate(536.5, 582.5)"></g></g></g></svg>